G04 #@! TF.GenerationSoftware,KiCad,Pcbnew,(5.1.0-0)*
G04 #@! TF.CreationDate,2019-04-01T19:00:45+02:00*
G04 #@! TF.ProjectId,nowae011,6e6f7761-6530-4313-912e-6b696361645f,rev?*
G04 #@! TF.SameCoordinates,Original*
G04 #@! TF.FileFunction,Soldermask,Top*
G04 #@! TF.FilePolarity,Negative*
%FSLAX46Y46*%
G04 Gerber Fmt 4.6, Leading zero omitted, Abs format (unit mm)*
G04 Created by KiCad (PCBNEW (5.1.0-0)) date 2019-04-01 19:00:45*
%MOMM*%
%LPD*%
G04 APERTURE LIST*
%ADD10C,0.100000*%
G04 APERTURE END LIST*
D10*
G36*
X21651000Y349000D02*
G01*
X20949000Y349000D01*
X20949000Y1251000D01*
X21651000Y1251000D01*
X21651000Y349000D01*
X21651000Y349000D01*
G37*
G36*
X20251000Y349000D02*
G01*
X19549000Y349000D01*
X19549000Y1251000D01*
X20251000Y1251000D01*
X20251000Y349000D01*
X20251000Y349000D01*
G37*
G36*
X19251000Y549000D02*
G01*
X18349000Y549000D01*
X18349000Y1251000D01*
X19251000Y1251000D01*
X19251000Y549000D01*
X19251000Y549000D01*
G37*
G36*
X8651000Y649000D02*
G01*
X7549000Y649000D01*
X7549000Y2151000D01*
X8651000Y2151000D01*
X8651000Y649000D01*
X8651000Y649000D01*
G37*
G36*
X5251000Y649000D02*
G01*
X4149000Y649000D01*
X4149000Y2151000D01*
X5251000Y2151000D01*
X5251000Y649000D01*
X5251000Y649000D01*
G37*
G36*
X17351000Y899000D02*
G01*
X16249000Y899000D01*
X16249000Y4701000D01*
X17351000Y4701000D01*
X17351000Y899000D01*
X17351000Y899000D01*
G37*
G36*
X14951000Y899000D02*
G01*
X13849000Y899000D01*
X13849000Y4701000D01*
X14951000Y4701000D01*
X14951000Y899000D01*
X14951000Y899000D01*
G37*
G36*
X9851000Y1549000D02*
G01*
X9149000Y1549000D01*
X9149000Y2451000D01*
X9851000Y2451000D01*
X9851000Y1549000D01*
X9851000Y1549000D01*
G37*
G36*
X11251000Y1549000D02*
G01*
X10549000Y1549000D01*
X10549000Y2451000D01*
X11251000Y2451000D01*
X11251000Y1549000D01*
X11251000Y1549000D01*
G37*
G36*
X2988455Y3482472D02*
G01*
X3065812Y3459005D01*
X3137117Y3420892D01*
X3199608Y3369608D01*
X3250892Y3307117D01*
X3289005Y3235812D01*
X3312472Y3158455D01*
X3321000Y3071860D01*
X3321000Y2008140D01*
X3312472Y1921545D01*
X3289005Y1844188D01*
X3250892Y1772883D01*
X3199608Y1710392D01*
X3137117Y1659108D01*
X3065812Y1620995D01*
X2988455Y1597528D01*
X2901860Y1589000D01*
X-801000Y1589000D01*
X-801000Y3491000D01*
X2901860Y3491000D01*
X2988455Y3482472D01*
X2988455Y3482472D01*
G37*
G36*
X23661000Y1589000D02*
G01*
X19958140Y1589000D01*
X19871545Y1597528D01*
X19794188Y1620995D01*
X19722883Y1659108D01*
X19660392Y1710392D01*
X19609108Y1772883D01*
X19570995Y1844188D01*
X19547528Y1921545D01*
X19539000Y2008140D01*
X19539000Y3071860D01*
X19547528Y3158455D01*
X19570995Y3235812D01*
X19609108Y3307117D01*
X19660392Y3369608D01*
X19722883Y3420892D01*
X19794188Y3459005D01*
X19871545Y3482472D01*
X19958140Y3491000D01*
X23661000Y3491000D01*
X23661000Y1589000D01*
X23661000Y1589000D01*
G37*
G36*
X19251000Y1949000D02*
G01*
X18349000Y1949000D01*
X18349000Y2651000D01*
X19251000Y2651000D01*
X19251000Y1949000D01*
X19251000Y1949000D01*
G37*
G36*
X19251000Y2949000D02*
G01*
X18349000Y2949000D01*
X18349000Y3651000D01*
X19251000Y3651000D01*
X19251000Y2949000D01*
X19251000Y2949000D01*
G37*
G36*
X5501000Y3049000D02*
G01*
X3699000Y3049000D01*
X3699000Y4051000D01*
X5501000Y4051000D01*
X5501000Y3049000D01*
X5501000Y3049000D01*
G37*
G36*
X12901000Y3144000D02*
G01*
X11299000Y3144000D01*
X11299000Y3846000D01*
X12901000Y3846000D01*
X12901000Y3144000D01*
X12901000Y3144000D01*
G37*
G36*
X7501000Y3144000D02*
G01*
X5899000Y3144000D01*
X5899000Y3846000D01*
X7501000Y3846000D01*
X7501000Y3144000D01*
X7501000Y3144000D01*
G37*
G36*
X10651000Y3699000D02*
G01*
X8149000Y3699000D01*
X8149000Y7101000D01*
X10651000Y7101000D01*
X10651000Y3699000D01*
X10651000Y3699000D01*
G37*
G36*
X2988455Y6022472D02*
G01*
X3065812Y5999005D01*
X3137117Y5960892D01*
X3199608Y5909608D01*
X3250892Y5847117D01*
X3289005Y5775812D01*
X3312472Y5698455D01*
X3321000Y5611860D01*
X3321000Y4548140D01*
X3312472Y4461545D01*
X3289005Y4384188D01*
X3250892Y4312883D01*
X3199608Y4250392D01*
X3137117Y4199108D01*
X3065812Y4160995D01*
X2988455Y4137528D01*
X2901860Y4129000D01*
X-801000Y4129000D01*
X-801000Y6031000D01*
X2901860Y6031000D01*
X2988455Y6022472D01*
X2988455Y6022472D01*
G37*
G36*
X19351000Y5863256D02*
G01*
X19353402Y5838870D01*
X19360515Y5815421D01*
X19372066Y5793810D01*
X19387611Y5774868D01*
X19406553Y5759323D01*
X19428164Y5747772D01*
X19451613Y5740659D01*
X19475999Y5738257D01*
X19500385Y5740659D01*
X19523834Y5747772D01*
X19545445Y5759323D01*
X19564387Y5774868D01*
X19579932Y5793810D01*
X19586238Y5804332D01*
X19609105Y5847113D01*
X19660392Y5909608D01*
X19722883Y5960892D01*
X19794188Y5999005D01*
X19871545Y6022472D01*
X19958140Y6031000D01*
X23661000Y6031000D01*
X23661000Y4129000D01*
X19958140Y4129000D01*
X19871545Y4137528D01*
X19794188Y4160995D01*
X19722883Y4199108D01*
X19660392Y4250392D01*
X19609108Y4312883D01*
X19570995Y4384188D01*
X19547528Y4461545D01*
X19539000Y4548140D01*
X19539000Y5324001D01*
X19536598Y5348387D01*
X19529485Y5371836D01*
X19517934Y5393447D01*
X19502389Y5412389D01*
X19483447Y5427934D01*
X19461836Y5439485D01*
X19438387Y5446598D01*
X19414001Y5449000D01*
X16649000Y5449000D01*
X16649000Y6651000D01*
X19351000Y6651000D01*
X19351000Y5863256D01*
X19351000Y5863256D01*
G37*
G36*
X19251000Y4349000D02*
G01*
X18349000Y4349000D01*
X18349000Y5051000D01*
X19251000Y5051000D01*
X19251000Y4349000D01*
X19251000Y4349000D01*
G37*
G36*
X12901000Y4414000D02*
G01*
X11299000Y4414000D01*
X11299000Y5116000D01*
X12901000Y5116000D01*
X12901000Y4414000D01*
X12901000Y4414000D01*
G37*
G36*
X7501000Y4414000D02*
G01*
X5899000Y4414000D01*
X5899000Y5116000D01*
X7501000Y5116000D01*
X7501000Y4414000D01*
X7501000Y4414000D01*
G37*
G36*
X16351000Y5449000D02*
G01*
X13649000Y5449000D01*
X13649000Y6651000D01*
X16351000Y6651000D01*
X16351000Y5449000D01*
X16351000Y5449000D01*
G37*
G36*
X12901000Y5684000D02*
G01*
X11299000Y5684000D01*
X11299000Y6386000D01*
X12901000Y6386000D01*
X12901000Y5684000D01*
X12901000Y5684000D01*
G37*
G36*
X7501000Y5684000D02*
G01*
X5899000Y5684000D01*
X5899000Y6386000D01*
X7501000Y6386000D01*
X7501000Y5684000D01*
X7501000Y5684000D01*
G37*
G36*
X5501000Y5949000D02*
G01*
X3699000Y5949000D01*
X3699000Y6951000D01*
X5501000Y6951000D01*
X5501000Y5949000D01*
X5501000Y5949000D01*
G37*
G36*
X2988455Y8562472D02*
G01*
X3065812Y8539005D01*
X3137117Y8500892D01*
X3199608Y8449608D01*
X3250892Y8387117D01*
X3289005Y8315812D01*
X3312472Y8238455D01*
X3321000Y8151860D01*
X3321000Y7088140D01*
X3312472Y7001545D01*
X3289005Y6924188D01*
X3250892Y6852883D01*
X3199608Y6790392D01*
X3137117Y6739108D01*
X3065812Y6700995D01*
X2988455Y6677528D01*
X2901860Y6669000D01*
X-801000Y6669000D01*
X-801000Y8571000D01*
X2901860Y8571000D01*
X2988455Y8562472D01*
X2988455Y8562472D01*
G37*
G36*
X23661000Y6669000D02*
G01*
X19958140Y6669000D01*
X19871545Y6677528D01*
X19794188Y6700995D01*
X19722883Y6739108D01*
X19660392Y6790392D01*
X19609108Y6852883D01*
X19570995Y6924188D01*
X19547528Y7001545D01*
X19539000Y7088140D01*
X19539000Y8151860D01*
X19547528Y8238455D01*
X19570995Y8315812D01*
X19609108Y8387117D01*
X19660392Y8449608D01*
X19722883Y8500892D01*
X19794188Y8539005D01*
X19871545Y8562472D01*
X19958140Y8571000D01*
X23661000Y8571000D01*
X23661000Y6669000D01*
X23661000Y6669000D01*
G37*
G36*
X12901000Y6954000D02*
G01*
X11299000Y6954000D01*
X11299000Y7656000D01*
X12901000Y7656000D01*
X12901000Y6954000D01*
X12901000Y6954000D01*
G37*
G36*
X7501000Y6954000D02*
G01*
X5899000Y6954000D01*
X5899000Y7656000D01*
X7501000Y7656000D01*
X7501000Y6954000D01*
X7501000Y6954000D01*
G37*
G36*
X19351000Y8549000D02*
G01*
X16649000Y8549000D01*
X16649000Y9751000D01*
X19351000Y9751000D01*
X19351000Y8549000D01*
X19351000Y8549000D01*
G37*
G36*
X16351000Y8549000D02*
G01*
X13649000Y8549000D01*
X13649000Y9751000D01*
X16351000Y9751000D01*
X16351000Y8549000D01*
X16351000Y8549000D01*
G37*
G36*
X13251000Y8549000D02*
G01*
X12549000Y8549000D01*
X12549000Y9451000D01*
X13251000Y9451000D01*
X13251000Y8549000D01*
X13251000Y8549000D01*
G37*
G36*
X11851000Y8549000D02*
G01*
X11149000Y8549000D01*
X11149000Y9451000D01*
X11851000Y9451000D01*
X11851000Y8549000D01*
X11851000Y8549000D01*
G37*
G36*
X9451000Y8549000D02*
G01*
X8749000Y8549000D01*
X8749000Y9451000D01*
X9451000Y9451000D01*
X9451000Y8549000D01*
X9451000Y8549000D01*
G37*
G36*
X10851000Y8549000D02*
G01*
X10149000Y8549000D01*
X10149000Y9451000D01*
X10851000Y9451000D01*
X10851000Y8549000D01*
X10851000Y8549000D01*
G37*
G36*
X7251000Y8549000D02*
G01*
X6549000Y8549000D01*
X6549000Y9451000D01*
X7251000Y9451000D01*
X7251000Y8549000D01*
X7251000Y8549000D01*
G37*
G36*
X5851000Y8549000D02*
G01*
X5149000Y8549000D01*
X5149000Y9451000D01*
X5851000Y9451000D01*
X5851000Y8549000D01*
X5851000Y8549000D01*
G37*
M02*
