G04 #@! TF.GenerationSoftware,KiCad,Pcbnew,(5.1.0-0)*
G04 #@! TF.CreationDate,2019-04-01T19:00:45+02:00*
G04 #@! TF.ProjectId,nowae011,6e6f7761-6530-4313-912e-6b696361645f,rev?*
G04 #@! TF.SameCoordinates,Original*
G04 #@! TF.FileFunction,Legend,Bot*
G04 #@! TF.FilePolarity,Positive*
%FSLAX46Y46*%
G04 Gerber Fmt 4.6, Leading zero omitted, Abs format (unit mm)*
G04 Created by KiCad (PCBNEW (5.1.0-0)) date 2019-04-01 19:00:45*
%MOMM*%
%LPD*%
G04 APERTURE LIST*
%ADD10C,0.150000*%
%ADD11C,0.010000*%
G04 APERTURE END LIST*
D10*
X13100095Y1251428D02*
X13900095Y1251428D01*
X13100095Y1708571D01*
X13900095Y1708571D01*
X13900095Y2241904D02*
X13900095Y2394285D01*
X13862000Y2470476D01*
X13785809Y2546666D01*
X13633428Y2584761D01*
X13366761Y2584761D01*
X13214380Y2546666D01*
X13138190Y2470476D01*
X13100095Y2394285D01*
X13100095Y2241904D01*
X13138190Y2165714D01*
X13214380Y2089523D01*
X13366761Y2051428D01*
X13633428Y2051428D01*
X13785809Y2089523D01*
X13862000Y2165714D01*
X13900095Y2241904D01*
X13900095Y2851428D02*
X13100095Y3041904D01*
X13671523Y3194285D01*
X13100095Y3346666D01*
X13900095Y3537142D01*
X13328666Y3803809D02*
X13328666Y4184761D01*
X13100095Y3727619D02*
X13900095Y3994285D01*
X13100095Y4260952D01*
X13519142Y4527619D02*
X13519142Y4794285D01*
X13100095Y4908571D02*
X13100095Y4527619D01*
X13900095Y4527619D01*
X13900095Y4908571D01*
X13900095Y5403809D02*
X13900095Y5480000D01*
X13862000Y5556190D01*
X13823904Y5594285D01*
X13747714Y5632380D01*
X13595333Y5670476D01*
X13404857Y5670476D01*
X13252476Y5632380D01*
X13176285Y5594285D01*
X13138190Y5556190D01*
X13100095Y5480000D01*
X13100095Y5403809D01*
X13138190Y5327619D01*
X13176285Y5289523D01*
X13252476Y5251428D01*
X13404857Y5213333D01*
X13595333Y5213333D01*
X13747714Y5251428D01*
X13823904Y5289523D01*
X13862000Y5327619D01*
X13900095Y5403809D01*
X13100095Y6432380D02*
X13100095Y5975238D01*
X13100095Y6203809D02*
X13900095Y6203809D01*
X13785809Y6127619D01*
X13709619Y6051428D01*
X13671523Y5975238D01*
X13100095Y7194285D02*
X13100095Y6737142D01*
X13100095Y6965714D02*
X13900095Y6965714D01*
X13785809Y6889523D01*
X13709619Y6813333D01*
X13671523Y6737142D01*
X13404857Y7537142D02*
X13404857Y8146666D01*
X13900095Y8680000D02*
X13900095Y8756190D01*
X13862000Y8832380D01*
X13823904Y8870476D01*
X13747714Y8908571D01*
X13595333Y8946666D01*
X13404857Y8946666D01*
X13252476Y8908571D01*
X13176285Y8870476D01*
X13138190Y8832380D01*
X13100095Y8756190D01*
X13100095Y8680000D01*
X13138190Y8603809D01*
X13176285Y8565714D01*
X13252476Y8527619D01*
X13404857Y8489523D01*
X13595333Y8489523D01*
X13747714Y8527619D01*
X13823904Y8565714D01*
X13862000Y8603809D01*
X13900095Y8680000D01*
X21602476Y9340857D02*
X20992952Y9340857D01*
X21297714Y9036095D02*
X21297714Y9645619D01*
X20726285Y9836095D02*
X20459619Y9036095D01*
X20192952Y9836095D01*
X19773904Y9836095D02*
X19621523Y9836095D01*
X19545333Y9798000D01*
X19469142Y9721809D01*
X19431047Y9569428D01*
X19431047Y9302761D01*
X19469142Y9150380D01*
X19545333Y9074190D01*
X19621523Y9036095D01*
X19773904Y9036095D01*
X19850095Y9074190D01*
X19926285Y9150380D01*
X19964380Y9302761D01*
X19964380Y9569428D01*
X19926285Y9721809D01*
X19850095Y9798000D01*
X19773904Y9836095D01*
X19088190Y9836095D02*
X19088190Y9188476D01*
X19050095Y9112285D01*
X19012000Y9074190D01*
X18935809Y9036095D01*
X18783428Y9036095D01*
X18707238Y9074190D01*
X18669142Y9112285D01*
X18631047Y9188476D01*
X18631047Y9836095D01*
X18364380Y9836095D02*
X17907238Y9836095D01*
X18135809Y9036095D02*
X18135809Y9836095D01*
X20421523Y1162000D02*
X20497714Y1200095D01*
X20612000Y1200095D01*
X20726285Y1162000D01*
X20802476Y1085809D01*
X20840571Y1009619D01*
X20878666Y857238D01*
X20878666Y742952D01*
X20840571Y590571D01*
X20802476Y514380D01*
X20726285Y438190D01*
X20612000Y400095D01*
X20535809Y400095D01*
X20421523Y438190D01*
X20383428Y476285D01*
X20383428Y742952D01*
X20535809Y742952D01*
X20040571Y400095D02*
X20040571Y1200095D01*
X19583428Y400095D01*
X19583428Y1200095D01*
X19202476Y400095D02*
X19202476Y1200095D01*
X19012000Y1200095D01*
X18897714Y1162000D01*
X18821523Y1085809D01*
X18783428Y1009619D01*
X18745333Y857238D01*
X18745333Y742952D01*
X18783428Y590571D01*
X18821523Y514380D01*
X18897714Y438190D01*
X19012000Y400095D01*
X19202476Y400095D01*
X19151523Y4718095D02*
X19151523Y5518095D01*
X18846761Y5518095D01*
X18770571Y5480000D01*
X18732476Y5441904D01*
X18694380Y5365714D01*
X18694380Y5251428D01*
X18732476Y5175238D01*
X18770571Y5137142D01*
X18846761Y5099047D01*
X19151523Y5099047D01*
X17932476Y5480000D02*
X18008666Y5518095D01*
X18122952Y5518095D01*
X18237238Y5480000D01*
X18313428Y5403809D01*
X18351523Y5327619D01*
X18389619Y5175238D01*
X18389619Y5060952D01*
X18351523Y4908571D01*
X18313428Y4832380D01*
X18237238Y4756190D01*
X18122952Y4718095D01*
X18046761Y4718095D01*
X17932476Y4756190D01*
X17894380Y4794285D01*
X17894380Y5060952D01*
X18046761Y5060952D01*
X4908476Y5137142D02*
X4641809Y5137142D01*
X4527523Y4718095D02*
X4908476Y4718095D01*
X4908476Y5518095D01*
X4527523Y5518095D01*
X4184666Y4718095D02*
X4184666Y5518095D01*
X3727523Y4718095D01*
X3727523Y5518095D01*
X3657523Y1162000D02*
X3733714Y1200095D01*
X3848000Y1200095D01*
X3962285Y1162000D01*
X4038476Y1085809D01*
X4076571Y1009619D01*
X4114666Y857238D01*
X4114666Y742952D01*
X4076571Y590571D01*
X4038476Y514380D01*
X3962285Y438190D01*
X3848000Y400095D01*
X3771809Y400095D01*
X3657523Y438190D01*
X3619428Y476285D01*
X3619428Y742952D01*
X3771809Y742952D01*
X3276571Y400095D02*
X3276571Y1200095D01*
X2819428Y400095D01*
X2819428Y1200095D01*
X2438476Y400095D02*
X2438476Y1200095D01*
X2248000Y1200095D01*
X2133714Y1162000D01*
X2057523Y1085809D01*
X2019428Y1009619D01*
X1981333Y857238D01*
X1981333Y742952D01*
X2019428Y590571D01*
X2057523Y514380D01*
X2133714Y438190D01*
X2248000Y400095D01*
X2438476Y400095D01*
X5067047Y9340857D02*
X4457523Y9340857D01*
X4762285Y9036095D02*
X4762285Y9645619D01*
X4114666Y9759904D02*
X4076571Y9798000D01*
X4000380Y9836095D01*
X3809904Y9836095D01*
X3733714Y9798000D01*
X3695619Y9759904D01*
X3657523Y9683714D01*
X3657523Y9607523D01*
X3695619Y9493238D01*
X4152761Y9036095D01*
X3657523Y9036095D01*
X2971809Y9569428D02*
X2971809Y9036095D01*
X3162285Y9874190D02*
X3352761Y9302761D01*
X2857523Y9302761D01*
X2667047Y9836095D02*
X2400380Y9036095D01*
X2133714Y9836095D01*
X1867047Y9036095D02*
X1867047Y9836095D01*
X1486095Y9036095D02*
X1486095Y9836095D01*
X1028952Y9036095D01*
X1028952Y9836095D01*
D11*
G36*
X16760323Y9082102D02*
G01*
X16755645Y9099999D01*
X16732445Y9148759D01*
X16696284Y9189210D01*
X16650208Y9219860D01*
X16597261Y9239218D01*
X16540487Y9245795D01*
X16482931Y9238099D01*
X16477005Y9236414D01*
X16441728Y9219580D01*
X16404848Y9191959D01*
X16372014Y9158579D01*
X16348875Y9124466D01*
X16347149Y9120850D01*
X16334192Y9075723D01*
X16330718Y9023377D01*
X16336528Y8971048D01*
X16351422Y8925974D01*
X16352565Y8923726D01*
X16385678Y8876510D01*
X16428993Y8839409D01*
X16459113Y8823325D01*
X16487384Y8811479D01*
X16487384Y8268895D01*
X16487405Y8158075D01*
X16487494Y8063337D01*
X16487688Y7983364D01*
X16488024Y7916841D01*
X16488540Y7862450D01*
X16489274Y7818878D01*
X16490263Y7784806D01*
X16491545Y7758920D01*
X16493157Y7739904D01*
X16495137Y7726441D01*
X16497523Y7717216D01*
X16500351Y7710912D01*
X16503426Y7706500D01*
X16525883Y7690997D01*
X16554204Y7686872D01*
X16580947Y7694554D01*
X16590007Y7701494D01*
X16593032Y7705590D01*
X16595631Y7712235D01*
X16597845Y7722718D01*
X16599713Y7738325D01*
X16601274Y7760343D01*
X16602567Y7790061D01*
X16603632Y7828764D01*
X16604508Y7877740D01*
X16605234Y7938276D01*
X16605849Y8011660D01*
X16606393Y8099178D01*
X16606906Y8202118D01*
X16607180Y8263955D01*
X16609545Y8811612D01*
X16652309Y8833282D01*
X16699417Y8866367D01*
X16734821Y8910498D01*
X16757472Y8962968D01*
X16766322Y9021071D01*
X16760323Y9082102D01*
X16760323Y9082102D01*
G37*
X16760323Y9082102D02*
X16755645Y9099999D01*
X16732445Y9148759D01*
X16696284Y9189210D01*
X16650208Y9219860D01*
X16597261Y9239218D01*
X16540487Y9245795D01*
X16482931Y9238099D01*
X16477005Y9236414D01*
X16441728Y9219580D01*
X16404848Y9191959D01*
X16372014Y9158579D01*
X16348875Y9124466D01*
X16347149Y9120850D01*
X16334192Y9075723D01*
X16330718Y9023377D01*
X16336528Y8971048D01*
X16351422Y8925974D01*
X16352565Y8923726D01*
X16385678Y8876510D01*
X16428993Y8839409D01*
X16459113Y8823325D01*
X16487384Y8811479D01*
X16487384Y8268895D01*
X16487405Y8158075D01*
X16487494Y8063337D01*
X16487688Y7983364D01*
X16488024Y7916841D01*
X16488540Y7862450D01*
X16489274Y7818878D01*
X16490263Y7784806D01*
X16491545Y7758920D01*
X16493157Y7739904D01*
X16495137Y7726441D01*
X16497523Y7717216D01*
X16500351Y7710912D01*
X16503426Y7706500D01*
X16525883Y7690997D01*
X16554204Y7686872D01*
X16580947Y7694554D01*
X16590007Y7701494D01*
X16593032Y7705590D01*
X16595631Y7712235D01*
X16597845Y7722718D01*
X16599713Y7738325D01*
X16601274Y7760343D01*
X16602567Y7790061D01*
X16603632Y7828764D01*
X16604508Y7877740D01*
X16605234Y7938276D01*
X16605849Y8011660D01*
X16606393Y8099178D01*
X16606906Y8202118D01*
X16607180Y8263955D01*
X16609545Y8811612D01*
X16652309Y8833282D01*
X16699417Y8866367D01*
X16734821Y8910498D01*
X16757472Y8962968D01*
X16766322Y9021071D01*
X16760323Y9082102D01*
G36*
X16326083Y8546374D02*
G01*
X16303420Y8598298D01*
X16268235Y8643092D01*
X16221554Y8677795D01*
X16200962Y8687742D01*
X16158815Y8698511D01*
X16109319Y8700835D01*
X16060241Y8694872D01*
X16026259Y8684137D01*
X15973802Y8652188D01*
X15934782Y8609286D01*
X15909494Y8555878D01*
X15898230Y8492408D01*
X15898086Y8489863D01*
X15897846Y8452101D01*
X15902899Y8422432D01*
X15914826Y8391952D01*
X15915860Y8389766D01*
X15945255Y8343737D01*
X15983942Y8306075D01*
X16027356Y8281157D01*
X16030130Y8280120D01*
X16061151Y8268902D01*
X16061151Y7993956D01*
X16061297Y7913695D01*
X16061781Y7849181D01*
X16062669Y7798768D01*
X16064028Y7760808D01*
X16065925Y7733652D01*
X16068427Y7715655D01*
X16071601Y7705168D01*
X16072968Y7702850D01*
X16091877Y7690120D01*
X16102319Y7688986D01*
X16102319Y8337537D01*
X16060685Y8347906D01*
X16024827Y8370395D01*
X15996732Y8402412D01*
X15978389Y8441366D01*
X15971783Y8484665D01*
X15978904Y8529717D01*
X15987564Y8550774D01*
X16012651Y8583715D01*
X16048725Y8610075D01*
X16089598Y8626038D01*
X16114514Y8629041D01*
X16156851Y8621203D01*
X16197504Y8600037D01*
X16230464Y8569067D01*
X16239596Y8555678D01*
X16257299Y8510143D01*
X16259179Y8464391D01*
X16246515Y8421401D01*
X16220588Y8384149D01*
X16182675Y8355612D01*
X16147742Y8341880D01*
X16102319Y8337537D01*
X16102319Y7688986D01*
X16118079Y7687274D01*
X16144532Y7694338D01*
X16156724Y7702535D01*
X16161583Y7707588D01*
X16165450Y7714242D01*
X16168438Y7724385D01*
X16170659Y7739903D01*
X16172226Y7762684D01*
X16173254Y7794615D01*
X16173855Y7837584D01*
X16174142Y7893478D01*
X16174229Y7964184D01*
X16174233Y7994446D01*
X16174233Y8270511D01*
X16194333Y8275556D01*
X16227920Y8290924D01*
X16262583Y8318387D01*
X16293520Y8353666D01*
X16308650Y8377452D01*
X16329726Y8432988D01*
X16335194Y8490283D01*
X16326083Y8546374D01*
X16326083Y8546374D01*
G37*
X16326083Y8546374D02*
X16303420Y8598298D01*
X16268235Y8643092D01*
X16221554Y8677795D01*
X16200962Y8687742D01*
X16158815Y8698511D01*
X16109319Y8700835D01*
X16060241Y8694872D01*
X16026259Y8684137D01*
X15973802Y8652188D01*
X15934782Y8609286D01*
X15909494Y8555878D01*
X15898230Y8492408D01*
X15898086Y8489863D01*
X15897846Y8452101D01*
X15902899Y8422432D01*
X15914826Y8391952D01*
X15915860Y8389766D01*
X15945255Y8343737D01*
X15983942Y8306075D01*
X16027356Y8281157D01*
X16030130Y8280120D01*
X16061151Y8268902D01*
X16061151Y7993956D01*
X16061297Y7913695D01*
X16061781Y7849181D01*
X16062669Y7798768D01*
X16064028Y7760808D01*
X16065925Y7733652D01*
X16068427Y7715655D01*
X16071601Y7705168D01*
X16072968Y7702850D01*
X16091877Y7690120D01*
X16102319Y7688986D01*
X16102319Y8337537D01*
X16060685Y8347906D01*
X16024827Y8370395D01*
X15996732Y8402412D01*
X15978389Y8441366D01*
X15971783Y8484665D01*
X15978904Y8529717D01*
X15987564Y8550774D01*
X16012651Y8583715D01*
X16048725Y8610075D01*
X16089598Y8626038D01*
X16114514Y8629041D01*
X16156851Y8621203D01*
X16197504Y8600037D01*
X16230464Y8569067D01*
X16239596Y8555678D01*
X16257299Y8510143D01*
X16259179Y8464391D01*
X16246515Y8421401D01*
X16220588Y8384149D01*
X16182675Y8355612D01*
X16147742Y8341880D01*
X16102319Y8337537D01*
X16102319Y7688986D01*
X16118079Y7687274D01*
X16144532Y7694338D01*
X16156724Y7702535D01*
X16161583Y7707588D01*
X16165450Y7714242D01*
X16168438Y7724385D01*
X16170659Y7739903D01*
X16172226Y7762684D01*
X16173254Y7794615D01*
X16173855Y7837584D01*
X16174142Y7893478D01*
X16174229Y7964184D01*
X16174233Y7994446D01*
X16174233Y8270511D01*
X16194333Y8275556D01*
X16227920Y8290924D01*
X16262583Y8318387D01*
X16293520Y8353666D01*
X16308650Y8377452D01*
X16329726Y8432988D01*
X16335194Y8490283D01*
X16326083Y8546374D01*
G36*
X16246699Y9575152D02*
G01*
X16232532Y9626331D01*
X16206116Y9673169D01*
X16167465Y9712899D01*
X16131295Y9735942D01*
X16083990Y9752861D01*
X16031518Y9760238D01*
X15980581Y9757641D01*
X15944982Y9747903D01*
X15894855Y9718037D01*
X15855039Y9676268D01*
X15826905Y9625620D01*
X15811824Y9569113D01*
X15811168Y9509771D01*
X15819232Y9470757D01*
X15835613Y9436568D01*
X15862629Y9400414D01*
X15895293Y9367765D01*
X15928622Y9344089D01*
X15939303Y9339021D01*
X15974165Y9325072D01*
X15974165Y9050762D01*
X15800192Y8876952D01*
X15626219Y8703143D01*
X15626219Y8210762D01*
X15626234Y8105814D01*
X15626309Y8016885D01*
X15626492Y7942596D01*
X15626831Y7881569D01*
X15627373Y7832425D01*
X15628165Y7793785D01*
X15629255Y7764272D01*
X15630691Y7742507D01*
X15632520Y7727111D01*
X15634790Y7716706D01*
X15637547Y7709913D01*
X15640840Y7705353D01*
X15643729Y7702535D01*
X15667286Y7689965D01*
X15694497Y7687320D01*
X15718320Y7694572D01*
X15727485Y7702850D01*
X15730157Y7709333D01*
X15732413Y7721732D01*
X15734287Y7741327D01*
X15735808Y7769395D01*
X15737009Y7807217D01*
X15737921Y7856071D01*
X15738574Y7917237D01*
X15739001Y7991993D01*
X15739233Y8081619D01*
X15739302Y8184627D01*
X15739302Y8650245D01*
X15913274Y8824973D01*
X16087247Y8999701D01*
X16088037Y9329281D01*
X16133292Y9351027D01*
X16180587Y9382389D01*
X16215560Y9423250D01*
X16238227Y9470843D01*
X16248602Y9522400D01*
X16246699Y9575152D01*
X16246699Y9575152D01*
G37*
X16246699Y9575152D02*
X16232532Y9626331D01*
X16206116Y9673169D01*
X16167465Y9712899D01*
X16131295Y9735942D01*
X16083990Y9752861D01*
X16031518Y9760238D01*
X15980581Y9757641D01*
X15944982Y9747903D01*
X15894855Y9718037D01*
X15855039Y9676268D01*
X15826905Y9625620D01*
X15811824Y9569113D01*
X15811168Y9509771D01*
X15819232Y9470757D01*
X15835613Y9436568D01*
X15862629Y9400414D01*
X15895293Y9367765D01*
X15928622Y9344089D01*
X15939303Y9339021D01*
X15974165Y9325072D01*
X15974165Y9050762D01*
X15800192Y8876952D01*
X15626219Y8703143D01*
X15626219Y8210762D01*
X15626234Y8105814D01*
X15626309Y8016885D01*
X15626492Y7942596D01*
X15626831Y7881569D01*
X15627373Y7832425D01*
X15628165Y7793785D01*
X15629255Y7764272D01*
X15630691Y7742507D01*
X15632520Y7727111D01*
X15634790Y7716706D01*
X15637547Y7709913D01*
X15640840Y7705353D01*
X15643729Y7702535D01*
X15667286Y7689965D01*
X15694497Y7687320D01*
X15718320Y7694572D01*
X15727485Y7702850D01*
X15730157Y7709333D01*
X15732413Y7721732D01*
X15734287Y7741327D01*
X15735808Y7769395D01*
X15737009Y7807217D01*
X15737921Y7856071D01*
X15738574Y7917237D01*
X15739001Y7991993D01*
X15739233Y8081619D01*
X15739302Y8184627D01*
X15739302Y8650245D01*
X15913274Y8824973D01*
X16087247Y8999701D01*
X16088037Y9329281D01*
X16133292Y9351027D01*
X16180587Y9382389D01*
X16215560Y9423250D01*
X16238227Y9470843D01*
X16248602Y9522400D01*
X16246699Y9575152D01*
G36*
X15459925Y8549149D02*
G01*
X15440332Y8599707D01*
X15414738Y8636426D01*
X15372060Y8670145D01*
X15320401Y8691913D01*
X15263989Y8701098D01*
X15207053Y8697070D01*
X15153822Y8679198D01*
X15148102Y8676211D01*
X15097814Y8640435D01*
X15062347Y8595719D01*
X15041460Y8541647D01*
X15034904Y8479269D01*
X15038884Y8432154D01*
X15049549Y8393028D01*
X15050941Y8389829D01*
X15070294Y8358987D01*
X15098674Y8327200D01*
X15130707Y8299629D01*
X15161018Y8281435D01*
X15165705Y8279614D01*
X15190600Y8270935D01*
X15193119Y7993610D01*
X15193903Y7915989D01*
X15194765Y7853920D01*
X15195816Y7805557D01*
X15197164Y7769056D01*
X15198920Y7742571D01*
X15201191Y7724256D01*
X15204089Y7712266D01*
X15207722Y7704756D01*
X15210446Y7701487D01*
X15234272Y7688664D01*
X15262834Y7687832D01*
X15288690Y7698559D01*
X15297027Y7706500D01*
X15301536Y7713151D01*
X15305115Y7722018D01*
X15307871Y7735028D01*
X15309910Y7754107D01*
X15311338Y7781183D01*
X15312262Y7818182D01*
X15312788Y7867030D01*
X15313021Y7929655D01*
X15313069Y7997607D01*
X15313069Y8268902D01*
X15341377Y8279139D01*
X15372975Y8296814D01*
X15405990Y8325280D01*
X15435111Y8359288D01*
X15453388Y8389829D01*
X15467296Y8438832D01*
X15469194Y8493732D01*
X15459925Y8549149D01*
X15459925Y8549149D01*
G37*
X15459925Y8549149D02*
X15440332Y8599707D01*
X15414738Y8636426D01*
X15372060Y8670145D01*
X15320401Y8691913D01*
X15263989Y8701098D01*
X15207053Y8697070D01*
X15153822Y8679198D01*
X15148102Y8676211D01*
X15097814Y8640435D01*
X15062347Y8595719D01*
X15041460Y8541647D01*
X15034904Y8479269D01*
X15038884Y8432154D01*
X15049549Y8393028D01*
X15050941Y8389829D01*
X15070294Y8358987D01*
X15098674Y8327200D01*
X15130707Y8299629D01*
X15161018Y8281435D01*
X15165705Y8279614D01*
X15190600Y8270935D01*
X15193119Y7993610D01*
X15193903Y7915989D01*
X15194765Y7853920D01*
X15195816Y7805557D01*
X15197164Y7769056D01*
X15198920Y7742571D01*
X15201191Y7724256D01*
X15204089Y7712266D01*
X15207722Y7704756D01*
X15210446Y7701487D01*
X15234272Y7688664D01*
X15262834Y7687832D01*
X15288690Y7698559D01*
X15297027Y7706500D01*
X15301536Y7713151D01*
X15305115Y7722018D01*
X15307871Y7735028D01*
X15309910Y7754107D01*
X15311338Y7781183D01*
X15312262Y7818182D01*
X15312788Y7867030D01*
X15313021Y7929655D01*
X15313069Y7997607D01*
X15313069Y8268902D01*
X15341377Y8279139D01*
X15372975Y8296814D01*
X15405990Y8325280D01*
X15435111Y8359288D01*
X15453388Y8389829D01*
X15467296Y8438832D01*
X15469194Y8493732D01*
X15459925Y8549149D01*
G36*
X15387381Y9587996D02*
G01*
X15374439Y9632022D01*
X15350237Y9671364D01*
X15333284Y9691011D01*
X15292743Y9727169D01*
X15250140Y9749066D01*
X15200872Y9758474D01*
X15158086Y9758476D01*
X15096695Y9747763D01*
X15045366Y9722945D01*
X15003565Y9683717D01*
X14987100Y9660281D01*
X14974060Y9637579D01*
X14966202Y9617583D01*
X14962238Y9594524D01*
X14960879Y9562632D01*
X14960774Y9542397D01*
X14961339Y9504168D01*
X14963896Y9477536D01*
X14969734Y9456717D01*
X14980144Y9435926D01*
X14987128Y9424284D01*
X15023300Y9380734D01*
X15058601Y9355377D01*
X15103720Y9329281D01*
X15104302Y9042059D01*
X14934678Y8872603D01*
X14765055Y8703147D01*
X14765055Y8210037D01*
X14765103Y8103446D01*
X14765269Y8012933D01*
X14765587Y7937181D01*
X14766091Y7874870D01*
X14766816Y7824682D01*
X14767796Y7785299D01*
X14769065Y7755403D01*
X14770656Y7733674D01*
X14772604Y7718794D01*
X14774944Y7709446D01*
X14777709Y7704309D01*
X14778155Y7703828D01*
X14804778Y7686383D01*
X14832096Y7686217D01*
X14850912Y7696132D01*
X14873788Y7713210D01*
X14876039Y8181804D01*
X14878290Y8650399D01*
X15179573Y8952990D01*
X15179573Y9397653D01*
X15135837Y9402182D01*
X15094410Y9421413D01*
X15080922Y9431916D01*
X15046899Y9471531D01*
X15029064Y9515544D01*
X15027857Y9562260D01*
X15037879Y9597449D01*
X15060518Y9632013D01*
X15095141Y9661622D01*
X15136339Y9681738D01*
X15139488Y9682721D01*
X15182528Y9687373D01*
X15223822Y9677325D01*
X15260729Y9655253D01*
X15290611Y9623832D01*
X15310830Y9585737D01*
X15318745Y9543642D01*
X15313665Y9506164D01*
X15292664Y9462082D01*
X15261183Y9428623D01*
X15222421Y9406807D01*
X15179573Y9397653D01*
X15179573Y8952990D01*
X15226082Y8999701D01*
X15226082Y9324118D01*
X15263149Y9340514D01*
X15314155Y9371959D01*
X15353627Y9414802D01*
X15379788Y9466364D01*
X15390863Y9523962D01*
X15391117Y9533699D01*
X15387381Y9587996D01*
X15387381Y9587996D01*
G37*
X15387381Y9587996D02*
X15374439Y9632022D01*
X15350237Y9671364D01*
X15333284Y9691011D01*
X15292743Y9727169D01*
X15250140Y9749066D01*
X15200872Y9758474D01*
X15158086Y9758476D01*
X15096695Y9747763D01*
X15045366Y9722945D01*
X15003565Y9683717D01*
X14987100Y9660281D01*
X14974060Y9637579D01*
X14966202Y9617583D01*
X14962238Y9594524D01*
X14960879Y9562632D01*
X14960774Y9542397D01*
X14961339Y9504168D01*
X14963896Y9477536D01*
X14969734Y9456717D01*
X14980144Y9435926D01*
X14987128Y9424284D01*
X15023300Y9380734D01*
X15058601Y9355377D01*
X15103720Y9329281D01*
X15104302Y9042059D01*
X14934678Y8872603D01*
X14765055Y8703147D01*
X14765055Y8210037D01*
X14765103Y8103446D01*
X14765269Y8012933D01*
X14765587Y7937181D01*
X14766091Y7874870D01*
X14766816Y7824682D01*
X14767796Y7785299D01*
X14769065Y7755403D01*
X14770656Y7733674D01*
X14772604Y7718794D01*
X14774944Y7709446D01*
X14777709Y7704309D01*
X14778155Y7703828D01*
X14804778Y7686383D01*
X14832096Y7686217D01*
X14850912Y7696132D01*
X14873788Y7713210D01*
X14876039Y8181804D01*
X14878290Y8650399D01*
X15179573Y8952990D01*
X15179573Y9397653D01*
X15135837Y9402182D01*
X15094410Y9421413D01*
X15080922Y9431916D01*
X15046899Y9471531D01*
X15029064Y9515544D01*
X15027857Y9562260D01*
X15037879Y9597449D01*
X15060518Y9632013D01*
X15095141Y9661622D01*
X15136339Y9681738D01*
X15139488Y9682721D01*
X15182528Y9687373D01*
X15223822Y9677325D01*
X15260729Y9655253D01*
X15290611Y9623832D01*
X15310830Y9585737D01*
X15318745Y9543642D01*
X15313665Y9506164D01*
X15292664Y9462082D01*
X15261183Y9428623D01*
X15222421Y9406807D01*
X15179573Y9397653D01*
X15179573Y8952990D01*
X15226082Y8999701D01*
X15226082Y9324118D01*
X15263149Y9340514D01*
X15314155Y9371959D01*
X15353627Y9414802D01*
X15379788Y9466364D01*
X15390863Y9523962D01*
X15391117Y9533699D01*
X15387381Y9587996D01*
G36*
X15597956Y3467488D02*
G01*
X15273940Y3629542D01*
X15589258Y3787130D01*
X15667537Y3826282D01*
X15731657Y3858498D01*
X15783031Y3884600D01*
X15823070Y3905413D01*
X15853186Y3921758D01*
X15874791Y3934459D01*
X15889297Y3944340D01*
X15898117Y3952223D01*
X15902661Y3958932D01*
X15904343Y3965290D01*
X15904576Y3970966D01*
X15904207Y3977687D01*
X15902156Y3984062D01*
X15897006Y3990916D01*
X15887340Y3999077D01*
X15871740Y4009371D01*
X15848789Y4022625D01*
X15817070Y4039664D01*
X15775166Y4061316D01*
X15721659Y4088407D01*
X15655133Y4121764D01*
X15591425Y4153596D01*
X15278274Y4309978D01*
X15597949Y4470999D01*
X15917624Y4632021D01*
X15920038Y4756054D01*
X15920898Y4804741D01*
X15921006Y4838897D01*
X15919973Y4861384D01*
X15917409Y4875064D01*
X15912925Y4882800D01*
X15906134Y4887453D01*
X15901913Y4889445D01*
X15896633Y4890564D01*
X15888507Y4889756D01*
X15876473Y4886523D01*
X15859469Y4880371D01*
X15836433Y4870804D01*
X15806302Y4857326D01*
X15768015Y4839442D01*
X15720509Y4816657D01*
X15662722Y4788473D01*
X15593593Y4754397D01*
X15512058Y4713931D01*
X15417057Y4666581D01*
X15314516Y4615347D01*
X15206627Y4561364D01*
X15113278Y4514557D01*
X15033426Y4474365D01*
X14966029Y4440226D01*
X14910045Y4411581D01*
X14864431Y4387866D01*
X14828144Y4368522D01*
X14800144Y4352987D01*
X14779386Y4340699D01*
X14764829Y4331098D01*
X14755431Y4323622D01*
X14750149Y4317710D01*
X14747941Y4312801D01*
X14747658Y4310143D01*
X14748687Y4304216D01*
X14752702Y4297771D01*
X14761094Y4290017D01*
X14775255Y4280162D01*
X14796577Y4267416D01*
X14826451Y4250988D01*
X14866268Y4230088D01*
X14917421Y4203924D01*
X14981301Y4171706D01*
X15059300Y4132643D01*
X15065190Y4129698D01*
X15382723Y3971003D01*
X15065190Y3812191D01*
X14986171Y3772599D01*
X14921364Y3739909D01*
X14869379Y3713333D01*
X14828825Y3692077D01*
X14798311Y3675353D01*
X14776446Y3662369D01*
X14761840Y3652334D01*
X14753100Y3644457D01*
X14748838Y3637949D01*
X14747661Y3632018D01*
X14747658Y3631668D01*
X14748547Y3627091D01*
X14751909Y3621834D01*
X14758786Y3615337D01*
X14770221Y3607038D01*
X14787255Y3596376D01*
X14810930Y3582790D01*
X14842289Y3565719D01*
X14882373Y3544603D01*
X14932225Y3518879D01*
X14992887Y3487988D01*
X15065400Y3451368D01*
X15150808Y3408459D01*
X15250152Y3358698D01*
X15314516Y3326502D01*
X15423262Y3272173D01*
X15517541Y3225198D01*
X15598409Y3185084D01*
X15666925Y3151336D01*
X15724146Y3123462D01*
X15771131Y3100966D01*
X15808938Y3083354D01*
X15838624Y3070134D01*
X15861247Y3060809D01*
X15877866Y3054887D01*
X15889538Y3051874D01*
X15897322Y3051275D01*
X15901674Y3052296D01*
X15909698Y3056597D01*
X15915270Y3062860D01*
X15918835Y3073976D01*
X15920841Y3092838D01*
X15921736Y3122336D01*
X15921966Y3165362D01*
X15921973Y3183489D01*
X15921973Y3305434D01*
X15597956Y3467488D01*
X15597956Y3467488D01*
G37*
X15597956Y3467488D02*
X15273940Y3629542D01*
X15589258Y3787130D01*
X15667537Y3826282D01*
X15731657Y3858498D01*
X15783031Y3884600D01*
X15823070Y3905413D01*
X15853186Y3921758D01*
X15874791Y3934459D01*
X15889297Y3944340D01*
X15898117Y3952223D01*
X15902661Y3958932D01*
X15904343Y3965290D01*
X15904576Y3970966D01*
X15904207Y3977687D01*
X15902156Y3984062D01*
X15897006Y3990916D01*
X15887340Y3999077D01*
X15871740Y4009371D01*
X15848789Y4022625D01*
X15817070Y4039664D01*
X15775166Y4061316D01*
X15721659Y4088407D01*
X15655133Y4121764D01*
X15591425Y4153596D01*
X15278274Y4309978D01*
X15597949Y4470999D01*
X15917624Y4632021D01*
X15920038Y4756054D01*
X15920898Y4804741D01*
X15921006Y4838897D01*
X15919973Y4861384D01*
X15917409Y4875064D01*
X15912925Y4882800D01*
X15906134Y4887453D01*
X15901913Y4889445D01*
X15896633Y4890564D01*
X15888507Y4889756D01*
X15876473Y4886523D01*
X15859469Y4880371D01*
X15836433Y4870804D01*
X15806302Y4857326D01*
X15768015Y4839442D01*
X15720509Y4816657D01*
X15662722Y4788473D01*
X15593593Y4754397D01*
X15512058Y4713931D01*
X15417057Y4666581D01*
X15314516Y4615347D01*
X15206627Y4561364D01*
X15113278Y4514557D01*
X15033426Y4474365D01*
X14966029Y4440226D01*
X14910045Y4411581D01*
X14864431Y4387866D01*
X14828144Y4368522D01*
X14800144Y4352987D01*
X14779386Y4340699D01*
X14764829Y4331098D01*
X14755431Y4323622D01*
X14750149Y4317710D01*
X14747941Y4312801D01*
X14747658Y4310143D01*
X14748687Y4304216D01*
X14752702Y4297771D01*
X14761094Y4290017D01*
X14775255Y4280162D01*
X14796577Y4267416D01*
X14826451Y4250988D01*
X14866268Y4230088D01*
X14917421Y4203924D01*
X14981301Y4171706D01*
X15059300Y4132643D01*
X15065190Y4129698D01*
X15382723Y3971003D01*
X15065190Y3812191D01*
X14986171Y3772599D01*
X14921364Y3739909D01*
X14869379Y3713333D01*
X14828825Y3692077D01*
X14798311Y3675353D01*
X14776446Y3662369D01*
X14761840Y3652334D01*
X14753100Y3644457D01*
X14748838Y3637949D01*
X14747661Y3632018D01*
X14747658Y3631668D01*
X14748547Y3627091D01*
X14751909Y3621834D01*
X14758786Y3615337D01*
X14770221Y3607038D01*
X14787255Y3596376D01*
X14810930Y3582790D01*
X14842289Y3565719D01*
X14882373Y3544603D01*
X14932225Y3518879D01*
X14992887Y3487988D01*
X15065400Y3451368D01*
X15150808Y3408459D01*
X15250152Y3358698D01*
X15314516Y3326502D01*
X15423262Y3272173D01*
X15517541Y3225198D01*
X15598409Y3185084D01*
X15666925Y3151336D01*
X15724146Y3123462D01*
X15771131Y3100966D01*
X15808938Y3083354D01*
X15838624Y3070134D01*
X15861247Y3060809D01*
X15877866Y3054887D01*
X15889538Y3051874D01*
X15897322Y3051275D01*
X15901674Y3052296D01*
X15909698Y3056597D01*
X15915270Y3062860D01*
X15918835Y3073976D01*
X15920841Y3092838D01*
X15921736Y3122336D01*
X15921966Y3165362D01*
X15921973Y3183489D01*
X15921973Y3305434D01*
X15597956Y3467488D01*
G36*
X15904063Y5247975D02*
G01*
X15901822Y5253031D01*
X15896802Y5258906D01*
X15887950Y5266170D01*
X15874213Y5275394D01*
X15854540Y5287148D01*
X15827879Y5302002D01*
X15793176Y5320528D01*
X15749380Y5343295D01*
X15695439Y5370874D01*
X15630300Y5403836D01*
X15552912Y5442752D01*
X15462221Y5488190D01*
X15357176Y5540723D01*
X15339157Y5549730D01*
X15228912Y5604762D01*
X15133193Y5652376D01*
X15051013Y5693035D01*
X14981387Y5727204D01*
X14923331Y5755344D01*
X14875858Y5777919D01*
X14837985Y5795392D01*
X14808725Y5808227D01*
X14787093Y5816887D01*
X14772105Y5821835D01*
X14762775Y5823535D01*
X14758523Y5822749D01*
X14752423Y5816851D01*
X14748039Y5806228D01*
X14745010Y5788106D01*
X14742974Y5759713D01*
X14741569Y5718276D01*
X14740913Y5687771D01*
X14738517Y5562377D01*
X14852041Y5506395D01*
X14852041Y4975454D01*
X14795500Y4947572D01*
X14738959Y4919691D01*
X14738959Y4795734D01*
X14739131Y4746689D01*
X14739890Y4712188D01*
X14741605Y4689379D01*
X14744640Y4675409D01*
X14749363Y4667427D01*
X14756074Y4662617D01*
X14761433Y4661861D01*
X14771083Y4663709D01*
X14786034Y4668635D01*
X14807295Y4677114D01*
X14835876Y4689620D01*
X14872787Y4706627D01*
X14919038Y4728610D01*
X14975639Y4756043D01*
X15043599Y4789400D01*
X15123929Y4829155D01*
X15130398Y4832373D01*
X15130398Y5114871D01*
X15130398Y5367171D01*
X15254353Y5305238D01*
X15296471Y5284156D01*
X15332680Y5265961D01*
X15360319Y5251994D01*
X15376724Y5243601D01*
X15380092Y5241781D01*
X15373349Y5237608D01*
X15353562Y5227047D01*
X15323280Y5211420D01*
X15285055Y5192048D01*
X15256137Y5177564D01*
X15130398Y5114871D01*
X15130398Y4832373D01*
X15217638Y4875784D01*
X15325736Y4929759D01*
X15338882Y4936331D01*
X15446320Y4990077D01*
X15539238Y5036635D01*
X15618688Y5076577D01*
X15685722Y5110472D01*
X15741391Y5138891D01*
X15786748Y5162405D01*
X15822844Y5181583D01*
X15850731Y5196998D01*
X15871460Y5209219D01*
X15886085Y5218816D01*
X15895656Y5226360D01*
X15901225Y5232423D01*
X15903845Y5237573D01*
X15904566Y5242382D01*
X15904576Y5243166D01*
X15904063Y5247975D01*
X15904063Y5247975D01*
G37*
X15904063Y5247975D02*
X15901822Y5253031D01*
X15896802Y5258906D01*
X15887950Y5266170D01*
X15874213Y5275394D01*
X15854540Y5287148D01*
X15827879Y5302002D01*
X15793176Y5320528D01*
X15749380Y5343295D01*
X15695439Y5370874D01*
X15630300Y5403836D01*
X15552912Y5442752D01*
X15462221Y5488190D01*
X15357176Y5540723D01*
X15339157Y5549730D01*
X15228912Y5604762D01*
X15133193Y5652376D01*
X15051013Y5693035D01*
X14981387Y5727204D01*
X14923331Y5755344D01*
X14875858Y5777919D01*
X14837985Y5795392D01*
X14808725Y5808227D01*
X14787093Y5816887D01*
X14772105Y5821835D01*
X14762775Y5823535D01*
X14758523Y5822749D01*
X14752423Y5816851D01*
X14748039Y5806228D01*
X14745010Y5788106D01*
X14742974Y5759713D01*
X14741569Y5718276D01*
X14740913Y5687771D01*
X14738517Y5562377D01*
X14852041Y5506395D01*
X14852041Y4975454D01*
X14795500Y4947572D01*
X14738959Y4919691D01*
X14738959Y4795734D01*
X14739131Y4746689D01*
X14739890Y4712188D01*
X14741605Y4689379D01*
X14744640Y4675409D01*
X14749363Y4667427D01*
X14756074Y4662617D01*
X14761433Y4661861D01*
X14771083Y4663709D01*
X14786034Y4668635D01*
X14807295Y4677114D01*
X14835876Y4689620D01*
X14872787Y4706627D01*
X14919038Y4728610D01*
X14975639Y4756043D01*
X15043599Y4789400D01*
X15123929Y4829155D01*
X15130398Y4832373D01*
X15130398Y5114871D01*
X15130398Y5367171D01*
X15254353Y5305238D01*
X15296471Y5284156D01*
X15332680Y5265961D01*
X15360319Y5251994D01*
X15376724Y5243601D01*
X15380092Y5241781D01*
X15373349Y5237608D01*
X15353562Y5227047D01*
X15323280Y5211420D01*
X15285055Y5192048D01*
X15256137Y5177564D01*
X15130398Y5114871D01*
X15130398Y4832373D01*
X15217638Y4875784D01*
X15325736Y4929759D01*
X15338882Y4936331D01*
X15446320Y4990077D01*
X15539238Y5036635D01*
X15618688Y5076577D01*
X15685722Y5110472D01*
X15741391Y5138891D01*
X15786748Y5162405D01*
X15822844Y5181583D01*
X15850731Y5196998D01*
X15871460Y5209219D01*
X15886085Y5218816D01*
X15895656Y5226360D01*
X15901225Y5232423D01*
X15903845Y5237573D01*
X15904566Y5242382D01*
X15904576Y5243166D01*
X15904063Y5247975D01*
G36*
X15920476Y2636391D02*
G01*
X15919287Y2696678D01*
X15917487Y2741326D01*
X15915071Y2770774D01*
X15913497Y2780557D01*
X15892723Y2837642D01*
X15858118Y2889336D01*
X15815714Y2928513D01*
X15799090Y2940169D01*
X15783691Y2949888D01*
X15767823Y2957847D01*
X15749788Y2964222D01*
X15727890Y2969188D01*
X15700433Y2972921D01*
X15665722Y2975597D01*
X15622059Y2977392D01*
X15567749Y2978482D01*
X15501095Y2979043D01*
X15420402Y2979251D01*
X15326117Y2979281D01*
X15233833Y2979239D01*
X15157256Y2979067D01*
X15094692Y2978702D01*
X15044452Y2978076D01*
X15004843Y2977123D01*
X14974175Y2975779D01*
X14950756Y2973976D01*
X14932893Y2971649D01*
X14918897Y2968733D01*
X14907076Y2965161D01*
X14900394Y2962703D01*
X14851226Y2935935D01*
X14806005Y2897100D01*
X14770286Y2851378D01*
X14759473Y2831404D01*
X14739129Y2787911D01*
X14739657Y2387774D01*
X14739878Y2289700D01*
X14740290Y2207552D01*
X14740937Y2139859D01*
X14741861Y2085151D01*
X14743108Y2041957D01*
X14744721Y2008806D01*
X14746744Y1984228D01*
X14749221Y1966752D01*
X14752195Y1954907D01*
X14752598Y1953765D01*
X14779183Y1904125D01*
X14818918Y1859741D01*
X14867572Y1825174D01*
X14876060Y1820781D01*
X14925980Y1796267D01*
X15230507Y1796267D01*
X15230507Y2071367D01*
X15177842Y2071681D01*
X15134785Y2072367D01*
X15103948Y2073397D01*
X15088107Y2074716D01*
X15060734Y2084965D01*
X15038090Y2100900D01*
X15017315Y2121675D01*
X15017315Y2643049D01*
X15062355Y2696575D01*
X15324954Y2696575D01*
X15403337Y2696514D01*
X15466194Y2696126D01*
X15515398Y2695108D01*
X15552819Y2693156D01*
X15580331Y2689966D01*
X15599804Y2685233D01*
X15613111Y2678652D01*
X15622123Y2669921D01*
X15628712Y2658735D01*
X15634109Y2646337D01*
X15637434Y2631615D01*
X15639890Y2604906D01*
X15641508Y2565092D01*
X15642321Y2511053D01*
X15642360Y2441672D01*
X15641832Y2372168D01*
X15639267Y2122835D01*
X15615163Y2098729D01*
X15591058Y2074623D01*
X15354204Y2071965D01*
X15290165Y2071453D01*
X15230507Y2071367D01*
X15230507Y1796267D01*
X15321767Y1796267D01*
X15415742Y1796308D01*
X15493975Y1796472D01*
X15558122Y1796822D01*
X15609838Y1797419D01*
X15650778Y1798326D01*
X15682598Y1799605D01*
X15706954Y1801317D01*
X15725500Y1803525D01*
X15739892Y1806292D01*
X15751787Y1809679D01*
X15760210Y1812720D01*
X15814185Y1842405D01*
X15860903Y1885712D01*
X15894378Y1934893D01*
X15917624Y1978938D01*
X15920459Y2357329D01*
X15921055Y2467154D01*
X15921063Y2560029D01*
X15920476Y2636391D01*
X15920476Y2636391D01*
G37*
X15920476Y2636391D02*
X15919287Y2696678D01*
X15917487Y2741326D01*
X15915071Y2770774D01*
X15913497Y2780557D01*
X15892723Y2837642D01*
X15858118Y2889336D01*
X15815714Y2928513D01*
X15799090Y2940169D01*
X15783691Y2949888D01*
X15767823Y2957847D01*
X15749788Y2964222D01*
X15727890Y2969188D01*
X15700433Y2972921D01*
X15665722Y2975597D01*
X15622059Y2977392D01*
X15567749Y2978482D01*
X15501095Y2979043D01*
X15420402Y2979251D01*
X15326117Y2979281D01*
X15233833Y2979239D01*
X15157256Y2979067D01*
X15094692Y2978702D01*
X15044452Y2978076D01*
X15004843Y2977123D01*
X14974175Y2975779D01*
X14950756Y2973976D01*
X14932893Y2971649D01*
X14918897Y2968733D01*
X14907076Y2965161D01*
X14900394Y2962703D01*
X14851226Y2935935D01*
X14806005Y2897100D01*
X14770286Y2851378D01*
X14759473Y2831404D01*
X14739129Y2787911D01*
X14739657Y2387774D01*
X14739878Y2289700D01*
X14740290Y2207552D01*
X14740937Y2139859D01*
X14741861Y2085151D01*
X14743108Y2041957D01*
X14744721Y2008806D01*
X14746744Y1984228D01*
X14749221Y1966752D01*
X14752195Y1954907D01*
X14752598Y1953765D01*
X14779183Y1904125D01*
X14818918Y1859741D01*
X14867572Y1825174D01*
X14876060Y1820781D01*
X14925980Y1796267D01*
X15230507Y1796267D01*
X15230507Y2071367D01*
X15177842Y2071681D01*
X15134785Y2072367D01*
X15103948Y2073397D01*
X15088107Y2074716D01*
X15060734Y2084965D01*
X15038090Y2100900D01*
X15017315Y2121675D01*
X15017315Y2643049D01*
X15062355Y2696575D01*
X15324954Y2696575D01*
X15403337Y2696514D01*
X15466194Y2696126D01*
X15515398Y2695108D01*
X15552819Y2693156D01*
X15580331Y2689966D01*
X15599804Y2685233D01*
X15613111Y2678652D01*
X15622123Y2669921D01*
X15628712Y2658735D01*
X15634109Y2646337D01*
X15637434Y2631615D01*
X15639890Y2604906D01*
X15641508Y2565092D01*
X15642321Y2511053D01*
X15642360Y2441672D01*
X15641832Y2372168D01*
X15639267Y2122835D01*
X15615163Y2098729D01*
X15591058Y2074623D01*
X15354204Y2071965D01*
X15290165Y2071453D01*
X15230507Y2071367D01*
X15230507Y1796267D01*
X15321767Y1796267D01*
X15415742Y1796308D01*
X15493975Y1796472D01*
X15558122Y1796822D01*
X15609838Y1797419D01*
X15650778Y1798326D01*
X15682598Y1799605D01*
X15706954Y1801317D01*
X15725500Y1803525D01*
X15739892Y1806292D01*
X15751787Y1809679D01*
X15760210Y1812720D01*
X15814185Y1842405D01*
X15860903Y1885712D01*
X15894378Y1934893D01*
X15917624Y1978938D01*
X15920459Y2357329D01*
X15921055Y2467154D01*
X15921063Y2560029D01*
X15920476Y2636391D01*
G36*
X15160917Y1417877D02*
G01*
X15527049Y1417877D01*
X15616709Y1417915D01*
X15690577Y1418072D01*
X15750257Y1418417D01*
X15797352Y1419017D01*
X15833468Y1419937D01*
X15860208Y1421246D01*
X15879178Y1423010D01*
X15891980Y1425297D01*
X15900221Y1428174D01*
X15905504Y1431707D01*
X15907577Y1433784D01*
X15913818Y1443719D01*
X15918019Y1459280D01*
X15920537Y1483570D01*
X15921731Y1519694D01*
X15921973Y1558566D01*
X15921669Y1604985D01*
X15920485Y1637198D01*
X15918008Y1658389D01*
X15913828Y1671744D01*
X15907534Y1680447D01*
X15906065Y1681837D01*
X15901687Y1684734D01*
X15894592Y1687218D01*
X15883514Y1689319D01*
X15867189Y1691071D01*
X15844352Y1692503D01*
X15813738Y1693647D01*
X15774083Y1694535D01*
X15724121Y1695198D01*
X15662587Y1695666D01*
X15588217Y1695972D01*
X15499746Y1696148D01*
X15395908Y1696223D01*
X15324997Y1696233D01*
X15204769Y1696154D01*
X15100991Y1695904D01*
X15012715Y1695468D01*
X14938996Y1694826D01*
X14878886Y1693964D01*
X14831438Y1692862D01*
X14795705Y1691505D01*
X14770741Y1689874D01*
X14755599Y1687953D01*
X14749398Y1685795D01*
X14744536Y1672702D01*
X14741219Y1644254D01*
X14739389Y1599735D01*
X14738959Y1553178D01*
X14738959Y1430999D01*
X15115137Y1054746D01*
X15491316Y678493D01*
X15125576Y678493D01*
X15029420Y678358D01*
X14949536Y677932D01*
X14884799Y677183D01*
X14834087Y676081D01*
X14796274Y674594D01*
X14770238Y672691D01*
X14754855Y670341D01*
X14749398Y668055D01*
X14744921Y654983D01*
X14741623Y628592D01*
X14739502Y592916D01*
X14738560Y551995D01*
X14738796Y509863D01*
X14740211Y470560D01*
X14742803Y438120D01*
X14746574Y416582D01*
X14749398Y410575D01*
X14760107Y408386D01*
X14786439Y406432D01*
X14826621Y404713D01*
X14878881Y403229D01*
X14941447Y401980D01*
X15012545Y400966D01*
X15090403Y400188D01*
X15173248Y399644D01*
X15259308Y399335D01*
X15346811Y399261D01*
X15433982Y399423D01*
X15519051Y399819D01*
X15600243Y400451D01*
X15675788Y401317D01*
X15743911Y402419D01*
X15802840Y403755D01*
X15850804Y405327D01*
X15886028Y407134D01*
X15906741Y409175D01*
X15911535Y410575D01*
X15916505Y424050D01*
X15919856Y453277D01*
X15921635Y498849D01*
X15921973Y538844D01*
X15921973Y656673D01*
X15160917Y1417877D01*
X15160917Y1417877D01*
G37*
X15160917Y1417877D02*
X15527049Y1417877D01*
X15616709Y1417915D01*
X15690577Y1418072D01*
X15750257Y1418417D01*
X15797352Y1419017D01*
X15833468Y1419937D01*
X15860208Y1421246D01*
X15879178Y1423010D01*
X15891980Y1425297D01*
X15900221Y1428174D01*
X15905504Y1431707D01*
X15907577Y1433784D01*
X15913818Y1443719D01*
X15918019Y1459280D01*
X15920537Y1483570D01*
X15921731Y1519694D01*
X15921973Y1558566D01*
X15921669Y1604985D01*
X15920485Y1637198D01*
X15918008Y1658389D01*
X15913828Y1671744D01*
X15907534Y1680447D01*
X15906065Y1681837D01*
X15901687Y1684734D01*
X15894592Y1687218D01*
X15883514Y1689319D01*
X15867189Y1691071D01*
X15844352Y1692503D01*
X15813738Y1693647D01*
X15774083Y1694535D01*
X15724121Y1695198D01*
X15662587Y1695666D01*
X15588217Y1695972D01*
X15499746Y1696148D01*
X15395908Y1696223D01*
X15324997Y1696233D01*
X15204769Y1696154D01*
X15100991Y1695904D01*
X15012715Y1695468D01*
X14938996Y1694826D01*
X14878886Y1693964D01*
X14831438Y1692862D01*
X14795705Y1691505D01*
X14770741Y1689874D01*
X14755599Y1687953D01*
X14749398Y1685795D01*
X14744536Y1672702D01*
X14741219Y1644254D01*
X14739389Y1599735D01*
X14738959Y1553178D01*
X14738959Y1430999D01*
X15115137Y1054746D01*
X15491316Y678493D01*
X15125576Y678493D01*
X15029420Y678358D01*
X14949536Y677932D01*
X14884799Y677183D01*
X14834087Y676081D01*
X14796274Y674594D01*
X14770238Y672691D01*
X14754855Y670341D01*
X14749398Y668055D01*
X14744921Y654983D01*
X14741623Y628592D01*
X14739502Y592916D01*
X14738560Y551995D01*
X14738796Y509863D01*
X14740211Y470560D01*
X14742803Y438120D01*
X14746574Y416582D01*
X14749398Y410575D01*
X14760107Y408386D01*
X14786439Y406432D01*
X14826621Y404713D01*
X14878881Y403229D01*
X14941447Y401980D01*
X15012545Y400966D01*
X15090403Y400188D01*
X15173248Y399644D01*
X15259308Y399335D01*
X15346811Y399261D01*
X15433982Y399423D01*
X15519051Y399819D01*
X15600243Y400451D01*
X15675788Y401317D01*
X15743911Y402419D01*
X15802840Y403755D01*
X15850804Y405327D01*
X15886028Y407134D01*
X15906741Y409175D01*
X15911535Y410575D01*
X15916505Y424050D01*
X15919856Y453277D01*
X15921635Y498849D01*
X15921973Y538844D01*
X15921973Y656673D01*
X15160917Y1417877D01*
G36*
X16579939Y6891149D02*
G01*
X16573398Y6937158D01*
X16546954Y7045984D01*
X16504839Y7149661D01*
X16448448Y7246429D01*
X16379174Y7334528D01*
X16298410Y7412197D01*
X16207551Y7477678D01*
X16107989Y7529210D01*
X16102821Y7531383D01*
X16042104Y7555033D01*
X15986578Y7572591D01*
X15931352Y7585026D01*
X15871533Y7593302D01*
X15802230Y7598387D01*
X15753928Y7600313D01*
X15607629Y7604859D01*
X15577780Y7575929D01*
X15547932Y7546998D01*
X15547932Y6200594D01*
X15510963Y6206678D01*
X15419219Y6229476D01*
X15333011Y6265877D01*
X15254096Y6314259D01*
X15184230Y6373001D01*
X15125172Y6440479D01*
X15078679Y6515073D01*
X15046509Y6595160D01*
X15034620Y6646305D01*
X15027405Y6713906D01*
X15026551Y6787946D01*
X15031681Y6862408D01*
X15042418Y6931277D01*
X15055578Y6980651D01*
X15088866Y7060109D01*
X15132561Y7135897D01*
X15183926Y7204157D01*
X15240221Y7261033D01*
X15272634Y7286303D01*
X15290153Y7302971D01*
X15298938Y7325641D01*
X15301298Y7342181D01*
X15302442Y7358777D01*
X15300902Y7372704D01*
X15294921Y7387166D01*
X15282740Y7405367D01*
X15262601Y7430511D01*
X15234774Y7463425D01*
X15206835Y7496086D01*
X15182261Y7524554D01*
X15163645Y7545840D01*
X15153582Y7556957D01*
X15153401Y7557141D01*
X15145241Y7560842D01*
X15132288Y7557461D01*
X15111581Y7545689D01*
X15082038Y7525542D01*
X14990424Y7451215D01*
X14912782Y7367443D01*
X14848864Y7273762D01*
X14798421Y7169706D01*
X14761203Y7054809D01*
X14736962Y6928607D01*
X14730244Y6868269D01*
X14726881Y6828072D01*
X14724355Y6793557D01*
X14722947Y6768856D01*
X14722822Y6758836D01*
X14724141Y6744462D01*
X14726663Y6717820D01*
X14729908Y6683961D01*
X14730892Y6673765D01*
X14750941Y6549671D01*
X14785810Y6433925D01*
X14834703Y6327211D01*
X14896825Y6230210D01*
X14971379Y6143604D01*
X15057569Y6068076D01*
X15154599Y6004307D01*
X15261672Y5952980D01*
X15377993Y5914776D01*
X15502766Y5890379D01*
X15635193Y5880470D01*
X15657058Y5880274D01*
X15789718Y5888023D01*
X15852384Y5899365D01*
X15852384Y6208936D01*
X15852384Y6744845D01*
X15852433Y6856660D01*
X15852598Y6952272D01*
X15852905Y7032874D01*
X15853383Y7099660D01*
X15854058Y7153824D01*
X15854957Y7196560D01*
X15856106Y7229061D01*
X15857534Y7252520D01*
X15859267Y7268132D01*
X15861332Y7277091D01*
X15863756Y7280590D01*
X15864516Y7280754D01*
X15885786Y7277283D01*
X15917486Y7268125D01*
X15954380Y7255164D01*
X15991232Y7240281D01*
X16022806Y7225360D01*
X16030838Y7220944D01*
X16103396Y7169190D01*
X16166896Y7103635D01*
X16219768Y7026182D01*
X16257751Y6945856D01*
X16268944Y6913615D01*
X16276519Y6882338D01*
X16281408Y6846509D01*
X16284541Y6800610D01*
X16285342Y6782500D01*
X16285240Y6695708D01*
X16276564Y6620887D01*
X16258147Y6554263D01*
X16228822Y6492065D01*
X16187420Y6430522D01*
X16169405Y6407885D01*
X16124070Y6360571D01*
X16068914Y6314966D01*
X16008494Y6274072D01*
X15947367Y6240894D01*
X15890090Y6218434D01*
X15876305Y6214701D01*
X15852384Y6208936D01*
X15852384Y5899365D01*
X15914909Y5910682D01*
X16031866Y5947366D01*
X16139822Y5997192D01*
X16238011Y6059275D01*
X16325666Y6132732D01*
X16402022Y6216679D01*
X16466311Y6310232D01*
X16517767Y6412506D01*
X16555625Y6522620D01*
X16579117Y6639687D01*
X16587477Y6762825D01*
X16579939Y6891149D01*
X16579939Y6891149D01*
G37*
X16579939Y6891149D02*
X16573398Y6937158D01*
X16546954Y7045984D01*
X16504839Y7149661D01*
X16448448Y7246429D01*
X16379174Y7334528D01*
X16298410Y7412197D01*
X16207551Y7477678D01*
X16107989Y7529210D01*
X16102821Y7531383D01*
X16042104Y7555033D01*
X15986578Y7572591D01*
X15931352Y7585026D01*
X15871533Y7593302D01*
X15802230Y7598387D01*
X15753928Y7600313D01*
X15607629Y7604859D01*
X15577780Y7575929D01*
X15547932Y7546998D01*
X15547932Y6200594D01*
X15510963Y6206678D01*
X15419219Y6229476D01*
X15333011Y6265877D01*
X15254096Y6314259D01*
X15184230Y6373001D01*
X15125172Y6440479D01*
X15078679Y6515073D01*
X15046509Y6595160D01*
X15034620Y6646305D01*
X15027405Y6713906D01*
X15026551Y6787946D01*
X15031681Y6862408D01*
X15042418Y6931277D01*
X15055578Y6980651D01*
X15088866Y7060109D01*
X15132561Y7135897D01*
X15183926Y7204157D01*
X15240221Y7261033D01*
X15272634Y7286303D01*
X15290153Y7302971D01*
X15298938Y7325641D01*
X15301298Y7342181D01*
X15302442Y7358777D01*
X15300902Y7372704D01*
X15294921Y7387166D01*
X15282740Y7405367D01*
X15262601Y7430511D01*
X15234774Y7463425D01*
X15206835Y7496086D01*
X15182261Y7524554D01*
X15163645Y7545840D01*
X15153582Y7556957D01*
X15153401Y7557141D01*
X15145241Y7560842D01*
X15132288Y7557461D01*
X15111581Y7545689D01*
X15082038Y7525542D01*
X14990424Y7451215D01*
X14912782Y7367443D01*
X14848864Y7273762D01*
X14798421Y7169706D01*
X14761203Y7054809D01*
X14736962Y6928607D01*
X14730244Y6868269D01*
X14726881Y6828072D01*
X14724355Y6793557D01*
X14722947Y6768856D01*
X14722822Y6758836D01*
X14724141Y6744462D01*
X14726663Y6717820D01*
X14729908Y6683961D01*
X14730892Y6673765D01*
X14750941Y6549671D01*
X14785810Y6433925D01*
X14834703Y6327211D01*
X14896825Y6230210D01*
X14971379Y6143604D01*
X15057569Y6068076D01*
X15154599Y6004307D01*
X15261672Y5952980D01*
X15377993Y5914776D01*
X15502766Y5890379D01*
X15635193Y5880470D01*
X15657058Y5880274D01*
X15789718Y5888023D01*
X15852384Y5899365D01*
X15852384Y6208936D01*
X15852384Y6744845D01*
X15852433Y6856660D01*
X15852598Y6952272D01*
X15852905Y7032874D01*
X15853383Y7099660D01*
X15854058Y7153824D01*
X15854957Y7196560D01*
X15856106Y7229061D01*
X15857534Y7252520D01*
X15859267Y7268132D01*
X15861332Y7277091D01*
X15863756Y7280590D01*
X15864516Y7280754D01*
X15885786Y7277283D01*
X15917486Y7268125D01*
X15954380Y7255164D01*
X15991232Y7240281D01*
X16022806Y7225360D01*
X16030838Y7220944D01*
X16103396Y7169190D01*
X16166896Y7103635D01*
X16219768Y7026182D01*
X16257751Y6945856D01*
X16268944Y6913615D01*
X16276519Y6882338D01*
X16281408Y6846509D01*
X16284541Y6800610D01*
X16285342Y6782500D01*
X16285240Y6695708D01*
X16276564Y6620887D01*
X16258147Y6554263D01*
X16228822Y6492065D01*
X16187420Y6430522D01*
X16169405Y6407885D01*
X16124070Y6360571D01*
X16068914Y6314966D01*
X16008494Y6274072D01*
X15947367Y6240894D01*
X15890090Y6218434D01*
X15876305Y6214701D01*
X15852384Y6208936D01*
X15852384Y5899365D01*
X15914909Y5910682D01*
X16031866Y5947366D01*
X16139822Y5997192D01*
X16238011Y6059275D01*
X16325666Y6132732D01*
X16402022Y6216679D01*
X16466311Y6310232D01*
X16517767Y6412506D01*
X16555625Y6522620D01*
X16579117Y6639687D01*
X16587477Y6762825D01*
X16579939Y6891149D01*
G36*
X8585800Y9225473D02*
G01*
X8528769Y9225033D01*
X8476864Y9224249D01*
X8432978Y9223119D01*
X8400002Y9221643D01*
X8380831Y9219823D01*
X8377457Y9218877D01*
X8373059Y9208551D01*
X8366015Y9182817D01*
X8356848Y9144005D01*
X8346083Y9094448D01*
X8334242Y9036477D01*
X8321848Y8972422D01*
X8320356Y8964474D01*
X8307844Y8899149D01*
X8295781Y8838989D01*
X8284707Y8786463D01*
X8275158Y8744042D01*
X8267673Y8714196D01*
X8262791Y8699397D01*
X8262501Y8698892D01*
X8250828Y8690080D01*
X8225502Y8676477D01*
X8189563Y8659332D01*
X8146046Y8639890D01*
X8097992Y8619398D01*
X8048436Y8599104D01*
X8000418Y8580255D01*
X7956975Y8564098D01*
X7921145Y8551879D01*
X7895966Y8544846D01*
X7885017Y8543942D01*
X7874252Y8550258D01*
X7850729Y8565448D01*
X7816511Y8588135D01*
X7773658Y8616940D01*
X7724234Y8650484D01*
X7670299Y8687391D01*
X7667458Y8689344D01*
X7613315Y8726180D01*
X7563447Y8759395D01*
X7519931Y8787663D01*
X7484843Y8809658D01*
X7460258Y8824054D01*
X7448252Y8829525D01*
X7447998Y8829541D01*
X7437834Y8823366D01*
X7416852Y8805935D01*
X7386823Y8778882D01*
X7349516Y8743845D01*
X7306704Y8702462D01*
X7260155Y8656368D01*
X7254065Y8650259D01*
X7201000Y8596734D01*
X7159582Y8554346D01*
X7128558Y8521648D01*
X7106679Y8497191D01*
X7092691Y8479529D01*
X7085344Y8467214D01*
X7083386Y8458797D01*
X7084639Y8454285D01*
X7092017Y8442591D01*
X7108169Y8418201D01*
X7131649Y8383257D01*
X7161010Y8339905D01*
X7194804Y8290290D01*
X7229615Y8239425D01*
X7265834Y8186095D01*
X7298419Y8137099D01*
X7326026Y8094543D01*
X7347312Y8060528D01*
X7360932Y8037157D01*
X7365549Y8026659D01*
X7362185Y8014998D01*
X7352902Y7989744D01*
X7338911Y7953854D01*
X7321426Y7910286D01*
X7301658Y7861995D01*
X7280820Y7811939D01*
X7260125Y7763073D01*
X7240784Y7718356D01*
X7224010Y7680743D01*
X7221184Y7674581D01*
X7213182Y7661073D01*
X7201372Y7650344D01*
X7182950Y7641350D01*
X7155117Y7633045D01*
X7115071Y7624385D01*
X7060009Y7614326D01*
X7059200Y7614185D01*
X7001370Y7603932D01*
X6941530Y7593066D01*
X6882545Y7582136D01*
X6827275Y7571686D01*
X6778585Y7562263D01*
X6739338Y7554415D01*
X6712395Y7548688D01*
X6701041Y7545801D01*
X6697857Y7535992D01*
X6695148Y7510941D01*
X6692924Y7473422D01*
X6691194Y7426209D01*
X6689968Y7372073D01*
X6689255Y7313790D01*
X6689064Y7254132D01*
X6689406Y7195871D01*
X6690290Y7141782D01*
X6691725Y7094638D01*
X6693721Y7057212D01*
X6696288Y7032277D01*
X6699245Y7022696D01*
X6710323Y7019538D01*
X6736701Y7013631D01*
X6775953Y7005469D01*
X6825651Y6995546D01*
X6883370Y6984355D01*
X6944298Y6972835D01*
X7022287Y6957960D01*
X7083887Y6945484D01*
X7130518Y6935068D01*
X7163602Y6926370D01*
X7184560Y6919050D01*
X7194756Y6912830D01*
X7202333Y6900001D01*
X7215232Y6873032D01*
X7232281Y6834590D01*
X7252309Y6787345D01*
X7274147Y6733967D01*
X7283613Y6710267D01*
X7307889Y6648602D01*
X7325953Y6601355D01*
X7338488Y6566296D01*
X7346173Y6541192D01*
X7349689Y6523810D01*
X7349717Y6511920D01*
X7346936Y6503288D01*
X7346803Y6503030D01*
X7338808Y6490005D01*
X7322122Y6464470D01*
X7298297Y6428742D01*
X7268884Y6385138D01*
X7235437Y6335974D01*
X7210966Y6300240D01*
X7176086Y6249234D01*
X7144584Y6202778D01*
X7117916Y6163052D01*
X7097536Y6132232D01*
X7084901Y6112496D01*
X7081419Y6106381D01*
X7086390Y6096966D01*
X7103049Y6076463D01*
X7130099Y6046279D01*
X7166244Y6007821D01*
X7210189Y5962497D01*
X7260637Y5911715D01*
X7260847Y5911507D01*
X7315106Y5857691D01*
X7358203Y5815530D01*
X7391565Y5783785D01*
X7416620Y5761218D01*
X7434794Y5746590D01*
X7447516Y5738663D01*
X7456214Y5736199D01*
X7461478Y5737458D01*
X7473322Y5744939D01*
X7497757Y5761149D01*
X7532547Y5784575D01*
X7575455Y5813707D01*
X7624243Y5847033D01*
X7662704Y5873428D01*
X7714044Y5908384D01*
X7760935Y5939655D01*
X7801208Y5965846D01*
X7832695Y5985565D01*
X7853228Y5997419D01*
X7860180Y6000311D01*
X7873109Y5996251D01*
X7897911Y5985279D01*
X7930691Y5969199D01*
X7958298Y5954805D01*
X7994462Y5936339D01*
X8025607Y5922013D01*
X8047855Y5913520D01*
X8056422Y5912006D01*
X8062007Y5920525D01*
X8073544Y5943820D01*
X8090226Y5979965D01*
X8111242Y6027030D01*
X8135783Y6083089D01*
X8163041Y6146215D01*
X8192206Y6214479D01*
X8222469Y6285955D01*
X8253021Y6358715D01*
X8283052Y6430831D01*
X8311754Y6500377D01*
X8338318Y6565423D01*
X8361933Y6624044D01*
X8381791Y6674312D01*
X8397084Y6714298D01*
X8407001Y6742077D01*
X8410733Y6755719D01*
X8410743Y6756010D01*
X8403577Y6770653D01*
X8386122Y6785809D01*
X8384087Y6787056D01*
X8346884Y6811979D01*
X8304757Y6844779D01*
X8262813Y6881048D01*
X8226162Y6916379D01*
X8200797Y6945193D01*
X8147073Y7029326D01*
X8110689Y7118289D01*
X8091492Y7212570D01*
X8089000Y7306802D01*
X8098752Y7393273D01*
X8119482Y7469743D01*
X8152962Y7541703D01*
X8177689Y7581702D01*
X8240332Y7660091D01*
X8313157Y7723822D01*
X8395143Y7772350D01*
X8485267Y7805130D01*
X8582508Y7821617D01*
X8631495Y7823584D01*
X8731793Y7815125D01*
X8825466Y7790111D01*
X8911492Y7749087D01*
X8988850Y7692597D01*
X9056516Y7621188D01*
X9085300Y7581702D01*
X9126618Y7509876D01*
X9154204Y7436586D01*
X9169829Y7356343D01*
X9173989Y7306802D01*
X9170864Y7207057D01*
X9150694Y7113092D01*
X9113328Y7024417D01*
X9062193Y6945193D01*
X9035365Y6914873D01*
X8998366Y6879405D01*
X8956305Y6843197D01*
X8914289Y6810657D01*
X8878902Y6787056D01*
X8860765Y6772229D01*
X8852324Y6757224D01*
X8852247Y6756010D01*
X8855630Y6743167D01*
X8865241Y6716087D01*
X8880269Y6676697D01*
X8899907Y6626924D01*
X8923344Y6568696D01*
X8949772Y6503940D01*
X8978382Y6434584D01*
X9008363Y6362555D01*
X9038908Y6289781D01*
X9069206Y6218190D01*
X9098449Y6149707D01*
X9125828Y6086262D01*
X9150533Y6029782D01*
X9171756Y5982193D01*
X9188686Y5945424D01*
X9200515Y5921403D01*
X9206434Y5912055D01*
X9206567Y5912006D01*
X9219468Y5914940D01*
X9244212Y5924992D01*
X9276919Y5940469D01*
X9304691Y5954805D01*
X9340908Y5973539D01*
X9372083Y5988527D01*
X9394320Y5997964D01*
X9402809Y6000311D01*
X9413543Y5995383D01*
X9436883Y5981529D01*
X9470660Y5960142D01*
X9512706Y5932614D01*
X9560853Y5900339D01*
X9600286Y5873428D01*
X9651978Y5837977D01*
X9699439Y5805605D01*
X9740432Y5777824D01*
X9772720Y5756145D01*
X9794067Y5742080D01*
X9801495Y5737466D01*
X9808031Y5736243D01*
X9817402Y5739517D01*
X9831077Y5748551D01*
X9850526Y5764608D01*
X9877217Y5788952D01*
X9912620Y5822845D01*
X9958203Y5867549D01*
X9993625Y5902643D01*
X10040093Y5949029D01*
X10082526Y5991833D01*
X10119178Y6029257D01*
X10148303Y6059504D01*
X10168155Y6080778D01*
X10176987Y6091281D01*
X10177094Y6091464D01*
X10177189Y6099976D01*
X10170975Y6115683D01*
X10157607Y6140003D01*
X10136236Y6174353D01*
X10106015Y6220150D01*
X10066097Y6278813D01*
X10058614Y6289690D01*
X10022863Y6341831D01*
X9989929Y6390308D01*
X9961399Y6432750D01*
X9938860Y6466786D01*
X9923899Y6490043D01*
X9918793Y6498626D01*
X9914755Y6507574D01*
X9912899Y6517359D01*
X9913891Y6530317D01*
X9918402Y6548783D01*
X9927099Y6575092D01*
X9940651Y6611579D01*
X9959727Y6660581D01*
X9979417Y6710368D01*
X10001660Y6765518D01*
X10022588Y6815659D01*
X10041031Y6858123D01*
X10055816Y6890237D01*
X10065773Y6909333D01*
X10068233Y6912830D01*
X10078591Y6919121D01*
X10099668Y6926453D01*
X10132886Y6935167D01*
X10179666Y6945603D01*
X10241430Y6958102D01*
X10318692Y6972835D01*
X10381843Y6984780D01*
X10439311Y6995934D01*
X10488670Y7005802D01*
X10527494Y7013890D01*
X10553355Y7019705D01*
X10563744Y7022696D01*
X10566858Y7033281D01*
X10569393Y7058978D01*
X10571358Y7097013D01*
X10572762Y7144613D01*
X10573616Y7199005D01*
X10573928Y7257415D01*
X10573709Y7317070D01*
X10572968Y7375196D01*
X10571713Y7429022D01*
X10569956Y7475772D01*
X10567705Y7512675D01*
X10564969Y7536956D01*
X10561949Y7545801D01*
X10548510Y7549156D01*
X10520192Y7555122D01*
X10479858Y7563154D01*
X10430372Y7572706D01*
X10374597Y7583229D01*
X10315394Y7594178D01*
X10255628Y7605006D01*
X10203790Y7614185D01*
X10148519Y7624268D01*
X10108299Y7632939D01*
X10080328Y7641242D01*
X10061805Y7650221D01*
X10049928Y7660921D01*
X10041895Y7674387D01*
X10041806Y7674581D01*
X10025663Y7710491D01*
X10006721Y7754073D01*
X9986192Y7802371D01*
X9965287Y7852428D01*
X9945220Y7901287D01*
X9927202Y7945992D01*
X9912446Y7983586D01*
X9902165Y8011111D01*
X9897570Y8025612D01*
X9897440Y8026659D01*
X9902370Y8037736D01*
X9916265Y8061491D01*
X9937780Y8095821D01*
X9965572Y8138623D01*
X9998298Y8187795D01*
X10033374Y8239425D01*
X10070035Y8292998D01*
X10103634Y8342340D01*
X10132723Y8385306D01*
X10155856Y8419752D01*
X10171587Y8443534D01*
X10178350Y8454285D01*
X10179534Y8460771D01*
X10176242Y8470099D01*
X10167222Y8483718D01*
X10151224Y8503075D01*
X10126995Y8529618D01*
X10093283Y8564794D01*
X10048838Y8610052D01*
X10008924Y8650259D01*
X9962004Y8696841D01*
X9918565Y8738919D01*
X9880382Y8774855D01*
X9849232Y8803012D01*
X9826891Y8821753D01*
X9815135Y8829439D01*
X9814494Y8829541D01*
X9803107Y8824586D01*
X9779056Y8810611D01*
X9744423Y8788948D01*
X9701292Y8760930D01*
X9651749Y8727889D01*
X9597877Y8691158D01*
X9595513Y8689528D01*
X9541534Y8652453D01*
X9491927Y8618670D01*
X9448761Y8589566D01*
X9414106Y8566527D01*
X9390032Y8550939D01*
X9378610Y8544190D01*
X9378452Y8544126D01*
X9365103Y8545508D01*
X9338423Y8553176D01*
X9301453Y8565884D01*
X9257234Y8582388D01*
X9208806Y8601442D01*
X9159210Y8621802D01*
X9111486Y8642222D01*
X9068677Y8661457D01*
X9033821Y8678262D01*
X9009960Y8691392D01*
X9000489Y8698892D01*
X8995864Y8712231D01*
X8988590Y8740837D01*
X8979203Y8782238D01*
X8968243Y8833964D01*
X8956246Y8893545D01*
X8943753Y8958510D01*
X8942634Y8964474D01*
X8930209Y9029100D01*
X8918275Y9087920D01*
X8907353Y9138605D01*
X8897969Y9178823D01*
X8890644Y9206242D01*
X8885902Y9218531D01*
X8885533Y9218877D01*
X8873622Y9220855D01*
X8846588Y9222488D01*
X8807322Y9223776D01*
X8758717Y9224718D01*
X8703667Y9225315D01*
X8645063Y9225567D01*
X8585800Y9225473D01*
X8585800Y9225473D01*
G37*
X8585800Y9225473D02*
X8528769Y9225033D01*
X8476864Y9224249D01*
X8432978Y9223119D01*
X8400002Y9221643D01*
X8380831Y9219823D01*
X8377457Y9218877D01*
X8373059Y9208551D01*
X8366015Y9182817D01*
X8356848Y9144005D01*
X8346083Y9094448D01*
X8334242Y9036477D01*
X8321848Y8972422D01*
X8320356Y8964474D01*
X8307844Y8899149D01*
X8295781Y8838989D01*
X8284707Y8786463D01*
X8275158Y8744042D01*
X8267673Y8714196D01*
X8262791Y8699397D01*
X8262501Y8698892D01*
X8250828Y8690080D01*
X8225502Y8676477D01*
X8189563Y8659332D01*
X8146046Y8639890D01*
X8097992Y8619398D01*
X8048436Y8599104D01*
X8000418Y8580255D01*
X7956975Y8564098D01*
X7921145Y8551879D01*
X7895966Y8544846D01*
X7885017Y8543942D01*
X7874252Y8550258D01*
X7850729Y8565448D01*
X7816511Y8588135D01*
X7773658Y8616940D01*
X7724234Y8650484D01*
X7670299Y8687391D01*
X7667458Y8689344D01*
X7613315Y8726180D01*
X7563447Y8759395D01*
X7519931Y8787663D01*
X7484843Y8809658D01*
X7460258Y8824054D01*
X7448252Y8829525D01*
X7447998Y8829541D01*
X7437834Y8823366D01*
X7416852Y8805935D01*
X7386823Y8778882D01*
X7349516Y8743845D01*
X7306704Y8702462D01*
X7260155Y8656368D01*
X7254065Y8650259D01*
X7201000Y8596734D01*
X7159582Y8554346D01*
X7128558Y8521648D01*
X7106679Y8497191D01*
X7092691Y8479529D01*
X7085344Y8467214D01*
X7083386Y8458797D01*
X7084639Y8454285D01*
X7092017Y8442591D01*
X7108169Y8418201D01*
X7131649Y8383257D01*
X7161010Y8339905D01*
X7194804Y8290290D01*
X7229615Y8239425D01*
X7265834Y8186095D01*
X7298419Y8137099D01*
X7326026Y8094543D01*
X7347312Y8060528D01*
X7360932Y8037157D01*
X7365549Y8026659D01*
X7362185Y8014998D01*
X7352902Y7989744D01*
X7338911Y7953854D01*
X7321426Y7910286D01*
X7301658Y7861995D01*
X7280820Y7811939D01*
X7260125Y7763073D01*
X7240784Y7718356D01*
X7224010Y7680743D01*
X7221184Y7674581D01*
X7213182Y7661073D01*
X7201372Y7650344D01*
X7182950Y7641350D01*
X7155117Y7633045D01*
X7115071Y7624385D01*
X7060009Y7614326D01*
X7059200Y7614185D01*
X7001370Y7603932D01*
X6941530Y7593066D01*
X6882545Y7582136D01*
X6827275Y7571686D01*
X6778585Y7562263D01*
X6739338Y7554415D01*
X6712395Y7548688D01*
X6701041Y7545801D01*
X6697857Y7535992D01*
X6695148Y7510941D01*
X6692924Y7473422D01*
X6691194Y7426209D01*
X6689968Y7372073D01*
X6689255Y7313790D01*
X6689064Y7254132D01*
X6689406Y7195871D01*
X6690290Y7141782D01*
X6691725Y7094638D01*
X6693721Y7057212D01*
X6696288Y7032277D01*
X6699245Y7022696D01*
X6710323Y7019538D01*
X6736701Y7013631D01*
X6775953Y7005469D01*
X6825651Y6995546D01*
X6883370Y6984355D01*
X6944298Y6972835D01*
X7022287Y6957960D01*
X7083887Y6945484D01*
X7130518Y6935068D01*
X7163602Y6926370D01*
X7184560Y6919050D01*
X7194756Y6912830D01*
X7202333Y6900001D01*
X7215232Y6873032D01*
X7232281Y6834590D01*
X7252309Y6787345D01*
X7274147Y6733967D01*
X7283613Y6710267D01*
X7307889Y6648602D01*
X7325953Y6601355D01*
X7338488Y6566296D01*
X7346173Y6541192D01*
X7349689Y6523810D01*
X7349717Y6511920D01*
X7346936Y6503288D01*
X7346803Y6503030D01*
X7338808Y6490005D01*
X7322122Y6464470D01*
X7298297Y6428742D01*
X7268884Y6385138D01*
X7235437Y6335974D01*
X7210966Y6300240D01*
X7176086Y6249234D01*
X7144584Y6202778D01*
X7117916Y6163052D01*
X7097536Y6132232D01*
X7084901Y6112496D01*
X7081419Y6106381D01*
X7086390Y6096966D01*
X7103049Y6076463D01*
X7130099Y6046279D01*
X7166244Y6007821D01*
X7210189Y5962497D01*
X7260637Y5911715D01*
X7260847Y5911507D01*
X7315106Y5857691D01*
X7358203Y5815530D01*
X7391565Y5783785D01*
X7416620Y5761218D01*
X7434794Y5746590D01*
X7447516Y5738663D01*
X7456214Y5736199D01*
X7461478Y5737458D01*
X7473322Y5744939D01*
X7497757Y5761149D01*
X7532547Y5784575D01*
X7575455Y5813707D01*
X7624243Y5847033D01*
X7662704Y5873428D01*
X7714044Y5908384D01*
X7760935Y5939655D01*
X7801208Y5965846D01*
X7832695Y5985565D01*
X7853228Y5997419D01*
X7860180Y6000311D01*
X7873109Y5996251D01*
X7897911Y5985279D01*
X7930691Y5969199D01*
X7958298Y5954805D01*
X7994462Y5936339D01*
X8025607Y5922013D01*
X8047855Y5913520D01*
X8056422Y5912006D01*
X8062007Y5920525D01*
X8073544Y5943820D01*
X8090226Y5979965D01*
X8111242Y6027030D01*
X8135783Y6083089D01*
X8163041Y6146215D01*
X8192206Y6214479D01*
X8222469Y6285955D01*
X8253021Y6358715D01*
X8283052Y6430831D01*
X8311754Y6500377D01*
X8338318Y6565423D01*
X8361933Y6624044D01*
X8381791Y6674312D01*
X8397084Y6714298D01*
X8407001Y6742077D01*
X8410733Y6755719D01*
X8410743Y6756010D01*
X8403577Y6770653D01*
X8386122Y6785809D01*
X8384087Y6787056D01*
X8346884Y6811979D01*
X8304757Y6844779D01*
X8262813Y6881048D01*
X8226162Y6916379D01*
X8200797Y6945193D01*
X8147073Y7029326D01*
X8110689Y7118289D01*
X8091492Y7212570D01*
X8089000Y7306802D01*
X8098752Y7393273D01*
X8119482Y7469743D01*
X8152962Y7541703D01*
X8177689Y7581702D01*
X8240332Y7660091D01*
X8313157Y7723822D01*
X8395143Y7772350D01*
X8485267Y7805130D01*
X8582508Y7821617D01*
X8631495Y7823584D01*
X8731793Y7815125D01*
X8825466Y7790111D01*
X8911492Y7749087D01*
X8988850Y7692597D01*
X9056516Y7621188D01*
X9085300Y7581702D01*
X9126618Y7509876D01*
X9154204Y7436586D01*
X9169829Y7356343D01*
X9173989Y7306802D01*
X9170864Y7207057D01*
X9150694Y7113092D01*
X9113328Y7024417D01*
X9062193Y6945193D01*
X9035365Y6914873D01*
X8998366Y6879405D01*
X8956305Y6843197D01*
X8914289Y6810657D01*
X8878902Y6787056D01*
X8860765Y6772229D01*
X8852324Y6757224D01*
X8852247Y6756010D01*
X8855630Y6743167D01*
X8865241Y6716087D01*
X8880269Y6676697D01*
X8899907Y6626924D01*
X8923344Y6568696D01*
X8949772Y6503940D01*
X8978382Y6434584D01*
X9008363Y6362555D01*
X9038908Y6289781D01*
X9069206Y6218190D01*
X9098449Y6149707D01*
X9125828Y6086262D01*
X9150533Y6029782D01*
X9171756Y5982193D01*
X9188686Y5945424D01*
X9200515Y5921403D01*
X9206434Y5912055D01*
X9206567Y5912006D01*
X9219468Y5914940D01*
X9244212Y5924992D01*
X9276919Y5940469D01*
X9304691Y5954805D01*
X9340908Y5973539D01*
X9372083Y5988527D01*
X9394320Y5997964D01*
X9402809Y6000311D01*
X9413543Y5995383D01*
X9436883Y5981529D01*
X9470660Y5960142D01*
X9512706Y5932614D01*
X9560853Y5900339D01*
X9600286Y5873428D01*
X9651978Y5837977D01*
X9699439Y5805605D01*
X9740432Y5777824D01*
X9772720Y5756145D01*
X9794067Y5742080D01*
X9801495Y5737466D01*
X9808031Y5736243D01*
X9817402Y5739517D01*
X9831077Y5748551D01*
X9850526Y5764608D01*
X9877217Y5788952D01*
X9912620Y5822845D01*
X9958203Y5867549D01*
X9993625Y5902643D01*
X10040093Y5949029D01*
X10082526Y5991833D01*
X10119178Y6029257D01*
X10148303Y6059504D01*
X10168155Y6080778D01*
X10176987Y6091281D01*
X10177094Y6091464D01*
X10177189Y6099976D01*
X10170975Y6115683D01*
X10157607Y6140003D01*
X10136236Y6174353D01*
X10106015Y6220150D01*
X10066097Y6278813D01*
X10058614Y6289690D01*
X10022863Y6341831D01*
X9989929Y6390308D01*
X9961399Y6432750D01*
X9938860Y6466786D01*
X9923899Y6490043D01*
X9918793Y6498626D01*
X9914755Y6507574D01*
X9912899Y6517359D01*
X9913891Y6530317D01*
X9918402Y6548783D01*
X9927099Y6575092D01*
X9940651Y6611579D01*
X9959727Y6660581D01*
X9979417Y6710368D01*
X10001660Y6765518D01*
X10022588Y6815659D01*
X10041031Y6858123D01*
X10055816Y6890237D01*
X10065773Y6909333D01*
X10068233Y6912830D01*
X10078591Y6919121D01*
X10099668Y6926453D01*
X10132886Y6935167D01*
X10179666Y6945603D01*
X10241430Y6958102D01*
X10318692Y6972835D01*
X10381843Y6984780D01*
X10439311Y6995934D01*
X10488670Y7005802D01*
X10527494Y7013890D01*
X10553355Y7019705D01*
X10563744Y7022696D01*
X10566858Y7033281D01*
X10569393Y7058978D01*
X10571358Y7097013D01*
X10572762Y7144613D01*
X10573616Y7199005D01*
X10573928Y7257415D01*
X10573709Y7317070D01*
X10572968Y7375196D01*
X10571713Y7429022D01*
X10569956Y7475772D01*
X10567705Y7512675D01*
X10564969Y7536956D01*
X10561949Y7545801D01*
X10548510Y7549156D01*
X10520192Y7555122D01*
X10479858Y7563154D01*
X10430372Y7572706D01*
X10374597Y7583229D01*
X10315394Y7594178D01*
X10255628Y7605006D01*
X10203790Y7614185D01*
X10148519Y7624268D01*
X10108299Y7632939D01*
X10080328Y7641242D01*
X10061805Y7650221D01*
X10049928Y7660921D01*
X10041895Y7674387D01*
X10041806Y7674581D01*
X10025663Y7710491D01*
X10006721Y7754073D01*
X9986192Y7802371D01*
X9965287Y7852428D01*
X9945220Y7901287D01*
X9927202Y7945992D01*
X9912446Y7983586D01*
X9902165Y8011111D01*
X9897570Y8025612D01*
X9897440Y8026659D01*
X9902370Y8037736D01*
X9916265Y8061491D01*
X9937780Y8095821D01*
X9965572Y8138623D01*
X9998298Y8187795D01*
X10033374Y8239425D01*
X10070035Y8292998D01*
X10103634Y8342340D01*
X10132723Y8385306D01*
X10155856Y8419752D01*
X10171587Y8443534D01*
X10178350Y8454285D01*
X10179534Y8460771D01*
X10176242Y8470099D01*
X10167222Y8483718D01*
X10151224Y8503075D01*
X10126995Y8529618D01*
X10093283Y8564794D01*
X10048838Y8610052D01*
X10008924Y8650259D01*
X9962004Y8696841D01*
X9918565Y8738919D01*
X9880382Y8774855D01*
X9849232Y8803012D01*
X9826891Y8821753D01*
X9815135Y8829439D01*
X9814494Y8829541D01*
X9803107Y8824586D01*
X9779056Y8810611D01*
X9744423Y8788948D01*
X9701292Y8760930D01*
X9651749Y8727889D01*
X9597877Y8691158D01*
X9595513Y8689528D01*
X9541534Y8652453D01*
X9491927Y8618670D01*
X9448761Y8589566D01*
X9414106Y8566527D01*
X9390032Y8550939D01*
X9378610Y8544190D01*
X9378452Y8544126D01*
X9365103Y8545508D01*
X9338423Y8553176D01*
X9301453Y8565884D01*
X9257234Y8582388D01*
X9208806Y8601442D01*
X9159210Y8621802D01*
X9111486Y8642222D01*
X9068677Y8661457D01*
X9033821Y8678262D01*
X9009960Y8691392D01*
X9000489Y8698892D01*
X8995864Y8712231D01*
X8988590Y8740837D01*
X8979203Y8782238D01*
X8968243Y8833964D01*
X8956246Y8893545D01*
X8943753Y8958510D01*
X8942634Y8964474D01*
X8930209Y9029100D01*
X8918275Y9087920D01*
X8907353Y9138605D01*
X8897969Y9178823D01*
X8890644Y9206242D01*
X8885902Y9218531D01*
X8885533Y9218877D01*
X8873622Y9220855D01*
X8846588Y9222488D01*
X8807322Y9223776D01*
X8758717Y9224718D01*
X8703667Y9225315D01*
X8645063Y9225567D01*
X8585800Y9225473D01*
G36*
X7063883Y5318492D02*
G01*
X7026533Y5302101D01*
X7004783Y5287850D01*
X7038551Y5247452D01*
X7062173Y5222487D01*
X7079042Y5212628D01*
X7086033Y5213333D01*
X7103027Y5217918D01*
X7129694Y5222081D01*
X7141508Y5223319D01*
X7170140Y5223983D01*
X7190619Y5217577D01*
X7212356Y5201050D01*
X7213590Y5199952D01*
X7243911Y5172879D01*
X7246688Y4991916D01*
X7249466Y4810953D01*
X7347529Y4810953D01*
X7347529Y5315529D01*
X7297972Y5315529D01*
X7269590Y5314944D01*
X7254812Y5311854D01*
X7249228Y5304253D01*
X7248416Y5293003D01*
X7247703Y5277456D01*
X7243136Y5272191D01*
X7231073Y5277187D01*
X7207870Y5292421D01*
X7207363Y5292765D01*
X7161358Y5314979D01*
X7111863Y5323641D01*
X7063883Y5318492D01*
X7063883Y5318492D01*
G37*
X7063883Y5318492D02*
X7026533Y5302101D01*
X7004783Y5287850D01*
X7038551Y5247452D01*
X7062173Y5222487D01*
X7079042Y5212628D01*
X7086033Y5213333D01*
X7103027Y5217918D01*
X7129694Y5222081D01*
X7141508Y5223319D01*
X7170140Y5223983D01*
X7190619Y5217577D01*
X7212356Y5201050D01*
X7213590Y5199952D01*
X7243911Y5172879D01*
X7246688Y4991916D01*
X7249466Y4810953D01*
X7347529Y4810953D01*
X7347529Y5315529D01*
X7297972Y5315529D01*
X7269590Y5314944D01*
X7254812Y5311854D01*
X7249228Y5304253D01*
X7248416Y5293003D01*
X7247703Y5277456D01*
X7243136Y5272191D01*
X7231073Y5277187D01*
X7207870Y5292421D01*
X7207363Y5292765D01*
X7161358Y5314979D01*
X7111863Y5323641D01*
X7063883Y5318492D01*
G36*
X6322311Y5321682D02*
G01*
X6263122Y5307686D01*
X6214501Y5279272D01*
X6176814Y5236881D01*
X6150430Y5180950D01*
X6135717Y5111921D01*
X6134243Y5097029D01*
X6128496Y5027200D01*
X6457883Y5027200D01*
X6452955Y4990459D01*
X6440776Y4950655D01*
X6414928Y4920295D01*
X6388715Y4903635D01*
X6355091Y4894437D01*
X6314535Y4894818D01*
X6274857Y4903990D01*
X6248061Y4917809D01*
X6229682Y4930552D01*
X6218246Y4936928D01*
X6217416Y4937097D01*
X6208560Y4931670D01*
X6191223Y4917886D01*
X6180630Y4908799D01*
X6148400Y4880501D01*
X6168285Y4859334D01*
X6202866Y4833962D01*
X6249574Y4815777D01*
X6303650Y4805677D01*
X6360334Y4804559D01*
X6413742Y4813023D01*
X6455782Y4832643D01*
X6493998Y4866163D01*
X6524550Y4909459D01*
X6541397Y4950075D01*
X6552412Y5008270D01*
X6554633Y5071459D01*
X6548683Y5131680D01*
X6455510Y5131680D01*
X6455510Y5108292D01*
X6342882Y5108292D01*
X6292986Y5108784D01*
X6259048Y5110398D01*
X6239027Y5113336D01*
X6230883Y5117804D01*
X6230451Y5119555D01*
X6236888Y5145973D01*
X6252439Y5176519D01*
X6272620Y5203872D01*
X6292170Y5220323D01*
X6331873Y5232358D01*
X6371440Y5229946D01*
X6407168Y5215097D01*
X6435351Y5189822D01*
X6452285Y5156131D01*
X6455510Y5131680D01*
X6548683Y5131680D01*
X6548486Y5133667D01*
X6534397Y5188919D01*
X6522395Y5216090D01*
X6486411Y5266578D01*
X6442099Y5301087D01*
X6389420Y5319635D01*
X6328340Y5322241D01*
X6322311Y5321682D01*
X6322311Y5321682D01*
G37*
X6322311Y5321682D02*
X6263122Y5307686D01*
X6214501Y5279272D01*
X6176814Y5236881D01*
X6150430Y5180950D01*
X6135717Y5111921D01*
X6134243Y5097029D01*
X6128496Y5027200D01*
X6457883Y5027200D01*
X6452955Y4990459D01*
X6440776Y4950655D01*
X6414928Y4920295D01*
X6388715Y4903635D01*
X6355091Y4894437D01*
X6314535Y4894818D01*
X6274857Y4903990D01*
X6248061Y4917809D01*
X6229682Y4930552D01*
X6218246Y4936928D01*
X6217416Y4937097D01*
X6208560Y4931670D01*
X6191223Y4917886D01*
X6180630Y4908799D01*
X6148400Y4880501D01*
X6168285Y4859334D01*
X6202866Y4833962D01*
X6249574Y4815777D01*
X6303650Y4805677D01*
X6360334Y4804559D01*
X6413742Y4813023D01*
X6455782Y4832643D01*
X6493998Y4866163D01*
X6524550Y4909459D01*
X6541397Y4950075D01*
X6552412Y5008270D01*
X6554633Y5071459D01*
X6548683Y5131680D01*
X6455510Y5131680D01*
X6455510Y5108292D01*
X6342882Y5108292D01*
X6292986Y5108784D01*
X6259048Y5110398D01*
X6239027Y5113336D01*
X6230883Y5117804D01*
X6230451Y5119555D01*
X6236888Y5145973D01*
X6252439Y5176519D01*
X6272620Y5203872D01*
X6292170Y5220323D01*
X6331873Y5232358D01*
X6371440Y5229946D01*
X6407168Y5215097D01*
X6435351Y5189822D01*
X6452285Y5156131D01*
X6455510Y5131680D01*
X6548683Y5131680D01*
X6548486Y5133667D01*
X6534397Y5188919D01*
X6522395Y5216090D01*
X6486411Y5266578D01*
X6442099Y5301087D01*
X6389420Y5319635D01*
X6328340Y5322241D01*
X6322311Y5321682D01*
G36*
X6731979Y5317250D02*
G01*
X6682463Y5304047D01*
X6669637Y5298230D01*
X6641355Y5281926D01*
X6617491Y5265025D01*
X6609367Y5257683D01*
X6599644Y5246186D01*
X6598585Y5237158D01*
X6607961Y5225781D01*
X6627135Y5209251D01*
X6662505Y5179560D01*
X6696254Y5202493D01*
X6731558Y5220042D01*
X6771785Y5225420D01*
X6773409Y5225426D01*
X6822615Y5219013D01*
X6860135Y5199493D01*
X6886311Y5166447D01*
X6901485Y5119454D01*
X6906025Y5062709D01*
X6900935Y5002607D01*
X6885373Y4956934D01*
X6858899Y4925152D01*
X6821074Y4906722D01*
X6774380Y4901089D01*
X6735428Y4904919D01*
X6703334Y4918339D01*
X6695026Y4923659D01*
X6661719Y4946262D01*
X6626038Y4916901D01*
X6590358Y4887540D01*
X6622908Y4858810D01*
X6669598Y4828398D01*
X6725154Y4809098D01*
X6783556Y4802237D01*
X6838788Y4809138D01*
X6843011Y4810361D01*
X6901014Y4836420D01*
X6946496Y4875277D01*
X6979189Y4926514D01*
X6998823Y4989716D01*
X7005138Y5061832D01*
X6998316Y5134386D01*
X6978384Y5197541D01*
X6946141Y5249715D01*
X6902390Y5289322D01*
X6884880Y5299726D01*
X6840026Y5315138D01*
X6786779Y5320963D01*
X6731979Y5317250D01*
X6731979Y5317250D01*
G37*
X6731979Y5317250D02*
X6682463Y5304047D01*
X6669637Y5298230D01*
X6641355Y5281926D01*
X6617491Y5265025D01*
X6609367Y5257683D01*
X6599644Y5246186D01*
X6598585Y5237158D01*
X6607961Y5225781D01*
X6627135Y5209251D01*
X6662505Y5179560D01*
X6696254Y5202493D01*
X6731558Y5220042D01*
X6771785Y5225420D01*
X6773409Y5225426D01*
X6822615Y5219013D01*
X6860135Y5199493D01*
X6886311Y5166447D01*
X6901485Y5119454D01*
X6906025Y5062709D01*
X6900935Y5002607D01*
X6885373Y4956934D01*
X6858899Y4925152D01*
X6821074Y4906722D01*
X6774380Y4901089D01*
X6735428Y4904919D01*
X6703334Y4918339D01*
X6695026Y4923659D01*
X6661719Y4946262D01*
X6626038Y4916901D01*
X6590358Y4887540D01*
X6622908Y4858810D01*
X6669598Y4828398D01*
X6725154Y4809098D01*
X6783556Y4802237D01*
X6838788Y4809138D01*
X6843011Y4810361D01*
X6901014Y4836420D01*
X6946496Y4875277D01*
X6979189Y4926514D01*
X6998823Y4989716D01*
X7005138Y5061832D01*
X6998316Y5134386D01*
X6978384Y5197541D01*
X6946141Y5249715D01*
X6902390Y5289322D01*
X6884880Y5299726D01*
X6840026Y5315138D01*
X6786779Y5320963D01*
X6731979Y5317250D01*
G36*
X7780023Y5148391D02*
G01*
X7779635Y5081979D01*
X7778125Y5030991D01*
X7774972Y4992841D01*
X7769654Y4964941D01*
X7761650Y4944706D01*
X7750439Y4929549D01*
X7735499Y4916884D01*
X7733018Y4915118D01*
X7711269Y4906285D01*
X7681262Y4901417D01*
X7671210Y4901056D01*
X7628630Y4909136D01*
X7595018Y4932404D01*
X7572694Y4968874D01*
X7569796Y4985308D01*
X7567291Y5016336D01*
X7565345Y5058530D01*
X7564123Y5108466D01*
X7563776Y5153930D01*
X7563776Y5315529D01*
X7464382Y5315529D01*
X7466775Y5060988D01*
X7469168Y4806448D01*
X7516472Y4805379D01*
X7543978Y4805277D01*
X7558009Y4808171D01*
X7563096Y4816434D01*
X7563776Y4830157D01*
X7567324Y4850100D01*
X7576092Y4855835D01*
X7586881Y4846056D01*
X7606651Y4828689D01*
X7638807Y4815349D01*
X7677989Y4806954D01*
X7718831Y4804422D01*
X7755972Y4808671D01*
X7772830Y4814210D01*
X7814754Y4841817D01*
X7849230Y4882203D01*
X7862106Y4905561D01*
X7867822Y4919981D01*
X7872089Y4936863D01*
X7875115Y4958955D01*
X7877107Y4989004D01*
X7878271Y5029758D01*
X7878816Y5083965D01*
X7878938Y5128565D01*
X7879136Y5315529D01*
X7780023Y5315529D01*
X7780023Y5148391D01*
X7780023Y5148391D01*
G37*
X7780023Y5148391D02*
X7779635Y5081979D01*
X7778125Y5030991D01*
X7774972Y4992841D01*
X7769654Y4964941D01*
X7761650Y4944706D01*
X7750439Y4929549D01*
X7735499Y4916884D01*
X7733018Y4915118D01*
X7711269Y4906285D01*
X7681262Y4901417D01*
X7671210Y4901056D01*
X7628630Y4909136D01*
X7595018Y4932404D01*
X7572694Y4968874D01*
X7569796Y4985308D01*
X7567291Y5016336D01*
X7565345Y5058530D01*
X7564123Y5108466D01*
X7563776Y5153930D01*
X7563776Y5315529D01*
X7464382Y5315529D01*
X7466775Y5060988D01*
X7469168Y4806448D01*
X7516472Y4805379D01*
X7543978Y4805277D01*
X7558009Y4808171D01*
X7563096Y4816434D01*
X7563776Y4830157D01*
X7567324Y4850100D01*
X7576092Y4855835D01*
X7586881Y4846056D01*
X7606651Y4828689D01*
X7638807Y4815349D01*
X7677989Y4806954D01*
X7718831Y4804422D01*
X7755972Y4808671D01*
X7772830Y4814210D01*
X7814754Y4841817D01*
X7849230Y4882203D01*
X7862106Y4905561D01*
X7867822Y4919981D01*
X7872089Y4936863D01*
X7875115Y4958955D01*
X7877107Y4989004D01*
X7878271Y5029758D01*
X7878816Y5083965D01*
X7878938Y5128565D01*
X7879136Y5315529D01*
X7780023Y5315529D01*
X7780023Y5148391D01*
G36*
X8118729Y5314203D02*
G01*
X8068660Y5290222D01*
X8038232Y5265196D01*
X8017141Y5242350D01*
X8002153Y5220793D01*
X7992245Y5196787D01*
X7986393Y5166594D01*
X7983574Y5126476D01*
X7982765Y5072695D01*
X7982754Y5062534D01*
X7982893Y5013210D01*
X7983733Y4978035D01*
X7985905Y4953138D01*
X7990042Y4934649D01*
X7996777Y4918696D01*
X8006741Y4901409D01*
X8009924Y4896242D01*
X8045931Y4854288D01*
X8093002Y4823657D01*
X8147233Y4805643D01*
X8204718Y4801537D01*
X8261551Y4812632D01*
X8262073Y4812814D01*
X8311291Y4839329D01*
X8350870Y4880949D01*
X8370245Y4913864D01*
X8380303Y4935536D01*
X8386940Y4954589D01*
X8390728Y4975416D01*
X8392240Y5002409D01*
X8392050Y5039962D01*
X8391238Y5073811D01*
X8300833Y5073811D01*
X8299911Y5029696D01*
X8298283Y5011914D01*
X8291740Y4977146D01*
X8280293Y4952232D01*
X8262104Y4930821D01*
X8240547Y4912081D01*
X8219794Y4903350D01*
X8190931Y4901067D01*
X8187602Y4901056D01*
X8149476Y4904997D01*
X8121441Y4918005D01*
X8118451Y4920259D01*
X8099504Y4938764D01*
X8086948Y4961423D01*
X8079649Y4992096D01*
X8076476Y5034641D01*
X8076080Y5064696D01*
X8079477Y5124641D01*
X8090353Y5169214D01*
X8109719Y5199864D01*
X8138588Y5218039D01*
X8177971Y5225189D01*
X8188391Y5225426D01*
X8218343Y5223432D01*
X8239615Y5214995D01*
X8261337Y5196426D01*
X8262104Y5195661D01*
X8281351Y5172623D01*
X8292328Y5147274D01*
X8298283Y5114568D01*
X8300833Y5073811D01*
X8391238Y5073811D01*
X8391218Y5074626D01*
X8389700Y5122035D01*
X8387593Y5155676D01*
X8384076Y5179805D01*
X8378329Y5198673D01*
X8369534Y5216534D01*
X8361142Y5230686D01*
X8325293Y5273274D01*
X8279654Y5303292D01*
X8227698Y5320366D01*
X8172899Y5324127D01*
X8118729Y5314203D01*
X8118729Y5314203D01*
G37*
X8118729Y5314203D02*
X8068660Y5290222D01*
X8038232Y5265196D01*
X8017141Y5242350D01*
X8002153Y5220793D01*
X7992245Y5196787D01*
X7986393Y5166594D01*
X7983574Y5126476D01*
X7982765Y5072695D01*
X7982754Y5062534D01*
X7982893Y5013210D01*
X7983733Y4978035D01*
X7985905Y4953138D01*
X7990042Y4934649D01*
X7996777Y4918696D01*
X8006741Y4901409D01*
X8009924Y4896242D01*
X8045931Y4854288D01*
X8093002Y4823657D01*
X8147233Y4805643D01*
X8204718Y4801537D01*
X8261551Y4812632D01*
X8262073Y4812814D01*
X8311291Y4839329D01*
X8350870Y4880949D01*
X8370245Y4913864D01*
X8380303Y4935536D01*
X8386940Y4954589D01*
X8390728Y4975416D01*
X8392240Y5002409D01*
X8392050Y5039962D01*
X8391238Y5073811D01*
X8300833Y5073811D01*
X8299911Y5029696D01*
X8298283Y5011914D01*
X8291740Y4977146D01*
X8280293Y4952232D01*
X8262104Y4930821D01*
X8240547Y4912081D01*
X8219794Y4903350D01*
X8190931Y4901067D01*
X8187602Y4901056D01*
X8149476Y4904997D01*
X8121441Y4918005D01*
X8118451Y4920259D01*
X8099504Y4938764D01*
X8086948Y4961423D01*
X8079649Y4992096D01*
X8076476Y5034641D01*
X8076080Y5064696D01*
X8079477Y5124641D01*
X8090353Y5169214D01*
X8109719Y5199864D01*
X8138588Y5218039D01*
X8177971Y5225189D01*
X8188391Y5225426D01*
X8218343Y5223432D01*
X8239615Y5214995D01*
X8261337Y5196426D01*
X8262104Y5195661D01*
X8281351Y5172623D01*
X8292328Y5147274D01*
X8298283Y5114568D01*
X8300833Y5073811D01*
X8391238Y5073811D01*
X8391218Y5074626D01*
X8389700Y5122035D01*
X8387593Y5155676D01*
X8384076Y5179805D01*
X8378329Y5198673D01*
X8369534Y5216534D01*
X8361142Y5230686D01*
X8325293Y5273274D01*
X8279654Y5303292D01*
X8227698Y5320366D01*
X8172899Y5324127D01*
X8118729Y5314203D01*
G36*
X8642696Y5321668D02*
G01*
X8584223Y5310869D01*
X8532088Y5291510D01*
X8498962Y5270633D01*
X8478320Y5253786D01*
X8539490Y5190346D01*
X8576482Y5209724D01*
X8609690Y5222658D01*
X8649601Y5228663D01*
X8675070Y5229516D01*
X8709063Y5228985D01*
X8730322Y5225897D01*
X8744095Y5218865D01*
X8753910Y5208660D01*
X8770461Y5179639D01*
X8769863Y5155172D01*
X8752507Y5135686D01*
X8718786Y5121608D01*
X8669092Y5113364D01*
X8666132Y5113107D01*
X8617469Y5108635D01*
X8582831Y5104029D01*
X8558244Y5098248D01*
X8539736Y5090252D01*
X8523332Y5079000D01*
X8517425Y5074161D01*
X8485196Y5036600D01*
X8468120Y4993445D01*
X8465759Y4948132D01*
X8477669Y4904094D01*
X8503411Y4864768D01*
X8542543Y4833587D01*
X8548747Y4830230D01*
X8598522Y4812550D01*
X8657000Y4804099D01*
X8717191Y4805245D01*
X8772104Y4816355D01*
X8777463Y4818180D01*
X8806480Y4830449D01*
X8837290Y4846433D01*
X8865546Y4863473D01*
X8886901Y4878911D01*
X8897008Y4890085D01*
X8897298Y4891503D01*
X8891366Y4900765D01*
X8876279Y4917556D01*
X8865960Y4927895D01*
X8846578Y4945648D01*
X8834527Y4952063D01*
X8824695Y4948839D01*
X8818494Y4943673D01*
X8784879Y4920864D01*
X8744289Y4904774D01*
X8700545Y4895567D01*
X8657466Y4893406D01*
X8618872Y4898456D01*
X8588583Y4910880D01*
X8570417Y4930841D01*
X8569515Y4932995D01*
X8564080Y4961679D01*
X8568392Y4987434D01*
X8576785Y4999631D01*
X8590711Y5005185D01*
X8618172Y5011763D01*
X8654788Y5018423D01*
X8684588Y5022771D01*
X8733565Y5029709D01*
X8768490Y5036463D01*
X8793255Y5044510D01*
X8811751Y5055324D01*
X8827870Y5070380D01*
X8836636Y5080414D01*
X8859431Y5120160D01*
X8867024Y5163873D01*
X8860623Y5208074D01*
X8841437Y5249285D01*
X8810674Y5284027D01*
X8769542Y5308819D01*
X8755617Y5313720D01*
X8701746Y5322940D01*
X8642696Y5321668D01*
X8642696Y5321668D01*
G37*
X8642696Y5321668D02*
X8584223Y5310869D01*
X8532088Y5291510D01*
X8498962Y5270633D01*
X8478320Y5253786D01*
X8539490Y5190346D01*
X8576482Y5209724D01*
X8609690Y5222658D01*
X8649601Y5228663D01*
X8675070Y5229516D01*
X8709063Y5228985D01*
X8730322Y5225897D01*
X8744095Y5218865D01*
X8753910Y5208660D01*
X8770461Y5179639D01*
X8769863Y5155172D01*
X8752507Y5135686D01*
X8718786Y5121608D01*
X8669092Y5113364D01*
X8666132Y5113107D01*
X8617469Y5108635D01*
X8582831Y5104029D01*
X8558244Y5098248D01*
X8539736Y5090252D01*
X8523332Y5079000D01*
X8517425Y5074161D01*
X8485196Y5036600D01*
X8468120Y4993445D01*
X8465759Y4948132D01*
X8477669Y4904094D01*
X8503411Y4864768D01*
X8542543Y4833587D01*
X8548747Y4830230D01*
X8598522Y4812550D01*
X8657000Y4804099D01*
X8717191Y4805245D01*
X8772104Y4816355D01*
X8777463Y4818180D01*
X8806480Y4830449D01*
X8837290Y4846433D01*
X8865546Y4863473D01*
X8886901Y4878911D01*
X8897008Y4890085D01*
X8897298Y4891503D01*
X8891366Y4900765D01*
X8876279Y4917556D01*
X8865960Y4927895D01*
X8846578Y4945648D01*
X8834527Y4952063D01*
X8824695Y4948839D01*
X8818494Y4943673D01*
X8784879Y4920864D01*
X8744289Y4904774D01*
X8700545Y4895567D01*
X8657466Y4893406D01*
X8618872Y4898456D01*
X8588583Y4910880D01*
X8570417Y4930841D01*
X8569515Y4932995D01*
X8564080Y4961679D01*
X8568392Y4987434D01*
X8576785Y4999631D01*
X8590711Y5005185D01*
X8618172Y5011763D01*
X8654788Y5018423D01*
X8684588Y5022771D01*
X8733565Y5029709D01*
X8768490Y5036463D01*
X8793255Y5044510D01*
X8811751Y5055324D01*
X8827870Y5070380D01*
X8836636Y5080414D01*
X8859431Y5120160D01*
X8867024Y5163873D01*
X8860623Y5208074D01*
X8841437Y5249285D01*
X8810674Y5284027D01*
X8769542Y5308819D01*
X8755617Y5313720D01*
X8701746Y5322940D01*
X8642696Y5321668D01*
G36*
X9329335Y5320021D02*
G01*
X9283839Y5303031D01*
X9244566Y5274571D01*
X9215457Y5235597D01*
X9213750Y5232186D01*
X9207379Y5217817D01*
X9202598Y5202795D01*
X9199182Y5184368D01*
X9196904Y5159786D01*
X9195538Y5126298D01*
X9194857Y5081152D01*
X9194636Y5021598D01*
X9194625Y4999577D01*
X9194613Y4806448D01*
X9244182Y4809534D01*
X9293751Y4812621D01*
X9293751Y5164156D01*
X9324386Y5194791D01*
X9347055Y5214461D01*
X9368563Y5223370D01*
X9397369Y5225426D01*
X9426730Y5223256D01*
X9448159Y5214142D01*
X9470353Y5194791D01*
X9500987Y5164156D01*
X9500987Y4812621D01*
X9550556Y4809534D01*
X9600125Y4806448D01*
X9600113Y5060988D01*
X9600101Y5315529D01*
X9550544Y5315529D01*
X9522162Y5314944D01*
X9507384Y5311854D01*
X9501799Y5304253D01*
X9500987Y5293003D01*
X9499507Y5276244D01*
X9493055Y5272110D01*
X9478619Y5280573D01*
X9463729Y5292645D01*
X9423223Y5315782D01*
X9377111Y5324589D01*
X9329335Y5320021D01*
X9329335Y5320021D01*
G37*
X9329335Y5320021D02*
X9283839Y5303031D01*
X9244566Y5274571D01*
X9215457Y5235597D01*
X9213750Y5232186D01*
X9207379Y5217817D01*
X9202598Y5202795D01*
X9199182Y5184368D01*
X9196904Y5159786D01*
X9195538Y5126298D01*
X9194857Y5081152D01*
X9194636Y5021598D01*
X9194625Y4999577D01*
X9194613Y4806448D01*
X9244182Y4809534D01*
X9293751Y4812621D01*
X9293751Y5164156D01*
X9324386Y5194791D01*
X9347055Y5214461D01*
X9368563Y5223370D01*
X9397369Y5225426D01*
X9426730Y5223256D01*
X9448159Y5214142D01*
X9470353Y5194791D01*
X9500987Y5164156D01*
X9500987Y4812621D01*
X9550556Y4809534D01*
X9600125Y4806448D01*
X9600113Y5060988D01*
X9600101Y5315529D01*
X9550544Y5315529D01*
X9522162Y5314944D01*
X9507384Y5311854D01*
X9501799Y5304253D01*
X9500987Y5293003D01*
X9499507Y5276244D01*
X9493055Y5272110D01*
X9478619Y5280573D01*
X9463729Y5292645D01*
X9423223Y5315782D01*
X9377111Y5324589D01*
X9329335Y5320021D01*
G36*
X9875130Y5321364D02*
G01*
X9825358Y5305761D01*
X9776672Y5277645D01*
X9741326Y5242274D01*
X9717787Y5197133D01*
X9704526Y5139707D01*
X9701033Y5101534D01*
X9696954Y5027200D01*
X9860269Y5027200D01*
X9918142Y5027120D01*
X9960435Y5026699D01*
X9989587Y5025663D01*
X10008037Y5023738D01*
X10018226Y5020652D01*
X10022593Y5016130D01*
X10023577Y5009898D01*
X10023584Y5008890D01*
X10016093Y4972905D01*
X9996671Y4937783D01*
X9969893Y4911615D01*
X9967812Y4910297D01*
X9925494Y4894547D01*
X9878150Y4893837D01*
X9830477Y4908035D01*
X9817936Y4914534D01*
X9778979Y4936806D01*
X9748107Y4912173D01*
X9729341Y4896125D01*
X9718391Y4884679D01*
X9717235Y4882353D01*
X9724573Y4870214D01*
X9743570Y4853594D01*
X9769701Y4835932D01*
X9798327Y4820720D01*
X9843019Y4807530D01*
X9895497Y4802624D01*
X9947393Y4806298D01*
X9979241Y4814261D01*
X10032660Y4842337D01*
X10073937Y4883420D01*
X10101784Y4936130D01*
X10106332Y4950375D01*
X10114188Y4994005D01*
X10117129Y5046978D01*
X10115336Y5102315D01*
X10112862Y5122097D01*
X10023584Y5122097D01*
X10021101Y5116266D01*
X10011822Y5112307D01*
X9993001Y5109883D01*
X9961895Y5108657D01*
X9915758Y5108294D01*
X9910956Y5108292D01*
X9864299Y5108390D01*
X9832719Y5109054D01*
X9813275Y5110837D01*
X9803024Y5114292D01*
X9799022Y5119975D01*
X9798328Y5128437D01*
X9798327Y5129485D01*
X9804946Y5155296D01*
X9821714Y5184546D01*
X9844000Y5210368D01*
X9861669Y5223415D01*
X9890784Y5231149D01*
X9926316Y5230485D01*
X9959935Y5222316D01*
X9980142Y5210724D01*
X9998195Y5188328D01*
X10013814Y5158693D01*
X10022790Y5130411D01*
X10023584Y5122097D01*
X10112862Y5122097D01*
X10108991Y5153039D01*
X10100158Y5187306D01*
X10072238Y5240620D01*
X10033001Y5281879D01*
X9985221Y5309886D01*
X9931673Y5323447D01*
X9875130Y5321364D01*
X9875130Y5321364D01*
G37*
X9875130Y5321364D02*
X9825358Y5305761D01*
X9776672Y5277645D01*
X9741326Y5242274D01*
X9717787Y5197133D01*
X9704526Y5139707D01*
X9701033Y5101534D01*
X9696954Y5027200D01*
X9860269Y5027200D01*
X9918142Y5027120D01*
X9960435Y5026699D01*
X9989587Y5025663D01*
X10008037Y5023738D01*
X10018226Y5020652D01*
X10022593Y5016130D01*
X10023577Y5009898D01*
X10023584Y5008890D01*
X10016093Y4972905D01*
X9996671Y4937783D01*
X9969893Y4911615D01*
X9967812Y4910297D01*
X9925494Y4894547D01*
X9878150Y4893837D01*
X9830477Y4908035D01*
X9817936Y4914534D01*
X9778979Y4936806D01*
X9748107Y4912173D01*
X9729341Y4896125D01*
X9718391Y4884679D01*
X9717235Y4882353D01*
X9724573Y4870214D01*
X9743570Y4853594D01*
X9769701Y4835932D01*
X9798327Y4820720D01*
X9843019Y4807530D01*
X9895497Y4802624D01*
X9947393Y4806298D01*
X9979241Y4814261D01*
X10032660Y4842337D01*
X10073937Y4883420D01*
X10101784Y4936130D01*
X10106332Y4950375D01*
X10114188Y4994005D01*
X10117129Y5046978D01*
X10115336Y5102315D01*
X10112862Y5122097D01*
X10023584Y5122097D01*
X10021101Y5116266D01*
X10011822Y5112307D01*
X9993001Y5109883D01*
X9961895Y5108657D01*
X9915758Y5108294D01*
X9910956Y5108292D01*
X9864299Y5108390D01*
X9832719Y5109054D01*
X9813275Y5110837D01*
X9803024Y5114292D01*
X9799022Y5119975D01*
X9798328Y5128437D01*
X9798327Y5129485D01*
X9804946Y5155296D01*
X9821714Y5184546D01*
X9844000Y5210368D01*
X9861669Y5223415D01*
X9890784Y5231149D01*
X9926316Y5230485D01*
X9959935Y5222316D01*
X9980142Y5210724D01*
X9998195Y5188328D01*
X10013814Y5158693D01*
X10022790Y5130411D01*
X10023584Y5122097D01*
X10112862Y5122097D01*
X10108991Y5153039D01*
X10100158Y5187306D01*
X10072238Y5240620D01*
X10033001Y5281879D01*
X9985221Y5309886D01*
X9931673Y5323447D01*
X9875130Y5321364D01*
G36*
X10835835Y5308069D02*
G01*
X10784787Y5277225D01*
X10760334Y5253940D01*
X10742377Y5232651D01*
X10729597Y5212481D01*
X10721134Y5189791D01*
X10716126Y5160943D01*
X10713709Y5122297D01*
X10713023Y5070216D01*
X10713022Y5054230D01*
X10713819Y4999428D01*
X10716802Y4958644D01*
X10723109Y4927907D01*
X10733878Y4903246D01*
X10750249Y4880690D01*
X10768349Y4861285D01*
X10812876Y4828532D01*
X10866740Y4808603D01*
X10925800Y4802361D01*
X10985916Y4810666D01*
X10996603Y4813795D01*
X11020907Y4825992D01*
X11049062Y4846377D01*
X11065175Y4860938D01*
X11092444Y4895249D01*
X11110984Y4936419D01*
X11121724Y4987629D01*
X11125597Y5052062D01*
X11125615Y5063241D01*
X11032636Y5063241D01*
X11027471Y5001636D01*
X11011943Y4954740D01*
X10986003Y4922484D01*
X10949604Y4904802D01*
X10916916Y4901056D01*
X10885733Y4904135D01*
X10860018Y4911959D01*
X10854484Y4915118D01*
X10831283Y4937464D01*
X10816043Y4968007D01*
X10807736Y5009838D01*
X10805334Y5063241D01*
X10809190Y5123650D01*
X10821349Y5168850D01*
X10842693Y5200053D01*
X10874106Y5218472D01*
X10916473Y5225321D01*
X10923474Y5225426D01*
X10964206Y5217629D01*
X10995855Y5194657D01*
X11017999Y5157136D01*
X11030215Y5105696D01*
X11032636Y5063241D01*
X11125615Y5063241D01*
X11125623Y5067746D01*
X11121125Y5139981D01*
X11108043Y5197832D01*
X11085436Y5243235D01*
X11052362Y5278127D01*
X11011265Y5302895D01*
X10951852Y5321446D01*
X10892449Y5322991D01*
X10835835Y5308069D01*
X10835835Y5308069D01*
G37*
X10835835Y5308069D02*
X10784787Y5277225D01*
X10760334Y5253940D01*
X10742377Y5232651D01*
X10729597Y5212481D01*
X10721134Y5189791D01*
X10716126Y5160943D01*
X10713709Y5122297D01*
X10713023Y5070216D01*
X10713022Y5054230D01*
X10713819Y4999428D01*
X10716802Y4958644D01*
X10723109Y4927907D01*
X10733878Y4903246D01*
X10750249Y4880690D01*
X10768349Y4861285D01*
X10812876Y4828532D01*
X10866740Y4808603D01*
X10925800Y4802361D01*
X10985916Y4810666D01*
X10996603Y4813795D01*
X11020907Y4825992D01*
X11049062Y4846377D01*
X11065175Y4860938D01*
X11092444Y4895249D01*
X11110984Y4936419D01*
X11121724Y4987629D01*
X11125597Y5052062D01*
X11125615Y5063241D01*
X11032636Y5063241D01*
X11027471Y5001636D01*
X11011943Y4954740D01*
X10986003Y4922484D01*
X10949604Y4904802D01*
X10916916Y4901056D01*
X10885733Y4904135D01*
X10860018Y4911959D01*
X10854484Y4915118D01*
X10831283Y4937464D01*
X10816043Y4968007D01*
X10807736Y5009838D01*
X10805334Y5063241D01*
X10809190Y5123650D01*
X10821349Y5168850D01*
X10842693Y5200053D01*
X10874106Y5218472D01*
X10916473Y5225321D01*
X10923474Y5225426D01*
X10964206Y5217629D01*
X10995855Y5194657D01*
X11017999Y5157136D01*
X11030215Y5105696D01*
X11032636Y5063241D01*
X11125615Y5063241D01*
X11125623Y5067746D01*
X11121125Y5139981D01*
X11108043Y5197832D01*
X11085436Y5243235D01*
X11052362Y5278127D01*
X11011265Y5302895D01*
X10951852Y5321446D01*
X10892449Y5322991D01*
X10835835Y5308069D01*
G36*
X7201727Y4497235D02*
G01*
X7156796Y4479742D01*
X7132753Y4465545D01*
X7169080Y4422464D01*
X7189261Y4399199D01*
X7202291Y4387725D01*
X7212455Y4385908D01*
X7224044Y4391615D01*
X7227101Y4393597D01*
X7256679Y4403445D01*
X7292036Y4401885D01*
X7325956Y4389992D01*
X7345027Y4376046D01*
X7357818Y4360387D01*
X7367504Y4340678D01*
X7374483Y4314388D01*
X7379154Y4278989D01*
X7381917Y4231952D01*
X7383169Y4170746D01*
X7383355Y4132929D01*
X7383570Y3982006D01*
X7473673Y3982006D01*
X7473673Y4495593D01*
X7428621Y4495593D01*
X7401952Y4495002D01*
X7388653Y4491371D01*
X7384076Y4481910D01*
X7383570Y4468562D01*
X7382294Y4449121D01*
X7376412Y4443192D01*
X7362842Y4450385D01*
X7346167Y4463820D01*
X7302551Y4489424D01*
X7252683Y4500708D01*
X7201727Y4497235D01*
X7201727Y4497235D01*
G37*
X7201727Y4497235D02*
X7156796Y4479742D01*
X7132753Y4465545D01*
X7169080Y4422464D01*
X7189261Y4399199D01*
X7202291Y4387725D01*
X7212455Y4385908D01*
X7224044Y4391615D01*
X7227101Y4393597D01*
X7256679Y4403445D01*
X7292036Y4401885D01*
X7325956Y4389992D01*
X7345027Y4376046D01*
X7357818Y4360387D01*
X7367504Y4340678D01*
X7374483Y4314388D01*
X7379154Y4278989D01*
X7381917Y4231952D01*
X7383169Y4170746D01*
X7383355Y4132929D01*
X7383570Y3982006D01*
X7473673Y3982006D01*
X7473673Y4495593D01*
X7428621Y4495593D01*
X7401952Y4495002D01*
X7388653Y4491371D01*
X7384076Y4481910D01*
X7383570Y4468562D01*
X7382294Y4449121D01*
X7376412Y4443192D01*
X7362842Y4450385D01*
X7346167Y4463820D01*
X7302551Y4489424D01*
X7252683Y4500708D01*
X7201727Y4497235D01*
G36*
X8641176Y4448289D02*
G01*
X8633610Y4421281D01*
X8622681Y4382019D01*
X8609811Y4335623D01*
X8596421Y4287212D01*
X8595493Y4283851D01*
X8580429Y4229302D01*
X8569413Y4189843D01*
X8561660Y4163201D01*
X8556386Y4147107D01*
X8552806Y4139290D01*
X8550135Y4137478D01*
X8547587Y4139400D01*
X8546133Y4141032D01*
X8541370Y4151611D01*
X8532143Y4176666D01*
X8519388Y4213484D01*
X8504042Y4259348D01*
X8487043Y4311544D01*
X8483642Y4322145D01*
X8428135Y4495593D01*
X8357317Y4495593D01*
X8300080Y4319357D01*
X8282515Y4266423D01*
X8266348Y4219853D01*
X8252519Y4182186D01*
X8241970Y4155964D01*
X8235642Y4143727D01*
X8234801Y4143150D01*
X8229786Y4151388D01*
X8221356Y4174052D01*
X8210513Y4208095D01*
X8198258Y4250474D01*
X8192382Y4272081D01*
X8178919Y4322320D01*
X8165869Y4370597D01*
X8154510Y4412204D01*
X8146123Y4442435D01*
X8144462Y4448289D01*
X8130920Y4495593D01*
X8081616Y4495593D01*
X8054549Y4494738D01*
X8036640Y4492535D01*
X8032311Y4490423D01*
X8034944Y4480731D01*
X8042332Y4456348D01*
X8053706Y4419734D01*
X8068299Y4373352D01*
X8085342Y4319664D01*
X8096274Y4285439D01*
X8115510Y4225256D01*
X8133811Y4167838D01*
X8150148Y4116420D01*
X8163495Y4074236D01*
X8172825Y4044520D01*
X8175442Y4036068D01*
X8190647Y3986511D01*
X8235370Y3983945D01*
X8280094Y3981379D01*
X8333452Y4161898D01*
X8349597Y4215688D01*
X8364297Y4263093D01*
X8376727Y4301575D01*
X8386058Y4328596D01*
X8391467Y4341619D01*
X8392211Y4342418D01*
X8396280Y4334192D01*
X8404570Y4311206D01*
X8416248Y4275996D01*
X8430478Y4231100D01*
X8446426Y4179053D01*
X8451481Y4162220D01*
X8505351Y3982023D01*
X8548432Y3982015D01*
X8577489Y3984315D01*
X8593611Y3990638D01*
X8595400Y3993269D01*
X8601717Y4012235D01*
X8612049Y4044015D01*
X8625562Y4085980D01*
X8641421Y4135503D01*
X8658794Y4189956D01*
X8676845Y4246711D01*
X8694740Y4303139D01*
X8711646Y4356614D01*
X8726728Y4404507D01*
X8739152Y4444190D01*
X8748084Y4473035D01*
X8752689Y4488414D01*
X8753134Y4490213D01*
X8744985Y4493166D01*
X8723976Y4495120D01*
X8703829Y4495593D01*
X8654524Y4495593D01*
X8641176Y4448289D01*
X8641176Y4448289D01*
G37*
X8641176Y4448289D02*
X8633610Y4421281D01*
X8622681Y4382019D01*
X8609811Y4335623D01*
X8596421Y4287212D01*
X8595493Y4283851D01*
X8580429Y4229302D01*
X8569413Y4189843D01*
X8561660Y4163201D01*
X8556386Y4147107D01*
X8552806Y4139290D01*
X8550135Y4137478D01*
X8547587Y4139400D01*
X8546133Y4141032D01*
X8541370Y4151611D01*
X8532143Y4176666D01*
X8519388Y4213484D01*
X8504042Y4259348D01*
X8487043Y4311544D01*
X8483642Y4322145D01*
X8428135Y4495593D01*
X8357317Y4495593D01*
X8300080Y4319357D01*
X8282515Y4266423D01*
X8266348Y4219853D01*
X8252519Y4182186D01*
X8241970Y4155964D01*
X8235642Y4143727D01*
X8234801Y4143150D01*
X8229786Y4151388D01*
X8221356Y4174052D01*
X8210513Y4208095D01*
X8198258Y4250474D01*
X8192382Y4272081D01*
X8178919Y4322320D01*
X8165869Y4370597D01*
X8154510Y4412204D01*
X8146123Y4442435D01*
X8144462Y4448289D01*
X8130920Y4495593D01*
X8081616Y4495593D01*
X8054549Y4494738D01*
X8036640Y4492535D01*
X8032311Y4490423D01*
X8034944Y4480731D01*
X8042332Y4456348D01*
X8053706Y4419734D01*
X8068299Y4373352D01*
X8085342Y4319664D01*
X8096274Y4285439D01*
X8115510Y4225256D01*
X8133811Y4167838D01*
X8150148Y4116420D01*
X8163495Y4074236D01*
X8172825Y4044520D01*
X8175442Y4036068D01*
X8190647Y3986511D01*
X8235370Y3983945D01*
X8280094Y3981379D01*
X8333452Y4161898D01*
X8349597Y4215688D01*
X8364297Y4263093D01*
X8376727Y4301575D01*
X8386058Y4328596D01*
X8391467Y4341619D01*
X8392211Y4342418D01*
X8396280Y4334192D01*
X8404570Y4311206D01*
X8416248Y4275996D01*
X8430478Y4231100D01*
X8446426Y4179053D01*
X8451481Y4162220D01*
X8505351Y3982023D01*
X8548432Y3982015D01*
X8577489Y3984315D01*
X8593611Y3990638D01*
X8595400Y3993269D01*
X8601717Y4012235D01*
X8612049Y4044015D01*
X8625562Y4085980D01*
X8641421Y4135503D01*
X8658794Y4189956D01*
X8676845Y4246711D01*
X8694740Y4303139D01*
X8711646Y4356614D01*
X8726728Y4404507D01*
X8739152Y4444190D01*
X8748084Y4473035D01*
X8752689Y4488414D01*
X8753134Y4490213D01*
X8744985Y4493166D01*
X8723976Y4495120D01*
X8703829Y4495593D01*
X8654524Y4495593D01*
X8641176Y4448289D01*
G36*
X9306815Y4496521D02*
G01*
X9264541Y4480950D01*
X9239214Y4467853D01*
X9276514Y4423618D01*
X9297008Y4399954D01*
X9310241Y4388073D01*
X9320404Y4385843D01*
X9331687Y4391131D01*
X9335509Y4393597D01*
X9366957Y4404315D01*
X9403053Y4401767D01*
X9437678Y4387134D01*
X9458189Y4369863D01*
X9482967Y4342133D01*
X9482967Y3982006D01*
X9582080Y3982006D01*
X9582080Y4495593D01*
X9532523Y4495593D01*
X9504194Y4495159D01*
X9489449Y4492195D01*
X9483852Y4484211D01*
X9482967Y4468715D01*
X9482967Y4439929D01*
X9455526Y4463019D01*
X9410705Y4489524D01*
X9359759Y4500821D01*
X9306815Y4496521D01*
X9306815Y4496521D01*
G37*
X9306815Y4496521D02*
X9264541Y4480950D01*
X9239214Y4467853D01*
X9276514Y4423618D01*
X9297008Y4399954D01*
X9310241Y4388073D01*
X9320404Y4385843D01*
X9331687Y4391131D01*
X9335509Y4393597D01*
X9366957Y4404315D01*
X9403053Y4401767D01*
X9437678Y4387134D01*
X9458189Y4369863D01*
X9482967Y4342133D01*
X9482967Y3982006D01*
X9582080Y3982006D01*
X9582080Y4495593D01*
X9532523Y4495593D01*
X9504194Y4495159D01*
X9489449Y4492195D01*
X9483852Y4484211D01*
X9482967Y4468715D01*
X9482967Y4439929D01*
X9455526Y4463019D01*
X9410705Y4489524D01*
X9359759Y4500821D01*
X9306815Y4496521D01*
G36*
X10331017Y5318562D02*
G01*
X10288585Y5303076D01*
X10254656Y5281397D01*
X10235776Y5260832D01*
X10221992Y5235652D01*
X10212620Y5202934D01*
X10206974Y5159759D01*
X10204371Y5103206D01*
X10203988Y5065204D01*
X10204793Y5001965D01*
X10207857Y4953507D01*
X10213820Y4916663D01*
X10223325Y4888267D01*
X10237012Y4865152D01*
X10246932Y4853123D01*
X10279568Y4827821D01*
X10321947Y4809701D01*
X10366230Y4802013D01*
X10370480Y4801942D01*
X10401863Y4805773D01*
X10435674Y4815644D01*
X10465580Y4829125D01*
X10485250Y4843787D01*
X10487534Y4846865D01*
X10494429Y4855149D01*
X10499832Y4854158D01*
X10503906Y4842474D01*
X10506812Y4818677D01*
X10508711Y4781348D01*
X10509764Y4729068D01*
X10510133Y4660418D01*
X10510140Y4647967D01*
X10510140Y4439929D01*
X10483213Y4462586D01*
X10458524Y4477722D01*
X10425527Y4491113D01*
X10406972Y4496279D01*
X10374876Y4502117D01*
X10350776Y4501826D01*
X10325566Y4494970D01*
X10317547Y4491997D01*
X10286956Y4476994D01*
X10259362Y4458163D01*
X10252867Y4452347D01*
X10237633Y4436056D01*
X10225907Y4419425D01*
X10217234Y4399899D01*
X10211162Y4374922D01*
X10207235Y4341939D01*
X10205000Y4298395D01*
X10204003Y4241734D01*
X10203790Y4176017D01*
X10203790Y3982006D01*
X10293893Y3982006D01*
X10294108Y4132929D01*
X10294739Y4202405D01*
X10296675Y4256412D01*
X10300315Y4297481D01*
X10306057Y4328139D01*
X10314301Y4350917D01*
X10325445Y4368343D01*
X10332435Y4376046D01*
X10363838Y4395813D01*
X10402458Y4403558D01*
X10441284Y4398317D01*
X10454459Y4392812D01*
X10472351Y4382155D01*
X10485973Y4369458D01*
X10495896Y4352260D01*
X10502695Y4328103D01*
X10506940Y4294528D01*
X10509204Y4249076D01*
X10510061Y4189286D01*
X10510140Y4153649D01*
X10510140Y3982006D01*
X10609253Y3982006D01*
X10609253Y5063241D01*
X10510140Y5063241D01*
X10506811Y5004043D01*
X10496439Y4959813D01*
X10478445Y4928695D01*
X10464035Y4915749D01*
X10438638Y4905727D01*
X10404615Y4901457D01*
X10370545Y4903337D01*
X10347455Y4910333D01*
X10325866Y4928728D01*
X10311134Y4958257D01*
X10302626Y5000943D01*
X10299712Y5058808D01*
X10299701Y5063241D01*
X10302172Y5122858D01*
X10310387Y5166905D01*
X10325545Y5197248D01*
X10348847Y5215757D01*
X10381493Y5224299D01*
X10403924Y5225426D01*
X10443843Y5219905D01*
X10473651Y5202557D01*
X10494120Y5172204D01*
X10506020Y5127668D01*
X10510124Y5067771D01*
X10510140Y5063241D01*
X10609253Y5063241D01*
X10609253Y5315529D01*
X10559696Y5315529D01*
X10531314Y5314944D01*
X10516536Y5311854D01*
X10510952Y5304253D01*
X10510140Y5293003D01*
X10506154Y5274887D01*
X10496629Y5271106D01*
X10487034Y5280426D01*
X10471854Y5293246D01*
X10445225Y5306347D01*
X10413513Y5317290D01*
X10383082Y5323635D01*
X10372443Y5324341D01*
X10331017Y5318562D01*
X10331017Y5318562D01*
G37*
X10331017Y5318562D02*
X10288585Y5303076D01*
X10254656Y5281397D01*
X10235776Y5260832D01*
X10221992Y5235652D01*
X10212620Y5202934D01*
X10206974Y5159759D01*
X10204371Y5103206D01*
X10203988Y5065204D01*
X10204793Y5001965D01*
X10207857Y4953507D01*
X10213820Y4916663D01*
X10223325Y4888267D01*
X10237012Y4865152D01*
X10246932Y4853123D01*
X10279568Y4827821D01*
X10321947Y4809701D01*
X10366230Y4802013D01*
X10370480Y4801942D01*
X10401863Y4805773D01*
X10435674Y4815644D01*
X10465580Y4829125D01*
X10485250Y4843787D01*
X10487534Y4846865D01*
X10494429Y4855149D01*
X10499832Y4854158D01*
X10503906Y4842474D01*
X10506812Y4818677D01*
X10508711Y4781348D01*
X10509764Y4729068D01*
X10510133Y4660418D01*
X10510140Y4647967D01*
X10510140Y4439929D01*
X10483213Y4462586D01*
X10458524Y4477722D01*
X10425527Y4491113D01*
X10406972Y4496279D01*
X10374876Y4502117D01*
X10350776Y4501826D01*
X10325566Y4494970D01*
X10317547Y4491997D01*
X10286956Y4476994D01*
X10259362Y4458163D01*
X10252867Y4452347D01*
X10237633Y4436056D01*
X10225907Y4419425D01*
X10217234Y4399899D01*
X10211162Y4374922D01*
X10207235Y4341939D01*
X10205000Y4298395D01*
X10204003Y4241734D01*
X10203790Y4176017D01*
X10203790Y3982006D01*
X10293893Y3982006D01*
X10294108Y4132929D01*
X10294739Y4202405D01*
X10296675Y4256412D01*
X10300315Y4297481D01*
X10306057Y4328139D01*
X10314301Y4350917D01*
X10325445Y4368343D01*
X10332435Y4376046D01*
X10363838Y4395813D01*
X10402458Y4403558D01*
X10441284Y4398317D01*
X10454459Y4392812D01*
X10472351Y4382155D01*
X10485973Y4369458D01*
X10495896Y4352260D01*
X10502695Y4328103D01*
X10506940Y4294528D01*
X10509204Y4249076D01*
X10510061Y4189286D01*
X10510140Y4153649D01*
X10510140Y3982006D01*
X10609253Y3982006D01*
X10609253Y5063241D01*
X10510140Y5063241D01*
X10506811Y5004043D01*
X10496439Y4959813D01*
X10478445Y4928695D01*
X10464035Y4915749D01*
X10438638Y4905727D01*
X10404615Y4901457D01*
X10370545Y4903337D01*
X10347455Y4910333D01*
X10325866Y4928728D01*
X10311134Y4958257D01*
X10302626Y5000943D01*
X10299712Y5058808D01*
X10299701Y5063241D01*
X10302172Y5122858D01*
X10310387Y5166905D01*
X10325545Y5197248D01*
X10348847Y5215757D01*
X10381493Y5224299D01*
X10403924Y5225426D01*
X10443843Y5219905D01*
X10473651Y5202557D01*
X10494120Y5172204D01*
X10506020Y5127668D01*
X10510124Y5067771D01*
X10510140Y5063241D01*
X10609253Y5063241D01*
X10609253Y5315529D01*
X10559696Y5315529D01*
X10531314Y5314944D01*
X10516536Y5311854D01*
X10510952Y5304253D01*
X10510140Y5293003D01*
X10506154Y5274887D01*
X10496629Y5271106D01*
X10487034Y5280426D01*
X10471854Y5293246D01*
X10445225Y5306347D01*
X10413513Y5317290D01*
X10383082Y5323635D01*
X10372443Y5324341D01*
X10331017Y5318562D01*
G36*
X6876682Y4499450D02*
G01*
X6846532Y4491316D01*
X6793849Y4467011D01*
X6752663Y4428971D01*
X6723191Y4377511D01*
X6705648Y4312948D01*
X6701658Y4279117D01*
X6696117Y4207263D01*
X7025531Y4207263D01*
X7020396Y4168975D01*
X7011770Y4137403D01*
X6992660Y4110590D01*
X6982221Y4100409D01*
X6962657Y4083707D01*
X6946107Y4075067D01*
X6925640Y4072401D01*
X6894327Y4073623D01*
X6893431Y4073680D01*
X6846772Y4080482D01*
X6813423Y4094603D01*
X6810282Y4096740D01*
X6782882Y4116250D01*
X6749846Y4089019D01*
X6730389Y4071604D01*
X6718517Y4058325D01*
X6716809Y4054658D01*
X6724573Y4042910D01*
X6744887Y4027727D01*
X6773285Y4011604D01*
X6805301Y3997037D01*
X6836468Y3986521D01*
X6840608Y3985491D01*
X6871085Y3978487D01*
X6891515Y3975241D01*
X6909434Y3975566D01*
X6932378Y3979276D01*
X6950305Y3982777D01*
X7006239Y4002183D01*
X7051942Y4035882D01*
X7086779Y4082915D01*
X7110118Y4142325D01*
X7121325Y4213153D01*
X7122272Y4243074D01*
X7116314Y4305044D01*
X7023158Y4305044D01*
X7023158Y4279346D01*
X6910530Y4279346D01*
X6863594Y4279562D01*
X6831787Y4280484D01*
X6812221Y4282527D01*
X6802007Y4286104D01*
X6798256Y4291627D01*
X6797901Y4295457D01*
X6801813Y4312700D01*
X6811742Y4338180D01*
X6818174Y4351771D01*
X6844292Y4387233D01*
X6878295Y4406592D01*
X6919307Y4409492D01*
X6945746Y4403561D01*
X6979787Y4384876D01*
X7006401Y4355595D01*
X7021358Y4321102D01*
X7023158Y4305044D01*
X7116314Y4305044D01*
X7115721Y4311201D01*
X7096999Y4372200D01*
X7067505Y4423723D01*
X7028635Y4463426D01*
X6981787Y4488962D01*
X6974376Y4491361D01*
X6936959Y4501018D01*
X6907322Y4503715D01*
X6876682Y4499450D01*
X6876682Y4499450D01*
G37*
X6876682Y4499450D02*
X6846532Y4491316D01*
X6793849Y4467011D01*
X6752663Y4428971D01*
X6723191Y4377511D01*
X6705648Y4312948D01*
X6701658Y4279117D01*
X6696117Y4207263D01*
X7025531Y4207263D01*
X7020396Y4168975D01*
X7011770Y4137403D01*
X6992660Y4110590D01*
X6982221Y4100409D01*
X6962657Y4083707D01*
X6946107Y4075067D01*
X6925640Y4072401D01*
X6894327Y4073623D01*
X6893431Y4073680D01*
X6846772Y4080482D01*
X6813423Y4094603D01*
X6810282Y4096740D01*
X6782882Y4116250D01*
X6749846Y4089019D01*
X6730389Y4071604D01*
X6718517Y4058325D01*
X6716809Y4054658D01*
X6724573Y4042910D01*
X6744887Y4027727D01*
X6773285Y4011604D01*
X6805301Y3997037D01*
X6836468Y3986521D01*
X6840608Y3985491D01*
X6871085Y3978487D01*
X6891515Y3975241D01*
X6909434Y3975566D01*
X6932378Y3979276D01*
X6950305Y3982777D01*
X7006239Y4002183D01*
X7051942Y4035882D01*
X7086779Y4082915D01*
X7110118Y4142325D01*
X7121325Y4213153D01*
X7122272Y4243074D01*
X7116314Y4305044D01*
X7023158Y4305044D01*
X7023158Y4279346D01*
X6910530Y4279346D01*
X6863594Y4279562D01*
X6831787Y4280484D01*
X6812221Y4282527D01*
X6802007Y4286104D01*
X6798256Y4291627D01*
X6797901Y4295457D01*
X6801813Y4312700D01*
X6811742Y4338180D01*
X6818174Y4351771D01*
X6844292Y4387233D01*
X6878295Y4406592D01*
X6919307Y4409492D01*
X6945746Y4403561D01*
X6979787Y4384876D01*
X7006401Y4355595D01*
X7021358Y4321102D01*
X7023158Y4305044D01*
X7116314Y4305044D01*
X7115721Y4311201D01*
X7096999Y4372200D01*
X7067505Y4423723D01*
X7028635Y4463426D01*
X6981787Y4488962D01*
X6974376Y4491361D01*
X6936959Y4501018D01*
X6907322Y4503715D01*
X6876682Y4499450D01*
G36*
X7742573Y4495815D02*
G01*
X7691935Y4480334D01*
X7650015Y4456129D01*
X7626017Y4431404D01*
X7619100Y4421137D01*
X7613795Y4410578D01*
X7609849Y4397245D01*
X7607008Y4378658D01*
X7605018Y4352334D01*
X7603625Y4315791D01*
X7602576Y4266548D01*
X7601616Y4202123D01*
X7601470Y4191495D01*
X7598619Y3982006D01*
X7648774Y3982006D01*
X7677341Y3982525D01*
X7692290Y3985490D01*
X7698020Y3993015D01*
X7698930Y4006103D01*
X7698930Y4030199D01*
X7719672Y4010713D01*
X7740600Y3997739D01*
X7770831Y3986394D01*
X7788479Y3982111D01*
X7815171Y3977247D01*
X7833067Y3974361D01*
X7837567Y3973983D01*
X7846132Y3976149D01*
X7866502Y3980445D01*
X7876977Y3982540D01*
X7930696Y4000194D01*
X7970470Y4029012D01*
X7995957Y4068603D01*
X8006812Y4118582D01*
X8007194Y4129453D01*
X8005047Y4148743D01*
X7917815Y4148743D01*
X7913841Y4117200D01*
X7902176Y4096402D01*
X7882424Y4082904D01*
X7851442Y4075442D01*
X7806087Y4072753D01*
X7803129Y4072719D01*
X7767562Y4073341D01*
X7744453Y4076890D01*
X7728318Y4084616D01*
X7719784Y4091700D01*
X7706668Y4108162D01*
X7700407Y4129624D01*
X7698930Y4159277D01*
X7698930Y4207263D01*
X7768760Y4206755D01*
X7830683Y4202725D01*
X7876213Y4191684D01*
X7905281Y4173675D01*
X7917815Y4148743D01*
X8005047Y4148743D01*
X8001537Y4180270D01*
X7982742Y4219686D01*
X7949618Y4249794D01*
X7933335Y4259073D01*
X7912164Y4268480D01*
X7890196Y4274493D01*
X7862620Y4277824D01*
X7824625Y4279182D01*
X7796134Y4279346D01*
X7698930Y4279346D01*
X7698930Y4322675D01*
X7701315Y4351985D01*
X7707339Y4375672D01*
X7710727Y4382138D01*
X7731969Y4397698D01*
X7764860Y4406885D01*
X7804111Y4409481D01*
X7844435Y4405267D01*
X7880544Y4394025D01*
X7889302Y4389516D01*
X7905053Y4381970D01*
X7918017Y4382617D01*
X7935006Y4392815D01*
X7945616Y4400759D01*
X7965187Y4417192D01*
X7976835Y4429878D01*
X7978249Y4433132D01*
X7971665Y4442761D01*
X7955244Y4457614D01*
X7948965Y4462476D01*
X7905127Y4485901D01*
X7853337Y4498999D01*
X7797763Y4502170D01*
X7742573Y4495815D01*
X7742573Y4495815D01*
G37*
X7742573Y4495815D02*
X7691935Y4480334D01*
X7650015Y4456129D01*
X7626017Y4431404D01*
X7619100Y4421137D01*
X7613795Y4410578D01*
X7609849Y4397245D01*
X7607008Y4378658D01*
X7605018Y4352334D01*
X7603625Y4315791D01*
X7602576Y4266548D01*
X7601616Y4202123D01*
X7601470Y4191495D01*
X7598619Y3982006D01*
X7648774Y3982006D01*
X7677341Y3982525D01*
X7692290Y3985490D01*
X7698020Y3993015D01*
X7698930Y4006103D01*
X7698930Y4030199D01*
X7719672Y4010713D01*
X7740600Y3997739D01*
X7770831Y3986394D01*
X7788479Y3982111D01*
X7815171Y3977247D01*
X7833067Y3974361D01*
X7837567Y3973983D01*
X7846132Y3976149D01*
X7866502Y3980445D01*
X7876977Y3982540D01*
X7930696Y4000194D01*
X7970470Y4029012D01*
X7995957Y4068603D01*
X8006812Y4118582D01*
X8007194Y4129453D01*
X8005047Y4148743D01*
X7917815Y4148743D01*
X7913841Y4117200D01*
X7902176Y4096402D01*
X7882424Y4082904D01*
X7851442Y4075442D01*
X7806087Y4072753D01*
X7803129Y4072719D01*
X7767562Y4073341D01*
X7744453Y4076890D01*
X7728318Y4084616D01*
X7719784Y4091700D01*
X7706668Y4108162D01*
X7700407Y4129624D01*
X7698930Y4159277D01*
X7698930Y4207263D01*
X7768760Y4206755D01*
X7830683Y4202725D01*
X7876213Y4191684D01*
X7905281Y4173675D01*
X7917815Y4148743D01*
X8005047Y4148743D01*
X8001537Y4180270D01*
X7982742Y4219686D01*
X7949618Y4249794D01*
X7933335Y4259073D01*
X7912164Y4268480D01*
X7890196Y4274493D01*
X7862620Y4277824D01*
X7824625Y4279182D01*
X7796134Y4279346D01*
X7698930Y4279346D01*
X7698930Y4322675D01*
X7701315Y4351985D01*
X7707339Y4375672D01*
X7710727Y4382138D01*
X7731969Y4397698D01*
X7764860Y4406885D01*
X7804111Y4409481D01*
X7844435Y4405267D01*
X7880544Y4394025D01*
X7889302Y4389516D01*
X7905053Y4381970D01*
X7918017Y4382617D01*
X7935006Y4392815D01*
X7945616Y4400759D01*
X7965187Y4417192D01*
X7976835Y4429878D01*
X7978249Y4433132D01*
X7971665Y4442761D01*
X7955244Y4457614D01*
X7948965Y4462476D01*
X7905127Y4485901D01*
X7853337Y4498999D01*
X7797763Y4502170D01*
X7742573Y4495815D01*
G36*
X8825216Y3982006D02*
G01*
X8870267Y3982006D01*
X8896937Y3982597D01*
X8910236Y3986228D01*
X8914813Y3995689D01*
X8915319Y4009037D01*
X8918075Y4030157D01*
X8926919Y4034555D01*
X8942717Y4022488D01*
X8946548Y4018387D01*
X8974843Y3998326D01*
X9014114Y3984876D01*
X9058075Y3979477D01*
X9099450Y3983341D01*
X9147388Y4002987D01*
X9187065Y4036458D01*
X9209071Y4069348D01*
X9216002Y4086082D01*
X9220805Y4105821D01*
X9223843Y4132081D01*
X9225479Y4168379D01*
X9226077Y4218232D01*
X9226107Y4234294D01*
X9226034Y4239247D01*
X9131821Y4239247D01*
X9130772Y4194136D01*
X9126267Y4155085D01*
X9121378Y4135677D01*
X9101528Y4103637D01*
X9070719Y4082490D01*
X9033403Y4073789D01*
X8994031Y4079083D01*
X8978096Y4085777D01*
X8949960Y4110233D01*
X8930725Y4148952D01*
X8920803Y4200302D01*
X8920605Y4262649D01*
X8924446Y4298619D01*
X8930870Y4333656D01*
X8939950Y4357121D01*
X8954486Y4375462D01*
X8960086Y4380711D01*
X8994863Y4401140D01*
X9032901Y4406170D01*
X9069700Y4396649D01*
X9100759Y4373429D01*
X9115784Y4351303D01*
X9124172Y4323795D01*
X9129569Y4284455D01*
X9131821Y4239247D01*
X9226034Y4239247D01*
X9225115Y4300948D01*
X9222120Y4352538D01*
X9217205Y4387898D01*
X9214361Y4398282D01*
X9191212Y4438078D01*
X9154427Y4470472D01*
X9107896Y4492253D01*
X9096807Y4495285D01*
X9064504Y4501222D01*
X9038024Y4500086D01*
X9006787Y4491541D01*
X8977722Y4479521D01*
X8954012Y4465636D01*
X8946518Y4459179D01*
X8931932Y4445931D01*
X8922933Y4441531D01*
X8920241Y4450013D01*
X8917967Y4473346D01*
X8916295Y4508363D01*
X8915411Y4551897D01*
X8915319Y4572180D01*
X8915319Y4702829D01*
X8825216Y4702829D01*
X8825216Y3982006D01*
X8825216Y3982006D01*
G37*
X8825216Y3982006D02*
X8870267Y3982006D01*
X8896937Y3982597D01*
X8910236Y3986228D01*
X8914813Y3995689D01*
X8915319Y4009037D01*
X8918075Y4030157D01*
X8926919Y4034555D01*
X8942717Y4022488D01*
X8946548Y4018387D01*
X8974843Y3998326D01*
X9014114Y3984876D01*
X9058075Y3979477D01*
X9099450Y3983341D01*
X9147388Y4002987D01*
X9187065Y4036458D01*
X9209071Y4069348D01*
X9216002Y4086082D01*
X9220805Y4105821D01*
X9223843Y4132081D01*
X9225479Y4168379D01*
X9226077Y4218232D01*
X9226107Y4234294D01*
X9226034Y4239247D01*
X9131821Y4239247D01*
X9130772Y4194136D01*
X9126267Y4155085D01*
X9121378Y4135677D01*
X9101528Y4103637D01*
X9070719Y4082490D01*
X9033403Y4073789D01*
X8994031Y4079083D01*
X8978096Y4085777D01*
X8949960Y4110233D01*
X8930725Y4148952D01*
X8920803Y4200302D01*
X8920605Y4262649D01*
X8924446Y4298619D01*
X8930870Y4333656D01*
X8939950Y4357121D01*
X8954486Y4375462D01*
X8960086Y4380711D01*
X8994863Y4401140D01*
X9032901Y4406170D01*
X9069700Y4396649D01*
X9100759Y4373429D01*
X9115784Y4351303D01*
X9124172Y4323795D01*
X9129569Y4284455D01*
X9131821Y4239247D01*
X9226034Y4239247D01*
X9225115Y4300948D01*
X9222120Y4352538D01*
X9217205Y4387898D01*
X9214361Y4398282D01*
X9191212Y4438078D01*
X9154427Y4470472D01*
X9107896Y4492253D01*
X9096807Y4495285D01*
X9064504Y4501222D01*
X9038024Y4500086D01*
X9006787Y4491541D01*
X8977722Y4479521D01*
X8954012Y4465636D01*
X8946518Y4459179D01*
X8931932Y4445931D01*
X8922933Y4441531D01*
X8920241Y4450013D01*
X8917967Y4473346D01*
X8916295Y4508363D01*
X8915411Y4551897D01*
X8915319Y4572180D01*
X8915319Y4702829D01*
X8825216Y4702829D01*
X8825216Y3982006D01*
G36*
X9855331Y4497037D02*
G01*
X9802576Y4481744D01*
X9759452Y4457121D01*
X9734425Y4431404D01*
X9727507Y4421137D01*
X9722202Y4410578D01*
X9718256Y4397245D01*
X9715415Y4378658D01*
X9713425Y4352334D01*
X9712032Y4315791D01*
X9710983Y4266548D01*
X9710023Y4202123D01*
X9709878Y4191495D01*
X9707026Y3982006D01*
X9757182Y3982006D01*
X9785749Y3982525D01*
X9800697Y3985490D01*
X9806427Y3993015D01*
X9807337Y4006103D01*
X9807337Y4030199D01*
X9828079Y4010713D01*
X9849007Y3997739D01*
X9879238Y3986394D01*
X9896886Y3982111D01*
X9923578Y3977247D01*
X9941475Y3974361D01*
X9945974Y3973983D01*
X9954550Y3976129D01*
X9975102Y3980435D01*
X9987529Y3982906D01*
X10038688Y4000824D01*
X10077526Y4031326D01*
X10102835Y4072962D01*
X10113408Y4124282D01*
X10113653Y4134261D01*
X10113069Y4140133D01*
X10023584Y4140133D01*
X10017957Y4110224D01*
X10000119Y4089516D01*
X9968634Y4077148D01*
X9922068Y4072264D01*
X9909740Y4072109D01*
X9872776Y4073033D01*
X9848865Y4076504D01*
X9833104Y4083570D01*
X9825358Y4090130D01*
X9813874Y4107076D01*
X9808399Y4131739D01*
X9807337Y4158782D01*
X9807337Y4209413D01*
X9891627Y4205726D01*
X9945048Y4201628D01*
X9982782Y4194036D01*
X10007001Y4181871D01*
X10019878Y4164053D01*
X10023584Y4140133D01*
X10113069Y4140133D01*
X10108880Y4182245D01*
X10093755Y4219480D01*
X10066961Y4246878D01*
X10027184Y4265349D01*
X9973107Y4275803D01*
X9904198Y4279148D01*
X9807337Y4279346D01*
X9807337Y4328695D01*
X9808480Y4358656D01*
X9813316Y4376644D01*
X9823957Y4388638D01*
X9830008Y4392898D01*
X9857540Y4403347D01*
X9895050Y4408281D01*
X9935370Y4407698D01*
X9971329Y4401597D01*
X9991833Y4392944D01*
X10007291Y4383925D01*
X10019504Y4382800D01*
X10035132Y4390528D01*
X10051370Y4401508D01*
X10072110Y4417289D01*
X10084797Y4429658D01*
X10086656Y4433287D01*
X10078736Y4446472D01*
X10057997Y4462001D01*
X10028971Y4477350D01*
X9996188Y4489996D01*
X9974746Y4495625D01*
X9913970Y4501998D01*
X9855331Y4497037D01*
X9855331Y4497037D01*
G37*
X9855331Y4497037D02*
X9802576Y4481744D01*
X9759452Y4457121D01*
X9734425Y4431404D01*
X9727507Y4421137D01*
X9722202Y4410578D01*
X9718256Y4397245D01*
X9715415Y4378658D01*
X9713425Y4352334D01*
X9712032Y4315791D01*
X9710983Y4266548D01*
X9710023Y4202123D01*
X9709878Y4191495D01*
X9707026Y3982006D01*
X9757182Y3982006D01*
X9785749Y3982525D01*
X9800697Y3985490D01*
X9806427Y3993015D01*
X9807337Y4006103D01*
X9807337Y4030199D01*
X9828079Y4010713D01*
X9849007Y3997739D01*
X9879238Y3986394D01*
X9896886Y3982111D01*
X9923578Y3977247D01*
X9941475Y3974361D01*
X9945974Y3973983D01*
X9954550Y3976129D01*
X9975102Y3980435D01*
X9987529Y3982906D01*
X10038688Y4000824D01*
X10077526Y4031326D01*
X10102835Y4072962D01*
X10113408Y4124282D01*
X10113653Y4134261D01*
X10113069Y4140133D01*
X10023584Y4140133D01*
X10017957Y4110224D01*
X10000119Y4089516D01*
X9968634Y4077148D01*
X9922068Y4072264D01*
X9909740Y4072109D01*
X9872776Y4073033D01*
X9848865Y4076504D01*
X9833104Y4083570D01*
X9825358Y4090130D01*
X9813874Y4107076D01*
X9808399Y4131739D01*
X9807337Y4158782D01*
X9807337Y4209413D01*
X9891627Y4205726D01*
X9945048Y4201628D01*
X9982782Y4194036D01*
X10007001Y4181871D01*
X10019878Y4164053D01*
X10023584Y4140133D01*
X10113069Y4140133D01*
X10108880Y4182245D01*
X10093755Y4219480D01*
X10066961Y4246878D01*
X10027184Y4265349D01*
X9973107Y4275803D01*
X9904198Y4279148D01*
X9807337Y4279346D01*
X9807337Y4328695D01*
X9808480Y4358656D01*
X9813316Y4376644D01*
X9823957Y4388638D01*
X9830008Y4392898D01*
X9857540Y4403347D01*
X9895050Y4408281D01*
X9935370Y4407698D01*
X9971329Y4401597D01*
X9991833Y4392944D01*
X10007291Y4383925D01*
X10019504Y4382800D01*
X10035132Y4390528D01*
X10051370Y4401508D01*
X10072110Y4417289D01*
X10084797Y4429658D01*
X10086656Y4433287D01*
X10078736Y4446472D01*
X10057997Y4462001D01*
X10028971Y4477350D01*
X9996188Y4489996D01*
X9974746Y4495625D01*
X9913970Y4501998D01*
X9855331Y4497037D01*
G36*
X7280755Y2539444D02*
G01*
X7258754Y2536099D01*
X7238386Y2530788D01*
X7218034Y2523113D01*
X7202250Y2515787D01*
X7172545Y2498527D01*
X7146533Y2477914D01*
X7124177Y2453907D01*
X7105439Y2426461D01*
X7090284Y2395534D01*
X7084426Y2379895D01*
X7077229Y2356319D01*
X7072401Y2334004D01*
X7069707Y2311263D01*
X7068912Y2286407D01*
X7069215Y2270750D01*
X7072197Y2234596D01*
X7078701Y2201519D01*
X7088921Y2170865D01*
X7103052Y2141980D01*
X7111588Y2128083D01*
X7132205Y2101106D01*
X7156122Y2077657D01*
X7182924Y2057914D01*
X7212197Y2042059D01*
X7243526Y2030272D01*
X7276496Y2022733D01*
X7310691Y2019624D01*
X7345698Y2021125D01*
X7354750Y2022273D01*
X7385767Y2029151D01*
X7415105Y2040422D01*
X7442257Y2055752D01*
X7466719Y2074806D01*
X7487985Y2097249D01*
X7504871Y2121584D01*
X7512323Y2136084D01*
X7519570Y2153344D01*
X7525895Y2171409D01*
X7530585Y2188319D01*
X7532201Y2196375D01*
X7533940Y2207000D01*
X7414077Y2207000D01*
X7412402Y2193596D01*
X7409148Y2179639D01*
X7403243Y2164956D01*
X7395624Y2151539D01*
X7388298Y2142411D01*
X7373287Y2130885D01*
X7354720Y2122850D01*
X7332629Y2118317D01*
X7307045Y2117295D01*
X7302988Y2117441D01*
X7283339Y2119586D01*
X7266866Y2124447D01*
X7252225Y2132597D01*
X7238074Y2144607D01*
X7237183Y2145492D01*
X7225045Y2160276D01*
X7214142Y2178682D01*
X7205168Y2199361D01*
X7199238Y2219135D01*
X7196984Y2232511D01*
X7195446Y2249487D01*
X7194623Y2268715D01*
X7194515Y2288846D01*
X7195121Y2308534D01*
X7196439Y2326429D01*
X7198471Y2341183D01*
X7199298Y2345134D01*
X7207219Y2370371D01*
X7218239Y2392038D01*
X7232219Y2409940D01*
X7249017Y2423881D01*
X7260439Y2430286D01*
X7267574Y2433559D01*
X7273500Y2435781D01*
X7279463Y2437154D01*
X7286710Y2437876D01*
X7296486Y2438145D01*
X7309750Y2438162D01*
X7323954Y2438009D01*
X7334431Y2437530D01*
X7342452Y2436565D01*
X7349290Y2434952D01*
X7356214Y2432530D01*
X7357187Y2432147D01*
X7374190Y2422829D01*
X7389057Y2409631D01*
X7401041Y2393478D01*
X7409395Y2375296D01*
X7412340Y2363875D01*
X7414057Y2354500D01*
X7379767Y2354500D01*
X7427884Y2306384D01*
X7476000Y2258267D01*
X7572234Y2354501D01*
X7550415Y2354500D01*
X7539909Y2354582D01*
X7533374Y2354996D01*
X7529783Y2355993D01*
X7528107Y2357825D01*
X7527441Y2360125D01*
X7521270Y2386832D01*
X7514435Y2409530D01*
X7506575Y2429202D01*
X7497329Y2446829D01*
X7492980Y2453805D01*
X7474058Y2478505D01*
X7452202Y2499174D01*
X7427477Y2515781D01*
X7399948Y2528296D01*
X7369680Y2536689D01*
X7336738Y2540929D01*
X7306000Y2541218D01*
X7280755Y2539444D01*
X7280755Y2539444D01*
G37*
X7280755Y2539444D02*
X7258754Y2536099D01*
X7238386Y2530788D01*
X7218034Y2523113D01*
X7202250Y2515787D01*
X7172545Y2498527D01*
X7146533Y2477914D01*
X7124177Y2453907D01*
X7105439Y2426461D01*
X7090284Y2395534D01*
X7084426Y2379895D01*
X7077229Y2356319D01*
X7072401Y2334004D01*
X7069707Y2311263D01*
X7068912Y2286407D01*
X7069215Y2270750D01*
X7072197Y2234596D01*
X7078701Y2201519D01*
X7088921Y2170865D01*
X7103052Y2141980D01*
X7111588Y2128083D01*
X7132205Y2101106D01*
X7156122Y2077657D01*
X7182924Y2057914D01*
X7212197Y2042059D01*
X7243526Y2030272D01*
X7276496Y2022733D01*
X7310691Y2019624D01*
X7345698Y2021125D01*
X7354750Y2022273D01*
X7385767Y2029151D01*
X7415105Y2040422D01*
X7442257Y2055752D01*
X7466719Y2074806D01*
X7487985Y2097249D01*
X7504871Y2121584D01*
X7512323Y2136084D01*
X7519570Y2153344D01*
X7525895Y2171409D01*
X7530585Y2188319D01*
X7532201Y2196375D01*
X7533940Y2207000D01*
X7414077Y2207000D01*
X7412402Y2193596D01*
X7409148Y2179639D01*
X7403243Y2164956D01*
X7395624Y2151539D01*
X7388298Y2142411D01*
X7373287Y2130885D01*
X7354720Y2122850D01*
X7332629Y2118317D01*
X7307045Y2117295D01*
X7302988Y2117441D01*
X7283339Y2119586D01*
X7266866Y2124447D01*
X7252225Y2132597D01*
X7238074Y2144607D01*
X7237183Y2145492D01*
X7225045Y2160276D01*
X7214142Y2178682D01*
X7205168Y2199361D01*
X7199238Y2219135D01*
X7196984Y2232511D01*
X7195446Y2249487D01*
X7194623Y2268715D01*
X7194515Y2288846D01*
X7195121Y2308534D01*
X7196439Y2326429D01*
X7198471Y2341183D01*
X7199298Y2345134D01*
X7207219Y2370371D01*
X7218239Y2392038D01*
X7232219Y2409940D01*
X7249017Y2423881D01*
X7260439Y2430286D01*
X7267574Y2433559D01*
X7273500Y2435781D01*
X7279463Y2437154D01*
X7286710Y2437876D01*
X7296486Y2438145D01*
X7309750Y2438162D01*
X7323954Y2438009D01*
X7334431Y2437530D01*
X7342452Y2436565D01*
X7349290Y2434952D01*
X7356214Y2432530D01*
X7357187Y2432147D01*
X7374190Y2422829D01*
X7389057Y2409631D01*
X7401041Y2393478D01*
X7409395Y2375296D01*
X7412340Y2363875D01*
X7414057Y2354500D01*
X7379767Y2354500D01*
X7427884Y2306384D01*
X7476000Y2258267D01*
X7572234Y2354501D01*
X7550415Y2354500D01*
X7539909Y2354582D01*
X7533374Y2354996D01*
X7529783Y2355993D01*
X7528107Y2357825D01*
X7527441Y2360125D01*
X7521270Y2386832D01*
X7514435Y2409530D01*
X7506575Y2429202D01*
X7497329Y2446829D01*
X7492980Y2453805D01*
X7474058Y2478505D01*
X7452202Y2499174D01*
X7427477Y2515781D01*
X7399948Y2528296D01*
X7369680Y2536689D01*
X7336738Y2540929D01*
X7306000Y2541218D01*
X7280755Y2539444D01*
G36*
X8476994Y2597206D02*
G01*
X8461535Y2591340D01*
X8447549Y2581248D01*
X8446152Y2579890D01*
X8434856Y2565292D01*
X8428126Y2548831D01*
X8426041Y2530849D01*
X8428680Y2511683D01*
X8429679Y2508079D01*
X8433562Y2498539D01*
X8438929Y2489271D01*
X8440980Y2486534D01*
X8451986Y2476725D01*
X8466147Y2469212D01*
X8481951Y2464492D01*
X8497888Y2463062D01*
X8508500Y2464326D01*
X8526216Y2470605D01*
X8540617Y2480432D01*
X8551387Y2493415D01*
X8558213Y2509163D01*
X8560778Y2527281D01*
X8560786Y2529500D01*
X8560238Y2539449D01*
X8558987Y2548576D01*
X8557685Y2553711D01*
X8549511Y2569426D01*
X8538203Y2581996D01*
X8524530Y2591238D01*
X8509259Y2596975D01*
X8493158Y2599024D01*
X8476994Y2597206D01*
X8476994Y2597206D01*
G37*
X8476994Y2597206D02*
X8461535Y2591340D01*
X8447549Y2581248D01*
X8446152Y2579890D01*
X8434856Y2565292D01*
X8428126Y2548831D01*
X8426041Y2530849D01*
X8428680Y2511683D01*
X8429679Y2508079D01*
X8433562Y2498539D01*
X8438929Y2489271D01*
X8440980Y2486534D01*
X8451986Y2476725D01*
X8466147Y2469212D01*
X8481951Y2464492D01*
X8497888Y2463062D01*
X8508500Y2464326D01*
X8526216Y2470605D01*
X8540617Y2480432D01*
X8551387Y2493415D01*
X8558213Y2509163D01*
X8560778Y2527281D01*
X8560786Y2529500D01*
X8560238Y2539449D01*
X8558987Y2548576D01*
X8557685Y2553711D01*
X8549511Y2569426D01*
X8538203Y2581996D01*
X8524530Y2591238D01*
X8509259Y2596975D01*
X8493158Y2599024D01*
X8476994Y2597206D01*
G36*
X8474576Y2439480D02*
G01*
X8451458Y2439431D01*
X8432450Y2439271D01*
X8417109Y2438934D01*
X8404990Y2438355D01*
X8395648Y2437469D01*
X8388640Y2436212D01*
X8383521Y2434517D01*
X8379846Y2432321D01*
X8377171Y2429559D01*
X8375051Y2426165D01*
X8373042Y2422074D01*
X8372291Y2420482D01*
X8371087Y2417658D01*
X8370135Y2414451D01*
X8369417Y2410320D01*
X8368920Y2404728D01*
X8368626Y2397136D01*
X8368521Y2387006D01*
X8368589Y2373797D01*
X8368815Y2356973D01*
X8369182Y2335994D01*
X8369447Y2322062D01*
X8369893Y2300852D01*
X8370382Y2280704D01*
X8370895Y2262297D01*
X8371408Y2246306D01*
X8371902Y2233411D01*
X8372355Y2224288D01*
X8372676Y2220125D01*
X8374189Y2207000D01*
X8431000Y2207000D01*
X8431000Y1974500D01*
X8578500Y1974500D01*
X8578500Y2207000D01*
X8636000Y2207000D01*
X8636000Y2310875D01*
X8635992Y2337703D01*
X8635928Y2359994D01*
X8635750Y2378211D01*
X8635398Y2392817D01*
X8634814Y2404274D01*
X8633938Y2413046D01*
X8632712Y2419595D01*
X8631078Y2424384D01*
X8628975Y2427877D01*
X8626345Y2430536D01*
X8623129Y2432824D01*
X8620254Y2434602D01*
X8618128Y2435772D01*
X8615632Y2436739D01*
X8612299Y2437522D01*
X8607660Y2438140D01*
X8601247Y2438613D01*
X8592594Y2438960D01*
X8581233Y2439200D01*
X8566696Y2439353D01*
X8548515Y2439438D01*
X8526222Y2439475D01*
X8502250Y2439482D01*
X8474576Y2439480D01*
X8474576Y2439480D01*
G37*
X8474576Y2439480D02*
X8451458Y2439431D01*
X8432450Y2439271D01*
X8417109Y2438934D01*
X8404990Y2438355D01*
X8395648Y2437469D01*
X8388640Y2436212D01*
X8383521Y2434517D01*
X8379846Y2432321D01*
X8377171Y2429559D01*
X8375051Y2426165D01*
X8373042Y2422074D01*
X8372291Y2420482D01*
X8371087Y2417658D01*
X8370135Y2414451D01*
X8369417Y2410320D01*
X8368920Y2404728D01*
X8368626Y2397136D01*
X8368521Y2387006D01*
X8368589Y2373797D01*
X8368815Y2356973D01*
X8369182Y2335994D01*
X8369447Y2322062D01*
X8369893Y2300852D01*
X8370382Y2280704D01*
X8370895Y2262297D01*
X8371408Y2246306D01*
X8371902Y2233411D01*
X8372355Y2224288D01*
X8372676Y2220125D01*
X8374189Y2207000D01*
X8431000Y2207000D01*
X8431000Y1974500D01*
X8578500Y1974500D01*
X8578500Y2207000D01*
X8636000Y2207000D01*
X8636000Y2310875D01*
X8635992Y2337703D01*
X8635928Y2359994D01*
X8635750Y2378211D01*
X8635398Y2392817D01*
X8634814Y2404274D01*
X8633938Y2413046D01*
X8632712Y2419595D01*
X8631078Y2424384D01*
X8628975Y2427877D01*
X8626345Y2430536D01*
X8623129Y2432824D01*
X8620254Y2434602D01*
X8618128Y2435772D01*
X8615632Y2436739D01*
X8612299Y2437522D01*
X8607660Y2438140D01*
X8601247Y2438613D01*
X8592594Y2438960D01*
X8581233Y2439200D01*
X8566696Y2439353D01*
X8548515Y2439438D01*
X8526222Y2439475D01*
X8502250Y2439482D01*
X8474576Y2439480D01*
G36*
X10040504Y2283941D02*
G01*
X10013397Y2278465D01*
X9988278Y2269927D01*
X9969061Y2260198D01*
X9958259Y2252863D01*
X9947471Y2244149D01*
X9937137Y2234597D01*
X9927696Y2224749D01*
X9919586Y2215147D01*
X9913247Y2206332D01*
X9909118Y2198848D01*
X9907638Y2193235D01*
X9909246Y2190035D01*
X9911773Y2189499D01*
X9914973Y2188451D01*
X9921780Y2185569D01*
X9931322Y2181241D01*
X9942727Y2175859D01*
X9948127Y2173249D01*
X9959852Y2167559D01*
X9969854Y2162739D01*
X9977335Y2159171D01*
X9981498Y2157237D01*
X9982081Y2157000D01*
X9983629Y2158915D01*
X9987056Y2163881D01*
X9990697Y2169407D01*
X10003692Y2185579D01*
X10018793Y2197221D01*
X10036033Y2204350D01*
X10055444Y2206983D01*
X10057251Y2207000D01*
X10077428Y2204897D01*
X10094894Y2198621D01*
X10109614Y2188223D01*
X10121551Y2173752D01*
X10130672Y2155261D01*
X10136942Y2132799D01*
X10140324Y2106417D01*
X10140957Y2086481D01*
X10139461Y2057782D01*
X10135082Y2032987D01*
X10127843Y2012151D01*
X10117767Y1995329D01*
X10104877Y1982575D01*
X10095589Y1976790D01*
X10082319Y1972112D01*
X10066318Y1969643D01*
X10049301Y1969386D01*
X10032984Y1971344D01*
X10019082Y1975520D01*
X10016706Y1976640D01*
X10005802Y1984175D01*
X9995092Y1995012D01*
X9986012Y2007612D01*
X9983301Y2012513D01*
X9980000Y2018945D01*
X9977711Y2023199D01*
X9977183Y2024052D01*
X9974986Y2023082D01*
X9969287Y2020105D01*
X9960930Y2015592D01*
X9950757Y2010010D01*
X9939612Y2003831D01*
X9928338Y1997523D01*
X9917776Y1991556D01*
X9908770Y1986400D01*
X9902163Y1982524D01*
X9898797Y1980398D01*
X9898705Y1980327D01*
X9898959Y1977425D01*
X9902367Y1971177D01*
X9908710Y1961926D01*
X9917619Y1950213D01*
X9938649Y1927254D01*
X9962211Y1908431D01*
X9988021Y1893938D01*
X10013541Y1884584D01*
X10027429Y1881652D01*
X10044508Y1879498D01*
X10063013Y1878221D01*
X10081182Y1877921D01*
X10097252Y1878695D01*
X10104004Y1879524D01*
X10130058Y1885051D01*
X10152721Y1893096D01*
X10173234Y1904285D01*
X10192836Y1919246D01*
X10205005Y1930621D01*
X10221090Y1948267D01*
X10233826Y1966245D01*
X10243678Y1985550D01*
X10251105Y2007182D01*
X10256572Y2032138D01*
X10258787Y2046719D01*
X10260734Y2072617D01*
X10260051Y2099793D01*
X10256924Y2126993D01*
X10251539Y2152963D01*
X10244085Y2176448D01*
X10237197Y2191772D01*
X10222799Y2214053D01*
X10204368Y2234347D01*
X10182677Y2252063D01*
X10158495Y2266605D01*
X10132592Y2277380D01*
X10122106Y2280455D01*
X10096023Y2285090D01*
X10068434Y2286200D01*
X10040504Y2283941D01*
X10040504Y2283941D01*
G37*
X10040504Y2283941D02*
X10013397Y2278465D01*
X9988278Y2269927D01*
X9969061Y2260198D01*
X9958259Y2252863D01*
X9947471Y2244149D01*
X9937137Y2234597D01*
X9927696Y2224749D01*
X9919586Y2215147D01*
X9913247Y2206332D01*
X9909118Y2198848D01*
X9907638Y2193235D01*
X9909246Y2190035D01*
X9911773Y2189499D01*
X9914973Y2188451D01*
X9921780Y2185569D01*
X9931322Y2181241D01*
X9942727Y2175859D01*
X9948127Y2173249D01*
X9959852Y2167559D01*
X9969854Y2162739D01*
X9977335Y2159171D01*
X9981498Y2157237D01*
X9982081Y2157000D01*
X9983629Y2158915D01*
X9987056Y2163881D01*
X9990697Y2169407D01*
X10003692Y2185579D01*
X10018793Y2197221D01*
X10036033Y2204350D01*
X10055444Y2206983D01*
X10057251Y2207000D01*
X10077428Y2204897D01*
X10094894Y2198621D01*
X10109614Y2188223D01*
X10121551Y2173752D01*
X10130672Y2155261D01*
X10136942Y2132799D01*
X10140324Y2106417D01*
X10140957Y2086481D01*
X10139461Y2057782D01*
X10135082Y2032987D01*
X10127843Y2012151D01*
X10117767Y1995329D01*
X10104877Y1982575D01*
X10095589Y1976790D01*
X10082319Y1972112D01*
X10066318Y1969643D01*
X10049301Y1969386D01*
X10032984Y1971344D01*
X10019082Y1975520D01*
X10016706Y1976640D01*
X10005802Y1984175D01*
X9995092Y1995012D01*
X9986012Y2007612D01*
X9983301Y2012513D01*
X9980000Y2018945D01*
X9977711Y2023199D01*
X9977183Y2024052D01*
X9974986Y2023082D01*
X9969287Y2020105D01*
X9960930Y2015592D01*
X9950757Y2010010D01*
X9939612Y2003831D01*
X9928338Y1997523D01*
X9917776Y1991556D01*
X9908770Y1986400D01*
X9902163Y1982524D01*
X9898797Y1980398D01*
X9898705Y1980327D01*
X9898959Y1977425D01*
X9902367Y1971177D01*
X9908710Y1961926D01*
X9917619Y1950213D01*
X9938649Y1927254D01*
X9962211Y1908431D01*
X9988021Y1893938D01*
X10013541Y1884584D01*
X10027429Y1881652D01*
X10044508Y1879498D01*
X10063013Y1878221D01*
X10081182Y1877921D01*
X10097252Y1878695D01*
X10104004Y1879524D01*
X10130058Y1885051D01*
X10152721Y1893096D01*
X10173234Y1904285D01*
X10192836Y1919246D01*
X10205005Y1930621D01*
X10221090Y1948267D01*
X10233826Y1966245D01*
X10243678Y1985550D01*
X10251105Y2007182D01*
X10256572Y2032138D01*
X10258787Y2046719D01*
X10260734Y2072617D01*
X10260051Y2099793D01*
X10256924Y2126993D01*
X10251539Y2152963D01*
X10244085Y2176448D01*
X10237197Y2191772D01*
X10222799Y2214053D01*
X10204368Y2234347D01*
X10182677Y2252063D01*
X10158495Y2266605D01*
X10132592Y2277380D01*
X10122106Y2280455D01*
X10096023Y2285090D01*
X10068434Y2286200D01*
X10040504Y2283941D01*
G36*
X10416345Y2285196D02*
G01*
X10387675Y2279880D01*
X10360526Y2270720D01*
X10335521Y2257924D01*
X10313284Y2241700D01*
X10295256Y2223261D01*
X10288488Y2214768D01*
X10282483Y2206772D01*
X10278380Y2200800D01*
X10277954Y2200095D01*
X10273658Y2192745D01*
X10284204Y2189636D01*
X10290437Y2187386D01*
X10299938Y2183455D01*
X10311487Y2178368D01*
X10323867Y2172650D01*
X10325734Y2171764D01*
X10337019Y2166402D01*
X10346535Y2161910D01*
X10353451Y2158678D01*
X10356936Y2157095D01*
X10357188Y2157000D01*
X10358678Y2158913D01*
X10362064Y2163876D01*
X10365697Y2169407D01*
X10378692Y2185579D01*
X10393793Y2197221D01*
X10411033Y2204350D01*
X10430444Y2206983D01*
X10432251Y2207000D01*
X10452428Y2204897D01*
X10469894Y2198621D01*
X10484614Y2188223D01*
X10496551Y2173752D01*
X10505672Y2155261D01*
X10511942Y2132799D01*
X10515324Y2106417D01*
X10515957Y2086481D01*
X10514461Y2057782D01*
X10510082Y2032987D01*
X10502843Y2012151D01*
X10492767Y1995329D01*
X10479877Y1982575D01*
X10470589Y1976790D01*
X10457319Y1972112D01*
X10441318Y1969643D01*
X10424301Y1969386D01*
X10407984Y1971344D01*
X10394082Y1975520D01*
X10391706Y1976640D01*
X10380802Y1984175D01*
X10370092Y1995012D01*
X10361012Y2007612D01*
X10358301Y2012513D01*
X10355000Y2018945D01*
X10352711Y2023199D01*
X10352183Y2024052D01*
X10349986Y2023082D01*
X10344287Y2020105D01*
X10335930Y2015592D01*
X10325757Y2010010D01*
X10314612Y2003831D01*
X10303338Y1997523D01*
X10292776Y1991556D01*
X10283770Y1986400D01*
X10277163Y1982524D01*
X10273797Y1980398D01*
X10273705Y1980327D01*
X10273959Y1977425D01*
X10277367Y1971177D01*
X10283710Y1961926D01*
X10292619Y1950213D01*
X10313649Y1927254D01*
X10337211Y1908431D01*
X10363021Y1893938D01*
X10388541Y1884584D01*
X10402429Y1881652D01*
X10419508Y1879498D01*
X10438013Y1878221D01*
X10456182Y1877921D01*
X10472252Y1878695D01*
X10479004Y1879524D01*
X10505058Y1885051D01*
X10527721Y1893096D01*
X10548234Y1904285D01*
X10567836Y1919246D01*
X10580005Y1930621D01*
X10590828Y1941741D01*
X10598847Y1951017D01*
X10605095Y1959815D01*
X10610602Y1969502D01*
X10613106Y1974500D01*
X10624507Y2002827D01*
X10631891Y2032938D01*
X10635353Y2065363D01*
X10635192Y2097000D01*
X10632336Y2126738D01*
X10626837Y2152802D01*
X10618393Y2175937D01*
X10606706Y2196887D01*
X10591476Y2216394D01*
X10583722Y2224565D01*
X10562490Y2243998D01*
X10541627Y2259144D01*
X10520161Y2270535D01*
X10497119Y2278700D01*
X10475760Y2283468D01*
X10445915Y2286461D01*
X10416345Y2285196D01*
X10416345Y2285196D01*
G37*
X10416345Y2285196D02*
X10387675Y2279880D01*
X10360526Y2270720D01*
X10335521Y2257924D01*
X10313284Y2241700D01*
X10295256Y2223261D01*
X10288488Y2214768D01*
X10282483Y2206772D01*
X10278380Y2200800D01*
X10277954Y2200095D01*
X10273658Y2192745D01*
X10284204Y2189636D01*
X10290437Y2187386D01*
X10299938Y2183455D01*
X10311487Y2178368D01*
X10323867Y2172650D01*
X10325734Y2171764D01*
X10337019Y2166402D01*
X10346535Y2161910D01*
X10353451Y2158678D01*
X10356936Y2157095D01*
X10357188Y2157000D01*
X10358678Y2158913D01*
X10362064Y2163876D01*
X10365697Y2169407D01*
X10378692Y2185579D01*
X10393793Y2197221D01*
X10411033Y2204350D01*
X10430444Y2206983D01*
X10432251Y2207000D01*
X10452428Y2204897D01*
X10469894Y2198621D01*
X10484614Y2188223D01*
X10496551Y2173752D01*
X10505672Y2155261D01*
X10511942Y2132799D01*
X10515324Y2106417D01*
X10515957Y2086481D01*
X10514461Y2057782D01*
X10510082Y2032987D01*
X10502843Y2012151D01*
X10492767Y1995329D01*
X10479877Y1982575D01*
X10470589Y1976790D01*
X10457319Y1972112D01*
X10441318Y1969643D01*
X10424301Y1969386D01*
X10407984Y1971344D01*
X10394082Y1975520D01*
X10391706Y1976640D01*
X10380802Y1984175D01*
X10370092Y1995012D01*
X10361012Y2007612D01*
X10358301Y2012513D01*
X10355000Y2018945D01*
X10352711Y2023199D01*
X10352183Y2024052D01*
X10349986Y2023082D01*
X10344287Y2020105D01*
X10335930Y2015592D01*
X10325757Y2010010D01*
X10314612Y2003831D01*
X10303338Y1997523D01*
X10292776Y1991556D01*
X10283770Y1986400D01*
X10277163Y1982524D01*
X10273797Y1980398D01*
X10273705Y1980327D01*
X10273959Y1977425D01*
X10277367Y1971177D01*
X10283710Y1961926D01*
X10292619Y1950213D01*
X10313649Y1927254D01*
X10337211Y1908431D01*
X10363021Y1893938D01*
X10388541Y1884584D01*
X10402429Y1881652D01*
X10419508Y1879498D01*
X10438013Y1878221D01*
X10456182Y1877921D01*
X10472252Y1878695D01*
X10479004Y1879524D01*
X10505058Y1885051D01*
X10527721Y1893096D01*
X10548234Y1904285D01*
X10567836Y1919246D01*
X10580005Y1930621D01*
X10590828Y1941741D01*
X10598847Y1951017D01*
X10605095Y1959815D01*
X10610602Y1969502D01*
X10613106Y1974500D01*
X10624507Y2002827D01*
X10631891Y2032938D01*
X10635353Y2065363D01*
X10635192Y2097000D01*
X10632336Y2126738D01*
X10626837Y2152802D01*
X10618393Y2175937D01*
X10606706Y2196887D01*
X10591476Y2216394D01*
X10583722Y2224565D01*
X10562490Y2243998D01*
X10541627Y2259144D01*
X10520161Y2270535D01*
X10497119Y2278700D01*
X10475760Y2283468D01*
X10445915Y2286461D01*
X10416345Y2285196D01*
G36*
X7293500Y2768733D02*
G01*
X7245009Y2765280D01*
X7199587Y2758045D01*
X7156854Y2746865D01*
X7116427Y2731574D01*
X7077923Y2712007D01*
X7040959Y2688000D01*
X7005154Y2659386D01*
X6975739Y2631719D01*
X6941517Y2594558D01*
X6912142Y2556648D01*
X6887482Y2517666D01*
X6867402Y2477290D01*
X6851769Y2435197D01*
X6840449Y2391066D01*
X6833309Y2344575D01*
X6830214Y2295400D01*
X6830054Y2280750D01*
X6832186Y2229525D01*
X6838606Y2180845D01*
X6849346Y2134626D01*
X6864439Y2090787D01*
X6883919Y2049243D01*
X6907819Y2009913D01*
X6936171Y1972715D01*
X6966345Y1940175D01*
X7003367Y1906551D01*
X7041594Y1877689D01*
X7081293Y1853474D01*
X7122728Y1833795D01*
X7166165Y1818539D01*
X7211869Y1807593D01*
X7260105Y1800843D01*
X7299750Y1798417D01*
X7315314Y1798173D01*
X7331345Y1798290D01*
X7346130Y1798733D01*
X7357961Y1799466D01*
X7359750Y1799637D01*
X7406761Y1806512D01*
X7451214Y1817238D01*
X7493453Y1831991D01*
X7533823Y1850943D01*
X7572667Y1874269D01*
X7610332Y1902142D01*
X7647161Y1934737D01*
X7667250Y1954808D01*
X7690183Y1980076D01*
X7709637Y2004859D01*
X7726702Y2030698D01*
X7742470Y2059132D01*
X7745805Y2065750D01*
X7765010Y2109971D01*
X7779459Y2155632D01*
X7789161Y2202786D01*
X7794125Y2251484D01*
X7794344Y2298117D01*
X7715214Y2298117D01*
X7714654Y2255049D01*
X7709341Y2212135D01*
X7699216Y2169800D01*
X7697176Y2163204D01*
X7682915Y2125897D01*
X7664377Y2090156D01*
X7641354Y2055643D01*
X7613634Y2022019D01*
X7602250Y2009844D01*
X7569494Y1978493D01*
X7536183Y1951936D01*
X7501867Y1929968D01*
X7466096Y1912384D01*
X7428421Y1898981D01*
X7388392Y1889552D01*
X7345558Y1883893D01*
X7322250Y1882383D01*
X7316823Y1882466D01*
X7307725Y1882943D01*
X7296263Y1883733D01*
X7284750Y1884668D01*
X7240402Y1890765D01*
X7198436Y1901170D01*
X7158621Y1915988D01*
X7120727Y1935326D01*
X7084521Y1959288D01*
X7049773Y1987980D01*
X7041631Y1995576D01*
X7010844Y2028075D01*
X6984624Y2062534D01*
X6962856Y2099158D01*
X6945424Y2138149D01*
X6932214Y2179712D01*
X6928109Y2197000D01*
X6925586Y2212437D01*
X6923706Y2231654D01*
X6922476Y2253473D01*
X6921907Y2276715D01*
X6922005Y2300202D01*
X6922780Y2322754D01*
X6924240Y2343194D01*
X6926394Y2360342D01*
X6926904Y2363250D01*
X6936503Y2403692D01*
X6949881Y2441536D01*
X6967331Y2477369D01*
X6989146Y2511778D01*
X7015618Y2545351D01*
X7020364Y2550750D01*
X7051431Y2582684D01*
X7083621Y2609909D01*
X7117344Y2632665D01*
X7153010Y2651191D01*
X7191026Y2665727D01*
X7231803Y2676513D01*
X7236681Y2677522D01*
X7258134Y2680781D01*
X7282870Y2682788D01*
X7309330Y2683543D01*
X7335955Y2683045D01*
X7361188Y2681295D01*
X7383470Y2678291D01*
X7387257Y2677575D01*
X7430678Y2666406D01*
X7472200Y2650681D01*
X7511587Y2630562D01*
X7548599Y2606209D01*
X7582998Y2577783D01*
X7614546Y2545446D01*
X7643005Y2509358D01*
X7648870Y2500868D01*
X7671156Y2463415D01*
X7688994Y2423988D01*
X7702324Y2383012D01*
X7711084Y2340913D01*
X7715214Y2298117D01*
X7794344Y2298117D01*
X7794362Y2301779D01*
X7793459Y2317975D01*
X7787856Y2367372D01*
X7778079Y2414139D01*
X7764015Y2458519D01*
X7745554Y2500752D01*
X7722586Y2541079D01*
X7695000Y2579741D01*
X7662685Y2616980D01*
X7650462Y2629498D01*
X7613762Y2663080D01*
X7575859Y2691886D01*
X7536540Y2715999D01*
X7495593Y2735501D01*
X7452806Y2750476D01*
X7407966Y2761006D01*
X7360863Y2767174D01*
X7311284Y2769062D01*
X7293500Y2768733D01*
X7293500Y2768733D01*
G37*
X7293500Y2768733D02*
X7245009Y2765280D01*
X7199587Y2758045D01*
X7156854Y2746865D01*
X7116427Y2731574D01*
X7077923Y2712007D01*
X7040959Y2688000D01*
X7005154Y2659386D01*
X6975739Y2631719D01*
X6941517Y2594558D01*
X6912142Y2556648D01*
X6887482Y2517666D01*
X6867402Y2477290D01*
X6851769Y2435197D01*
X6840449Y2391066D01*
X6833309Y2344575D01*
X6830214Y2295400D01*
X6830054Y2280750D01*
X6832186Y2229525D01*
X6838606Y2180845D01*
X6849346Y2134626D01*
X6864439Y2090787D01*
X6883919Y2049243D01*
X6907819Y2009913D01*
X6936171Y1972715D01*
X6966345Y1940175D01*
X7003367Y1906551D01*
X7041594Y1877689D01*
X7081293Y1853474D01*
X7122728Y1833795D01*
X7166165Y1818539D01*
X7211869Y1807593D01*
X7260105Y1800843D01*
X7299750Y1798417D01*
X7315314Y1798173D01*
X7331345Y1798290D01*
X7346130Y1798733D01*
X7357961Y1799466D01*
X7359750Y1799637D01*
X7406761Y1806512D01*
X7451214Y1817238D01*
X7493453Y1831991D01*
X7533823Y1850943D01*
X7572667Y1874269D01*
X7610332Y1902142D01*
X7647161Y1934737D01*
X7667250Y1954808D01*
X7690183Y1980076D01*
X7709637Y2004859D01*
X7726702Y2030698D01*
X7742470Y2059132D01*
X7745805Y2065750D01*
X7765010Y2109971D01*
X7779459Y2155632D01*
X7789161Y2202786D01*
X7794125Y2251484D01*
X7794344Y2298117D01*
X7715214Y2298117D01*
X7714654Y2255049D01*
X7709341Y2212135D01*
X7699216Y2169800D01*
X7697176Y2163204D01*
X7682915Y2125897D01*
X7664377Y2090156D01*
X7641354Y2055643D01*
X7613634Y2022019D01*
X7602250Y2009844D01*
X7569494Y1978493D01*
X7536183Y1951936D01*
X7501867Y1929968D01*
X7466096Y1912384D01*
X7428421Y1898981D01*
X7388392Y1889552D01*
X7345558Y1883893D01*
X7322250Y1882383D01*
X7316823Y1882466D01*
X7307725Y1882943D01*
X7296263Y1883733D01*
X7284750Y1884668D01*
X7240402Y1890765D01*
X7198436Y1901170D01*
X7158621Y1915988D01*
X7120727Y1935326D01*
X7084521Y1959288D01*
X7049773Y1987980D01*
X7041631Y1995576D01*
X7010844Y2028075D01*
X6984624Y2062534D01*
X6962856Y2099158D01*
X6945424Y2138149D01*
X6932214Y2179712D01*
X6928109Y2197000D01*
X6925586Y2212437D01*
X6923706Y2231654D01*
X6922476Y2253473D01*
X6921907Y2276715D01*
X6922005Y2300202D01*
X6922780Y2322754D01*
X6924240Y2343194D01*
X6926394Y2360342D01*
X6926904Y2363250D01*
X6936503Y2403692D01*
X6949881Y2441536D01*
X6967331Y2477369D01*
X6989146Y2511778D01*
X7015618Y2545351D01*
X7020364Y2550750D01*
X7051431Y2582684D01*
X7083621Y2609909D01*
X7117344Y2632665D01*
X7153010Y2651191D01*
X7191026Y2665727D01*
X7231803Y2676513D01*
X7236681Y2677522D01*
X7258134Y2680781D01*
X7282870Y2682788D01*
X7309330Y2683543D01*
X7335955Y2683045D01*
X7361188Y2681295D01*
X7383470Y2678291D01*
X7387257Y2677575D01*
X7430678Y2666406D01*
X7472200Y2650681D01*
X7511587Y2630562D01*
X7548599Y2606209D01*
X7582998Y2577783D01*
X7614546Y2545446D01*
X7643005Y2509358D01*
X7648870Y2500868D01*
X7671156Y2463415D01*
X7688994Y2423988D01*
X7702324Y2383012D01*
X7711084Y2340913D01*
X7715214Y2298117D01*
X7794344Y2298117D01*
X7794362Y2301779D01*
X7793459Y2317975D01*
X7787856Y2367372D01*
X7778079Y2414139D01*
X7764015Y2458519D01*
X7745554Y2500752D01*
X7722586Y2541079D01*
X7695000Y2579741D01*
X7662685Y2616980D01*
X7650462Y2629498D01*
X7613762Y2663080D01*
X7575859Y2691886D01*
X7536540Y2715999D01*
X7495593Y2735501D01*
X7452806Y2750476D01*
X7407966Y2761006D01*
X7360863Y2767174D01*
X7311284Y2769062D01*
X7293500Y2768733D01*
G36*
X8481000Y2768733D02*
G01*
X8432509Y2765280D01*
X8387087Y2758045D01*
X8344354Y2746865D01*
X8303927Y2731574D01*
X8265423Y2712007D01*
X8228459Y2688000D01*
X8192654Y2659386D01*
X8163239Y2631719D01*
X8129017Y2594558D01*
X8099642Y2556648D01*
X8074982Y2517666D01*
X8054902Y2477290D01*
X8039269Y2435197D01*
X8027949Y2391066D01*
X8020809Y2344575D01*
X8017714Y2295400D01*
X8017554Y2280750D01*
X8019686Y2229525D01*
X8026106Y2180845D01*
X8036846Y2134626D01*
X8051939Y2090787D01*
X8071419Y2049243D01*
X8095319Y2009913D01*
X8123671Y1972715D01*
X8153845Y1940175D01*
X8190867Y1906551D01*
X8229094Y1877689D01*
X8268793Y1853474D01*
X8310228Y1833795D01*
X8353665Y1818539D01*
X8399369Y1807593D01*
X8447605Y1800843D01*
X8487250Y1798417D01*
X8502814Y1798173D01*
X8518845Y1798290D01*
X8533630Y1798733D01*
X8545461Y1799466D01*
X8547250Y1799637D01*
X8594261Y1806512D01*
X8638714Y1817238D01*
X8680953Y1831991D01*
X8721323Y1850943D01*
X8760167Y1874269D01*
X8797832Y1902142D01*
X8834661Y1934737D01*
X8854750Y1954808D01*
X8877683Y1980076D01*
X8897137Y2004859D01*
X8914202Y2030698D01*
X8929970Y2059132D01*
X8933305Y2065750D01*
X8952510Y2109971D01*
X8966959Y2155632D01*
X8976661Y2202786D01*
X8981625Y2251484D01*
X8981694Y2266129D01*
X8896516Y2266129D01*
X8892744Y2222768D01*
X8884302Y2181144D01*
X8871160Y2141171D01*
X8853288Y2102762D01*
X8830655Y2065833D01*
X8803231Y2030299D01*
X8789523Y2014959D01*
X8755859Y1982072D01*
X8720566Y1953865D01*
X8683688Y1930359D01*
X8645268Y1911577D01*
X8605346Y1897540D01*
X8563968Y1888271D01*
X8536644Y1884842D01*
X8522453Y1883621D01*
X8511693Y1882854D01*
X8502817Y1882532D01*
X8494278Y1882650D01*
X8484528Y1883199D01*
X8472021Y1884172D01*
X8467912Y1884511D01*
X8424249Y1890276D01*
X8383083Y1900216D01*
X8343916Y1914504D01*
X8306249Y1933311D01*
X8280486Y1949271D01*
X8248646Y1973017D01*
X8218509Y2000230D01*
X8190925Y2030002D01*
X8166747Y2061426D01*
X8149082Y2089510D01*
X8132425Y2123902D01*
X8119315Y2161248D01*
X8109841Y2200896D01*
X8104087Y2242193D01*
X8102143Y2284484D01*
X8104093Y2327116D01*
X8110026Y2369435D01*
X8111113Y2374972D01*
X8120769Y2411457D01*
X8134731Y2447970D01*
X8152461Y2483289D01*
X8172721Y2515209D01*
X8182917Y2528338D01*
X8196035Y2543401D01*
X8211144Y2559478D01*
X8227315Y2575651D01*
X8243618Y2591002D01*
X8259122Y2604611D01*
X8272898Y2615560D01*
X8277927Y2619132D01*
X8315223Y2641423D01*
X8354789Y2659262D01*
X8396635Y2672652D01*
X8424750Y2678913D01*
X8439428Y2680929D01*
X8457708Y2682324D01*
X8478305Y2683103D01*
X8499933Y2683266D01*
X8521307Y2682817D01*
X8541142Y2681757D01*
X8558152Y2680089D01*
X8567250Y2678649D01*
X8609741Y2668173D01*
X8649615Y2653753D01*
X8687192Y2635204D01*
X8722792Y2612339D01*
X8756734Y2584974D01*
X8789337Y2552923D01*
X8795565Y2546113D01*
X8823589Y2511339D01*
X8847215Y2474303D01*
X8866349Y2435221D01*
X8880899Y2394312D01*
X8890771Y2351795D01*
X8895651Y2311311D01*
X8896516Y2266129D01*
X8981694Y2266129D01*
X8981862Y2301779D01*
X8980959Y2317975D01*
X8975356Y2367372D01*
X8965579Y2414139D01*
X8951515Y2458519D01*
X8933054Y2500752D01*
X8910086Y2541079D01*
X8882500Y2579741D01*
X8850185Y2616980D01*
X8837962Y2629498D01*
X8801262Y2663080D01*
X8763359Y2691886D01*
X8724040Y2715999D01*
X8683093Y2735501D01*
X8640306Y2750476D01*
X8595466Y2761006D01*
X8548363Y2767174D01*
X8498784Y2769062D01*
X8481000Y2768733D01*
X8481000Y2768733D01*
G37*
X8481000Y2768733D02*
X8432509Y2765280D01*
X8387087Y2758045D01*
X8344354Y2746865D01*
X8303927Y2731574D01*
X8265423Y2712007D01*
X8228459Y2688000D01*
X8192654Y2659386D01*
X8163239Y2631719D01*
X8129017Y2594558D01*
X8099642Y2556648D01*
X8074982Y2517666D01*
X8054902Y2477290D01*
X8039269Y2435197D01*
X8027949Y2391066D01*
X8020809Y2344575D01*
X8017714Y2295400D01*
X8017554Y2280750D01*
X8019686Y2229525D01*
X8026106Y2180845D01*
X8036846Y2134626D01*
X8051939Y2090787D01*
X8071419Y2049243D01*
X8095319Y2009913D01*
X8123671Y1972715D01*
X8153845Y1940175D01*
X8190867Y1906551D01*
X8229094Y1877689D01*
X8268793Y1853474D01*
X8310228Y1833795D01*
X8353665Y1818539D01*
X8399369Y1807593D01*
X8447605Y1800843D01*
X8487250Y1798417D01*
X8502814Y1798173D01*
X8518845Y1798290D01*
X8533630Y1798733D01*
X8545461Y1799466D01*
X8547250Y1799637D01*
X8594261Y1806512D01*
X8638714Y1817238D01*
X8680953Y1831991D01*
X8721323Y1850943D01*
X8760167Y1874269D01*
X8797832Y1902142D01*
X8834661Y1934737D01*
X8854750Y1954808D01*
X8877683Y1980076D01*
X8897137Y2004859D01*
X8914202Y2030698D01*
X8929970Y2059132D01*
X8933305Y2065750D01*
X8952510Y2109971D01*
X8966959Y2155632D01*
X8976661Y2202786D01*
X8981625Y2251484D01*
X8981694Y2266129D01*
X8896516Y2266129D01*
X8892744Y2222768D01*
X8884302Y2181144D01*
X8871160Y2141171D01*
X8853288Y2102762D01*
X8830655Y2065833D01*
X8803231Y2030299D01*
X8789523Y2014959D01*
X8755859Y1982072D01*
X8720566Y1953865D01*
X8683688Y1930359D01*
X8645268Y1911577D01*
X8605346Y1897540D01*
X8563968Y1888271D01*
X8536644Y1884842D01*
X8522453Y1883621D01*
X8511693Y1882854D01*
X8502817Y1882532D01*
X8494278Y1882650D01*
X8484528Y1883199D01*
X8472021Y1884172D01*
X8467912Y1884511D01*
X8424249Y1890276D01*
X8383083Y1900216D01*
X8343916Y1914504D01*
X8306249Y1933311D01*
X8280486Y1949271D01*
X8248646Y1973017D01*
X8218509Y2000230D01*
X8190925Y2030002D01*
X8166747Y2061426D01*
X8149082Y2089510D01*
X8132425Y2123902D01*
X8119315Y2161248D01*
X8109841Y2200896D01*
X8104087Y2242193D01*
X8102143Y2284484D01*
X8104093Y2327116D01*
X8110026Y2369435D01*
X8111113Y2374972D01*
X8120769Y2411457D01*
X8134731Y2447970D01*
X8152461Y2483289D01*
X8172721Y2515209D01*
X8182917Y2528338D01*
X8196035Y2543401D01*
X8211144Y2559478D01*
X8227315Y2575651D01*
X8243618Y2591002D01*
X8259122Y2604611D01*
X8272898Y2615560D01*
X8277927Y2619132D01*
X8315223Y2641423D01*
X8354789Y2659262D01*
X8396635Y2672652D01*
X8424750Y2678913D01*
X8439428Y2680929D01*
X8457708Y2682324D01*
X8478305Y2683103D01*
X8499933Y2683266D01*
X8521307Y2682817D01*
X8541142Y2681757D01*
X8558152Y2680089D01*
X8567250Y2678649D01*
X8609741Y2668173D01*
X8649615Y2653753D01*
X8687192Y2635204D01*
X8722792Y2612339D01*
X8756734Y2584974D01*
X8789337Y2552923D01*
X8795565Y2546113D01*
X8823589Y2511339D01*
X8847215Y2474303D01*
X8866349Y2435221D01*
X8880899Y2394312D01*
X8890771Y2351795D01*
X8895651Y2311311D01*
X8896516Y2266129D01*
X8981694Y2266129D01*
X8981862Y2301779D01*
X8980959Y2317975D01*
X8975356Y2367372D01*
X8965579Y2414139D01*
X8951515Y2458519D01*
X8933054Y2500752D01*
X8910086Y2541079D01*
X8882500Y2579741D01*
X8850185Y2616980D01*
X8837962Y2629498D01*
X8801262Y2663080D01*
X8763359Y2691886D01*
X8724040Y2715999D01*
X8683093Y2735501D01*
X8640306Y2750476D01*
X8595466Y2761006D01*
X8548363Y2767174D01*
X8498784Y2769062D01*
X8481000Y2768733D01*
G36*
X10216887Y2740287D02*
G01*
X10196947Y2739643D01*
X10180141Y2738667D01*
X10168500Y2737499D01*
X10114555Y2728191D01*
X10063515Y2715066D01*
X10015052Y2697958D01*
X9968842Y2676701D01*
X9924558Y2651129D01*
X9881873Y2621076D01*
X9840462Y2586376D01*
X9805842Y2552921D01*
X9767397Y2510396D01*
X9733614Y2466434D01*
X9704365Y2420765D01*
X9679523Y2373120D01*
X9658958Y2323233D01*
X9642543Y2270833D01*
X9630149Y2215652D01*
X9623221Y2170750D01*
X9622008Y2157644D01*
X9621095Y2140689D01*
X9620481Y2120983D01*
X9620168Y2099622D01*
X9620155Y2077704D01*
X9620442Y2056324D01*
X9621030Y2036580D01*
X9621919Y2019568D01*
X9623109Y2006386D01*
X9623188Y2005750D01*
X9631785Y1952348D01*
X9643566Y1902334D01*
X9658766Y1855063D01*
X9677620Y1809887D01*
X9700361Y1766159D01*
X9723474Y1728817D01*
X9741724Y1702579D01*
X9760296Y1678508D01*
X9780289Y1655303D01*
X9802804Y1631661D01*
X9818511Y1616212D01*
X9861690Y1577691D01*
X9906419Y1543886D01*
X9952887Y1514706D01*
X10001281Y1490057D01*
X10051788Y1469845D01*
X10104595Y1453977D01*
X10159889Y1442361D01*
X10171492Y1440505D01*
X10185644Y1438857D01*
X10203707Y1437517D01*
X10224603Y1436498D01*
X10247257Y1435813D01*
X10270594Y1435475D01*
X10293538Y1435499D01*
X10315012Y1435898D01*
X10333942Y1436684D01*
X10349251Y1437871D01*
X10352577Y1438256D01*
X10408107Y1447502D01*
X10461122Y1460892D01*
X10511841Y1478537D01*
X10560485Y1500547D01*
X10607273Y1527031D01*
X10652425Y1558099D01*
X10696161Y1593861D01*
X10732385Y1628029D01*
X10752351Y1648494D01*
X10769444Y1667122D01*
X10784708Y1685180D01*
X10799189Y1703935D01*
X10813932Y1724653D01*
X10822302Y1737000D01*
X10850621Y1783808D01*
X10874508Y1832824D01*
X10893903Y1883837D01*
X10908749Y1936632D01*
X10918985Y1990997D01*
X10924554Y2046717D01*
X10925017Y2077983D01*
X10800578Y2077983D01*
X10798329Y2036181D01*
X10791624Y1985850D01*
X10780521Y1937824D01*
X10764964Y1891985D01*
X10744897Y1848215D01*
X10720263Y1806394D01*
X10691006Y1766405D01*
X10657071Y1728130D01*
X10648079Y1719042D01*
X10624689Y1696585D01*
X10602913Y1677248D01*
X10581540Y1660022D01*
X10559360Y1643900D01*
X10550840Y1638103D01*
X10508068Y1612412D01*
X10463426Y1591349D01*
X10416970Y1574926D01*
X10368757Y1563155D01*
X10318845Y1556051D01*
X10267290Y1553627D01*
X10214148Y1555895D01*
X10201000Y1557157D01*
X10151547Y1564864D01*
X10103674Y1577310D01*
X10057424Y1594471D01*
X10012844Y1616327D01*
X9969976Y1642856D01*
X9928866Y1674038D01*
X9898062Y1701564D01*
X9861708Y1739269D01*
X9830091Y1778398D01*
X9803091Y1819193D01*
X9780587Y1861897D01*
X9762458Y1906752D01*
X9748584Y1953999D01*
X9738844Y2003880D01*
X9735837Y2026718D01*
X9734406Y2045060D01*
X9733733Y2066979D01*
X9733777Y2091115D01*
X9734492Y2116111D01*
X9735836Y2140607D01*
X9737766Y2163244D01*
X9740238Y2182665D01*
X9740960Y2187000D01*
X9752218Y2237626D01*
X9767624Y2285511D01*
X9787282Y2330851D01*
X9811295Y2373843D01*
X9839765Y2414683D01*
X9872795Y2453567D01*
X9889466Y2470771D01*
X9922243Y2501316D01*
X9954968Y2527691D01*
X9988647Y2550614D01*
X10024282Y2570803D01*
X10040614Y2578898D01*
X10084261Y2597227D01*
X10129015Y2611085D01*
X10175350Y2620574D01*
X10223740Y2625799D01*
X10261724Y2626980D01*
X10314712Y2624727D01*
X10365754Y2617924D01*
X10414783Y2606593D01*
X10461731Y2590758D01*
X10506533Y2570441D01*
X10549120Y2545664D01*
X10589427Y2516450D01*
X10591000Y2515182D01*
X10602994Y2504840D01*
X10617214Y2491560D01*
X10632741Y2476292D01*
X10648656Y2459985D01*
X10664039Y2443587D01*
X10677971Y2428047D01*
X10689532Y2414315D01*
X10693029Y2409877D01*
X10722251Y2367893D01*
X10746905Y2323918D01*
X10766960Y2278060D01*
X10782386Y2230429D01*
X10793151Y2181133D01*
X10799225Y2130281D01*
X10800578Y2077983D01*
X10925017Y2077983D01*
X10925397Y2103580D01*
X10925168Y2110750D01*
X10920889Y2168865D01*
X10912415Y2224353D01*
X10899651Y2277450D01*
X10882503Y2328394D01*
X10860876Y2377418D01*
X10834674Y2424759D01*
X10803803Y2470653D01*
X10768168Y2515336D01*
X10757522Y2527442D01*
X10717237Y2568767D01*
X10674440Y2605778D01*
X10629201Y2638439D01*
X10581590Y2666712D01*
X10531676Y2690561D01*
X10479530Y2709949D01*
X10425221Y2724839D01*
X10368819Y2735194D01*
X10362250Y2736086D01*
X10347695Y2737570D01*
X10329443Y2738770D01*
X10308470Y2739681D01*
X10285752Y2740296D01*
X10262265Y2740606D01*
X10238984Y2740606D01*
X10216887Y2740287D01*
X10216887Y2740287D01*
G37*
X10216887Y2740287D02*
X10196947Y2739643D01*
X10180141Y2738667D01*
X10168500Y2737499D01*
X10114555Y2728191D01*
X10063515Y2715066D01*
X10015052Y2697958D01*
X9968842Y2676701D01*
X9924558Y2651129D01*
X9881873Y2621076D01*
X9840462Y2586376D01*
X9805842Y2552921D01*
X9767397Y2510396D01*
X9733614Y2466434D01*
X9704365Y2420765D01*
X9679523Y2373120D01*
X9658958Y2323233D01*
X9642543Y2270833D01*
X9630149Y2215652D01*
X9623221Y2170750D01*
X9622008Y2157644D01*
X9621095Y2140689D01*
X9620481Y2120983D01*
X9620168Y2099622D01*
X9620155Y2077704D01*
X9620442Y2056324D01*
X9621030Y2036580D01*
X9621919Y2019568D01*
X9623109Y2006386D01*
X9623188Y2005750D01*
X9631785Y1952348D01*
X9643566Y1902334D01*
X9658766Y1855063D01*
X9677620Y1809887D01*
X9700361Y1766159D01*
X9723474Y1728817D01*
X9741724Y1702579D01*
X9760296Y1678508D01*
X9780289Y1655303D01*
X9802804Y1631661D01*
X9818511Y1616212D01*
X9861690Y1577691D01*
X9906419Y1543886D01*
X9952887Y1514706D01*
X10001281Y1490057D01*
X10051788Y1469845D01*
X10104595Y1453977D01*
X10159889Y1442361D01*
X10171492Y1440505D01*
X10185644Y1438857D01*
X10203707Y1437517D01*
X10224603Y1436498D01*
X10247257Y1435813D01*
X10270594Y1435475D01*
X10293538Y1435499D01*
X10315012Y1435898D01*
X10333942Y1436684D01*
X10349251Y1437871D01*
X10352577Y1438256D01*
X10408107Y1447502D01*
X10461122Y1460892D01*
X10511841Y1478537D01*
X10560485Y1500547D01*
X10607273Y1527031D01*
X10652425Y1558099D01*
X10696161Y1593861D01*
X10732385Y1628029D01*
X10752351Y1648494D01*
X10769444Y1667122D01*
X10784708Y1685180D01*
X10799189Y1703935D01*
X10813932Y1724653D01*
X10822302Y1737000D01*
X10850621Y1783808D01*
X10874508Y1832824D01*
X10893903Y1883837D01*
X10908749Y1936632D01*
X10918985Y1990997D01*
X10924554Y2046717D01*
X10925017Y2077983D01*
X10800578Y2077983D01*
X10798329Y2036181D01*
X10791624Y1985850D01*
X10780521Y1937824D01*
X10764964Y1891985D01*
X10744897Y1848215D01*
X10720263Y1806394D01*
X10691006Y1766405D01*
X10657071Y1728130D01*
X10648079Y1719042D01*
X10624689Y1696585D01*
X10602913Y1677248D01*
X10581540Y1660022D01*
X10559360Y1643900D01*
X10550840Y1638103D01*
X10508068Y1612412D01*
X10463426Y1591349D01*
X10416970Y1574926D01*
X10368757Y1563155D01*
X10318845Y1556051D01*
X10267290Y1553627D01*
X10214148Y1555895D01*
X10201000Y1557157D01*
X10151547Y1564864D01*
X10103674Y1577310D01*
X10057424Y1594471D01*
X10012844Y1616327D01*
X9969976Y1642856D01*
X9928866Y1674038D01*
X9898062Y1701564D01*
X9861708Y1739269D01*
X9830091Y1778398D01*
X9803091Y1819193D01*
X9780587Y1861897D01*
X9762458Y1906752D01*
X9748584Y1953999D01*
X9738844Y2003880D01*
X9735837Y2026718D01*
X9734406Y2045060D01*
X9733733Y2066979D01*
X9733777Y2091115D01*
X9734492Y2116111D01*
X9735836Y2140607D01*
X9737766Y2163244D01*
X9740238Y2182665D01*
X9740960Y2187000D01*
X9752218Y2237626D01*
X9767624Y2285511D01*
X9787282Y2330851D01*
X9811295Y2373843D01*
X9839765Y2414683D01*
X9872795Y2453567D01*
X9889466Y2470771D01*
X9922243Y2501316D01*
X9954968Y2527691D01*
X9988647Y2550614D01*
X10024282Y2570803D01*
X10040614Y2578898D01*
X10084261Y2597227D01*
X10129015Y2611085D01*
X10175350Y2620574D01*
X10223740Y2625799D01*
X10261724Y2626980D01*
X10314712Y2624727D01*
X10365754Y2617924D01*
X10414783Y2606593D01*
X10461731Y2590758D01*
X10506533Y2570441D01*
X10549120Y2545664D01*
X10589427Y2516450D01*
X10591000Y2515182D01*
X10602994Y2504840D01*
X10617214Y2491560D01*
X10632741Y2476292D01*
X10648656Y2459985D01*
X10664039Y2443587D01*
X10677971Y2428047D01*
X10689532Y2414315D01*
X10693029Y2409877D01*
X10722251Y2367893D01*
X10746905Y2323918D01*
X10766960Y2278060D01*
X10782386Y2230429D01*
X10793151Y2181133D01*
X10799225Y2130281D01*
X10800578Y2077983D01*
X10925017Y2077983D01*
X10925397Y2103580D01*
X10925168Y2110750D01*
X10920889Y2168865D01*
X10912415Y2224353D01*
X10899651Y2277450D01*
X10882503Y2328394D01*
X10860876Y2377418D01*
X10834674Y2424759D01*
X10803803Y2470653D01*
X10768168Y2515336D01*
X10757522Y2527442D01*
X10717237Y2568767D01*
X10674440Y2605778D01*
X10629201Y2638439D01*
X10581590Y2666712D01*
X10531676Y2690561D01*
X10479530Y2709949D01*
X10425221Y2724839D01*
X10368819Y2735194D01*
X10362250Y2736086D01*
X10347695Y2737570D01*
X10329443Y2738770D01*
X10308470Y2739681D01*
X10285752Y2740296D01*
X10262265Y2740606D01*
X10238984Y2740606D01*
X10216887Y2740287D01*
G36*
X7216815Y1420739D02*
G01*
X7211883Y1405961D01*
X7207433Y1392613D01*
X7203732Y1381492D01*
X7201046Y1373399D01*
X7199641Y1369131D01*
X7199559Y1368875D01*
X7199368Y1367119D01*
X7200600Y1365906D01*
X7203994Y1365136D01*
X7210286Y1364712D01*
X7220212Y1364533D01*
X7232082Y1364500D01*
X7244452Y1364630D01*
X7254801Y1364986D01*
X7262223Y1365517D01*
X7265808Y1366174D01*
X7266000Y1366374D01*
X7265243Y1369204D01*
X7263125Y1376049D01*
X7259881Y1386181D01*
X7255743Y1398876D01*
X7250945Y1413407D01*
X7249338Y1418237D01*
X7232676Y1468227D01*
X7216815Y1420739D01*
X7216815Y1420739D01*
G37*
X7216815Y1420739D02*
X7211883Y1405961D01*
X7207433Y1392613D01*
X7203732Y1381492D01*
X7201046Y1373399D01*
X7199641Y1369131D01*
X7199559Y1368875D01*
X7199368Y1367119D01*
X7200600Y1365906D01*
X7203994Y1365136D01*
X7210286Y1364712D01*
X7220212Y1364533D01*
X7232082Y1364500D01*
X7244452Y1364630D01*
X7254801Y1364986D01*
X7262223Y1365517D01*
X7265808Y1366174D01*
X7266000Y1366374D01*
X7265243Y1369204D01*
X7263125Y1376049D01*
X7259881Y1386181D01*
X7255743Y1398876D01*
X7250945Y1413407D01*
X7249338Y1418237D01*
X7232676Y1468227D01*
X7216815Y1420739D01*
G36*
X8650299Y1489452D02*
G01*
X8639561Y1489231D01*
X8631991Y1488729D01*
X8626674Y1487834D01*
X8622692Y1486436D01*
X8619131Y1484424D01*
X8618245Y1483843D01*
X8611459Y1477705D01*
X8605754Y1469925D01*
X8605053Y1468598D01*
X8602135Y1461316D01*
X8601842Y1455194D01*
X8603156Y1449663D01*
X8606108Y1442380D01*
X8610459Y1436794D01*
X8616826Y1432697D01*
X8625825Y1429882D01*
X8638072Y1428143D01*
X8654182Y1427273D01*
X8670375Y1427062D01*
X8703500Y1427000D01*
X8703500Y1489500D01*
X8665120Y1489500D01*
X8650299Y1489452D01*
X8650299Y1489452D01*
G37*
X8650299Y1489452D02*
X8639561Y1489231D01*
X8631991Y1488729D01*
X8626674Y1487834D01*
X8622692Y1486436D01*
X8619131Y1484424D01*
X8618245Y1483843D01*
X8611459Y1477705D01*
X8605754Y1469925D01*
X8605053Y1468598D01*
X8602135Y1461316D01*
X8601842Y1455194D01*
X8603156Y1449663D01*
X8606108Y1442380D01*
X8610459Y1436794D01*
X8616826Y1432697D01*
X8625825Y1429882D01*
X8638072Y1428143D01*
X8654182Y1427273D01*
X8670375Y1427062D01*
X8703500Y1427000D01*
X8703500Y1489500D01*
X8665120Y1489500D01*
X8650299Y1489452D01*
G36*
X8662875Y1381946D02*
G01*
X8647001Y1381845D01*
X8635200Y1381533D01*
X8626550Y1380923D01*
X8620125Y1379927D01*
X8615003Y1378458D01*
X8611677Y1377091D01*
X8600751Y1369783D01*
X8593943Y1359990D01*
X8591432Y1348310D01*
X8593399Y1335339D01*
X8596696Y1327393D01*
X8600194Y1321562D01*
X8604403Y1317140D01*
X8610025Y1313938D01*
X8617762Y1311767D01*
X8628314Y1310436D01*
X8642383Y1309757D01*
X8660670Y1309542D01*
X8662875Y1309538D01*
X8703500Y1309500D01*
X8703500Y1382000D01*
X8662875Y1381946D01*
X8662875Y1381946D01*
G37*
X8662875Y1381946D02*
X8647001Y1381845D01*
X8635200Y1381533D01*
X8626550Y1380923D01*
X8620125Y1379927D01*
X8615003Y1378458D01*
X8611677Y1377091D01*
X8600751Y1369783D01*
X8593943Y1359990D01*
X8591432Y1348310D01*
X8593399Y1335339D01*
X8596696Y1327393D01*
X8600194Y1321562D01*
X8604403Y1317140D01*
X8610025Y1313938D01*
X8617762Y1311767D01*
X8628314Y1310436D01*
X8642383Y1309757D01*
X8660670Y1309542D01*
X8662875Y1309538D01*
X8703500Y1309500D01*
X8703500Y1382000D01*
X8662875Y1381946D01*
G36*
X7266038Y2911611D02*
G01*
X7189675Y2911605D01*
X7117025Y2911596D01*
X7047999Y2911582D01*
X6982502Y2911564D01*
X6920445Y2911542D01*
X6861734Y2911515D01*
X6806278Y2911484D01*
X6753985Y2911448D01*
X6704763Y2911408D01*
X6658521Y2911362D01*
X6615166Y2911311D01*
X6574607Y2911255D01*
X6536752Y2911194D01*
X6501508Y2911127D01*
X6468785Y2911055D01*
X6438491Y2910977D01*
X6410532Y2910893D01*
X6384818Y2910803D01*
X6361257Y2910707D01*
X6339757Y2910605D01*
X6320226Y2910497D01*
X6302573Y2910382D01*
X6286704Y2910260D01*
X6272529Y2910132D01*
X6259956Y2909997D01*
X6248893Y2909855D01*
X6239247Y2909705D01*
X6230928Y2909549D01*
X6223843Y2909385D01*
X6217901Y2909214D01*
X6213009Y2909035D01*
X6209076Y2908848D01*
X6206010Y2908654D01*
X6203719Y2908451D01*
X6202111Y2908241D01*
X6201117Y2908029D01*
X6181183Y2899672D01*
X6163489Y2886860D01*
X6148080Y2869630D01*
X6141326Y2859500D01*
X6136019Y2850750D01*
X6136010Y2000125D01*
X6136000Y1149500D01*
X11123372Y1149500D01*
X11127186Y1156876D01*
X11127541Y1157939D01*
X11127873Y1159815D01*
X11128183Y1162660D01*
X11128473Y1166631D01*
X11128743Y1171883D01*
X11128992Y1178572D01*
X11129224Y1186855D01*
X11129437Y1196887D01*
X11129632Y1208823D01*
X11129812Y1222821D01*
X11129975Y1239036D01*
X11130123Y1257624D01*
X11130256Y1278740D01*
X11130376Y1302542D01*
X11130482Y1329184D01*
X11130576Y1358822D01*
X11130659Y1391614D01*
X11130731Y1427713D01*
X11130792Y1467278D01*
X11130844Y1510462D01*
X11130887Y1557423D01*
X11130922Y1608316D01*
X11130949Y1663298D01*
X11130953Y1677000D01*
X11096032Y1677000D01*
X10914170Y1677000D01*
X10899765Y1652625D01*
X10867125Y1602231D01*
X10830757Y1555023D01*
X10790909Y1511162D01*
X10747832Y1470806D01*
X10701775Y1434113D01*
X10652987Y1401242D01*
X10601718Y1372351D01*
X10548217Y1347599D01*
X10492734Y1327145D01*
X10435518Y1311147D01*
X10376819Y1299764D01*
X10336797Y1294799D01*
X10320216Y1293619D01*
X10300110Y1292840D01*
X10277939Y1292463D01*
X10255163Y1292490D01*
X10233240Y1292921D01*
X10213631Y1293759D01*
X10201000Y1294683D01*
X10142496Y1302588D01*
X10084514Y1315318D01*
X10027554Y1332700D01*
X9972112Y1354561D01*
X9918685Y1380726D01*
X9902052Y1390624D01*
X8773500Y1390624D01*
X8773500Y1251747D01*
X8691625Y1252499D01*
X8609750Y1253250D01*
X8587581Y1264285D01*
X8571012Y1273091D01*
X8558663Y1281227D01*
X8549962Y1289447D01*
X8544334Y1298502D01*
X8541207Y1309146D01*
X8540008Y1322133D01*
X8539938Y1326878D01*
X8541695Y1348686D01*
X8546981Y1367288D01*
X8555703Y1382511D01*
X8567772Y1394181D01*
X8578462Y1400278D01*
X8584916Y1403345D01*
X8587352Y1405354D01*
X8586410Y1407065D01*
X8584952Y1408002D01*
X8570305Y1419038D01*
X8559874Y1432710D01*
X8553566Y1449168D01*
X8551539Y1462634D01*
X8552113Y1480493D01*
X8556803Y1496016D01*
X8565902Y1510087D01*
X8568013Y1512516D01*
X8573196Y1518095D01*
X8577718Y1522178D01*
X8582606Y1525228D01*
X8588886Y1527709D01*
X8597585Y1530082D01*
X8609730Y1532811D01*
X8616000Y1534152D01*
X8622978Y1534881D01*
X8634905Y1535153D01*
X8651750Y1534970D01*
X8673484Y1534330D01*
X8699750Y1533250D01*
X8718239Y1532402D01*
X8735030Y1531619D01*
X8749497Y1530933D01*
X8761012Y1530372D01*
X8768947Y1529967D01*
X8772674Y1529748D01*
X8772875Y1529726D01*
X8772992Y1527258D01*
X8773101Y1520240D01*
X8773201Y1509122D01*
X8773290Y1494354D01*
X8773366Y1476387D01*
X8773427Y1455670D01*
X8773471Y1432653D01*
X8773496Y1407786D01*
X8773500Y1390624D01*
X9902052Y1390624D01*
X9867773Y1411021D01*
X9867350Y1411298D01*
X9844719Y1426499D01*
X9824569Y1441016D01*
X9805743Y1455792D01*
X9787085Y1471769D01*
X9767438Y1489891D01*
X9748945Y1507836D01*
X9722620Y1535528D01*
X8521000Y1535528D01*
X8519781Y1533069D01*
X8516342Y1526882D01*
X8511013Y1517542D01*
X8504125Y1505622D01*
X8496007Y1491696D01*
X8486988Y1476339D01*
X8486879Y1476153D01*
X8476909Y1459136D01*
X8466992Y1442032D01*
X8457658Y1425765D01*
X8449436Y1411262D01*
X8442855Y1399450D01*
X8439379Y1393035D01*
X8426000Y1367819D01*
X8426000Y1257000D01*
X8363500Y1257000D01*
X8363500Y1342150D01*
X7614091Y1342150D01*
X7612313Y1330294D01*
X7607910Y1312080D01*
X7600330Y1296363D01*
X7589204Y1282768D01*
X7574161Y1270919D01*
X7554833Y1260442D01*
X7536000Y1252782D01*
X7529184Y1250466D01*
X7522939Y1248876D01*
X7516138Y1247902D01*
X7507653Y1247436D01*
X7496354Y1247367D01*
X7482250Y1247566D01*
X7444750Y1248250D01*
X7425177Y1257596D01*
X7421225Y1259554D01*
X7367630Y1259554D01*
X7366339Y1258320D01*
X7362790Y1257561D01*
X7356218Y1257164D01*
X7345857Y1257016D01*
X7337765Y1257000D01*
X7306692Y1257000D01*
X7284364Y1318250D01*
X7232908Y1318926D01*
X7181452Y1319601D01*
X7177452Y1308926D01*
X7174654Y1301367D01*
X7170900Y1291106D01*
X7166923Y1280144D01*
X7166239Y1278250D01*
X7159027Y1258250D01*
X7127532Y1257551D01*
X7096036Y1256851D01*
X7104487Y1280051D01*
X7107411Y1288058D01*
X7111638Y1299601D01*
X7116970Y1314143D01*
X7123210Y1331148D01*
X7130160Y1350080D01*
X7137624Y1370401D01*
X7145404Y1391577D01*
X7153304Y1413070D01*
X7161125Y1434344D01*
X7168671Y1454863D01*
X7175746Y1474091D01*
X7182150Y1491490D01*
X7187688Y1506526D01*
X7192163Y1518661D01*
X7195376Y1527359D01*
X7197131Y1532084D01*
X7197362Y1532694D01*
X7198499Y1534482D01*
X7200814Y1535683D01*
X7205120Y1536383D01*
X7212231Y1536668D01*
X7222961Y1536623D01*
X7232953Y1536444D01*
X7266819Y1535750D01*
X7316418Y1400750D01*
X7325543Y1375905D01*
X7334174Y1352389D01*
X7342151Y1330635D01*
X7349317Y1311074D01*
X7355514Y1294140D01*
X7360583Y1280264D01*
X7364367Y1269879D01*
X7366707Y1263416D01*
X7367428Y1261375D01*
X7367630Y1259554D01*
X7421225Y1259554D01*
X7412117Y1264066D01*
X7402667Y1269522D01*
X7395798Y1274821D01*
X7390482Y1280819D01*
X7385692Y1288371D01*
X7383583Y1292223D01*
X7379151Y1301191D01*
X7376660Y1308642D01*
X7375581Y1316811D01*
X7375376Y1326724D01*
X7377179Y1347551D01*
X7382594Y1365060D01*
X7391777Y1379541D01*
X7404881Y1391287D01*
X7411794Y1395588D01*
X7420307Y1399989D01*
X7427656Y1403153D01*
X7432326Y1404432D01*
X7432491Y1404435D01*
X7437815Y1405223D01*
X7446708Y1407436D01*
X7458068Y1410718D01*
X7470792Y1414714D01*
X7483777Y1419068D01*
X7495922Y1423423D01*
X7506123Y1427424D01*
X7512250Y1430183D01*
X7523918Y1436435D01*
X7531625Y1441808D01*
X7536119Y1447106D01*
X7538147Y1453133D01*
X7538500Y1458385D01*
X7537904Y1465303D01*
X7535491Y1470955D01*
X7530329Y1477287D01*
X7528503Y1479199D01*
X7518506Y1489500D01*
X7458500Y1489500D01*
X7448500Y1479500D01*
X7442963Y1473155D01*
X7439331Y1467444D01*
X7438500Y1464705D01*
X7438232Y1459389D01*
X7436879Y1455807D01*
X7433620Y1453619D01*
X7427633Y1452483D01*
X7418097Y1452058D01*
X7407904Y1452000D01*
X7380342Y1452000D01*
X7381736Y1462396D01*
X7383549Y1469727D01*
X7387049Y1479498D01*
X7391528Y1489761D01*
X7392194Y1491129D01*
X7400255Y1504859D01*
X7409831Y1515649D01*
X7422007Y1524433D01*
X7437869Y1532142D01*
X7441772Y1533713D01*
X7450145Y1536797D01*
X7457426Y1538827D01*
X7465081Y1540019D01*
X7474575Y1540587D01*
X7487374Y1540746D01*
X7489750Y1540748D01*
X7519750Y1540746D01*
X7542600Y1528986D01*
X7557219Y1520727D01*
X7568236Y1512462D01*
X7576897Y1502967D01*
X7584449Y1491016D01*
X7587764Y1484621D01*
X7591112Y1477239D01*
X7593174Y1470513D01*
X7594253Y1462790D01*
X7594654Y1452414D01*
X7594693Y1446943D01*
X7594620Y1435638D01*
X7594111Y1427833D01*
X7592829Y1422030D01*
X7590438Y1416730D01*
X7586600Y1410435D01*
X7586429Y1410168D01*
X7578019Y1400255D01*
X7564963Y1389366D01*
X7547481Y1377671D01*
X7532068Y1368730D01*
X7527769Y1367353D01*
X7519717Y1365590D01*
X7509123Y1363656D01*
X7497196Y1361765D01*
X7485149Y1360134D01*
X7480944Y1359644D01*
X7466901Y1356589D01*
X7454794Y1351094D01*
X7445293Y1343761D01*
X7439069Y1335187D01*
X7436790Y1325973D01*
X7437489Y1320750D01*
X7442445Y1308197D01*
X7449486Y1299526D01*
X7459235Y1294346D01*
X7472315Y1292266D01*
X7482731Y1292382D01*
X7499193Y1294748D01*
X7513622Y1300089D01*
X7521407Y1304382D01*
X7527242Y1309173D01*
X7532574Y1315894D01*
X7537547Y1323790D01*
X7547696Y1340750D01*
X7580893Y1341450D01*
X7614091Y1342150D01*
X8363500Y1342150D01*
X8363500Y1364929D01*
X8312251Y1450340D01*
X8261002Y1535750D01*
X8292744Y1536454D01*
X8304996Y1536641D01*
X8315508Y1536644D01*
X8323230Y1536473D01*
X8327111Y1536139D01*
X8327249Y1536097D01*
X8329248Y1533707D01*
X8333316Y1527602D01*
X8339060Y1518416D01*
X8346084Y1506787D01*
X8353996Y1493349D01*
X8357877Y1486644D01*
X8366146Y1472340D01*
X8373742Y1459301D01*
X8380258Y1448220D01*
X8385284Y1439793D01*
X8388411Y1434712D01*
X8389071Y1433729D01*
X8390311Y1432688D01*
X8391920Y1433014D01*
X8394207Y1435151D01*
X8397485Y1439546D01*
X8402062Y1446642D01*
X8408250Y1456886D01*
X8416359Y1470721D01*
X8423532Y1483104D01*
X8454667Y1537000D01*
X8487834Y1537000D01*
X8500056Y1536896D01*
X8510248Y1536611D01*
X8517492Y1536185D01*
X8520868Y1535660D01*
X8521000Y1535528D01*
X9722620Y1535528D01*
X9711587Y1547133D01*
X9678554Y1587108D01*
X9649174Y1628609D01*
X9634237Y1652545D01*
X9619750Y1676840D01*
X6182250Y1678250D01*
X6181620Y2251713D01*
X6181551Y2323002D01*
X6181507Y2389353D01*
X6181487Y2450829D01*
X6181493Y2507492D01*
X6181524Y2559405D01*
X6181580Y2606630D01*
X6181661Y2649230D01*
X6181769Y2687267D01*
X6181903Y2720804D01*
X6182063Y2749902D01*
X6182249Y2774625D01*
X6182462Y2795034D01*
X6182702Y2811192D01*
X6182970Y2823163D01*
X6183264Y2831007D01*
X6183587Y2834787D01*
X6183630Y2834980D01*
X6188710Y2845981D01*
X6197180Y2856450D01*
X6207546Y2864774D01*
X6214284Y2868154D01*
X6215154Y2868370D01*
X6216652Y2868579D01*
X6218869Y2868779D01*
X6221898Y2868972D01*
X6225830Y2869157D01*
X6230756Y2869334D01*
X6236769Y2869503D01*
X6243961Y2869665D01*
X6252422Y2869820D01*
X6262244Y2869967D01*
X6273520Y2870108D01*
X6286340Y2870241D01*
X6300797Y2870368D01*
X6316982Y2870487D01*
X6334987Y2870601D01*
X6354903Y2870708D01*
X6376823Y2870808D01*
X6400837Y2870902D01*
X6427038Y2870990D01*
X6455517Y2871073D01*
X6486366Y2871149D01*
X6519676Y2871219D01*
X6555539Y2871284D01*
X6594048Y2871344D01*
X6635293Y2871398D01*
X6679366Y2871447D01*
X6726359Y2871491D01*
X6776363Y2871530D01*
X6829471Y2871564D01*
X6885773Y2871593D01*
X6945363Y2871618D01*
X7008330Y2871638D01*
X7074767Y2871654D01*
X7144766Y2871665D01*
X7218418Y2871672D01*
X7295815Y2871676D01*
X7377049Y2871675D01*
X7462211Y2871671D01*
X7551392Y2871663D01*
X7644686Y2871652D01*
X7742182Y2871637D01*
X7843974Y2871619D01*
X7950152Y2871598D01*
X8060808Y2871574D01*
X8176035Y2871547D01*
X8295923Y2871517D01*
X8420564Y2871485D01*
X8550050Y2871450D01*
X8642433Y2871425D01*
X11060116Y2870750D01*
X11070537Y2863854D01*
X11078599Y2857218D01*
X11086052Y2849036D01*
X11087854Y2846537D01*
X11094750Y2836116D01*
X11096032Y1677000D01*
X11130953Y1677000D01*
X11130970Y1722523D01*
X11130985Y1786149D01*
X11130994Y1854331D01*
X11130999Y1927224D01*
X11131000Y1992785D01*
X11130993Y2079690D01*
X11130970Y2161991D01*
X11130932Y2239667D01*
X11130878Y2312693D01*
X11130809Y2381047D01*
X11130726Y2444706D01*
X11130627Y2503647D01*
X11130514Y2557847D01*
X11130385Y2607284D01*
X11130242Y2651934D01*
X11130084Y2691774D01*
X11129912Y2726783D01*
X11129725Y2756936D01*
X11129523Y2782210D01*
X11129307Y2802584D01*
X11129076Y2818034D01*
X11128832Y2828536D01*
X11128573Y2834069D01*
X11128487Y2834784D01*
X11122164Y2856145D01*
X11111798Y2874702D01*
X11097598Y2890176D01*
X11079774Y2902291D01*
X11076000Y2904187D01*
X11062250Y2910750D01*
X8638537Y2911382D01*
X8505532Y2911416D01*
X8377435Y2911448D01*
X8254154Y2911477D01*
X8135598Y2911504D01*
X8021674Y2911529D01*
X7912292Y2911550D01*
X7807358Y2911568D01*
X7706781Y2911584D01*
X7610469Y2911596D01*
X7518331Y2911605D01*
X7430274Y2911611D01*
X7346207Y2911612D01*
X7266038Y2911611D01*
X7266038Y2911611D01*
G37*
X7266038Y2911611D02*
X7189675Y2911605D01*
X7117025Y2911596D01*
X7047999Y2911582D01*
X6982502Y2911564D01*
X6920445Y2911542D01*
X6861734Y2911515D01*
X6806278Y2911484D01*
X6753985Y2911448D01*
X6704763Y2911408D01*
X6658521Y2911362D01*
X6615166Y2911311D01*
X6574607Y2911255D01*
X6536752Y2911194D01*
X6501508Y2911127D01*
X6468785Y2911055D01*
X6438491Y2910977D01*
X6410532Y2910893D01*
X6384818Y2910803D01*
X6361257Y2910707D01*
X6339757Y2910605D01*
X6320226Y2910497D01*
X6302573Y2910382D01*
X6286704Y2910260D01*
X6272529Y2910132D01*
X6259956Y2909997D01*
X6248893Y2909855D01*
X6239247Y2909705D01*
X6230928Y2909549D01*
X6223843Y2909385D01*
X6217901Y2909214D01*
X6213009Y2909035D01*
X6209076Y2908848D01*
X6206010Y2908654D01*
X6203719Y2908451D01*
X6202111Y2908241D01*
X6201117Y2908029D01*
X6181183Y2899672D01*
X6163489Y2886860D01*
X6148080Y2869630D01*
X6141326Y2859500D01*
X6136019Y2850750D01*
X6136010Y2000125D01*
X6136000Y1149500D01*
X11123372Y1149500D01*
X11127186Y1156876D01*
X11127541Y1157939D01*
X11127873Y1159815D01*
X11128183Y1162660D01*
X11128473Y1166631D01*
X11128743Y1171883D01*
X11128992Y1178572D01*
X11129224Y1186855D01*
X11129437Y1196887D01*
X11129632Y1208823D01*
X11129812Y1222821D01*
X11129975Y1239036D01*
X11130123Y1257624D01*
X11130256Y1278740D01*
X11130376Y1302542D01*
X11130482Y1329184D01*
X11130576Y1358822D01*
X11130659Y1391614D01*
X11130731Y1427713D01*
X11130792Y1467278D01*
X11130844Y1510462D01*
X11130887Y1557423D01*
X11130922Y1608316D01*
X11130949Y1663298D01*
X11130953Y1677000D01*
X11096032Y1677000D01*
X10914170Y1677000D01*
X10899765Y1652625D01*
X10867125Y1602231D01*
X10830757Y1555023D01*
X10790909Y1511162D01*
X10747832Y1470806D01*
X10701775Y1434113D01*
X10652987Y1401242D01*
X10601718Y1372351D01*
X10548217Y1347599D01*
X10492734Y1327145D01*
X10435518Y1311147D01*
X10376819Y1299764D01*
X10336797Y1294799D01*
X10320216Y1293619D01*
X10300110Y1292840D01*
X10277939Y1292463D01*
X10255163Y1292490D01*
X10233240Y1292921D01*
X10213631Y1293759D01*
X10201000Y1294683D01*
X10142496Y1302588D01*
X10084514Y1315318D01*
X10027554Y1332700D01*
X9972112Y1354561D01*
X9918685Y1380726D01*
X9902052Y1390624D01*
X8773500Y1390624D01*
X8773500Y1251747D01*
X8691625Y1252499D01*
X8609750Y1253250D01*
X8587581Y1264285D01*
X8571012Y1273091D01*
X8558663Y1281227D01*
X8549962Y1289447D01*
X8544334Y1298502D01*
X8541207Y1309146D01*
X8540008Y1322133D01*
X8539938Y1326878D01*
X8541695Y1348686D01*
X8546981Y1367288D01*
X8555703Y1382511D01*
X8567772Y1394181D01*
X8578462Y1400278D01*
X8584916Y1403345D01*
X8587352Y1405354D01*
X8586410Y1407065D01*
X8584952Y1408002D01*
X8570305Y1419038D01*
X8559874Y1432710D01*
X8553566Y1449168D01*
X8551539Y1462634D01*
X8552113Y1480493D01*
X8556803Y1496016D01*
X8565902Y1510087D01*
X8568013Y1512516D01*
X8573196Y1518095D01*
X8577718Y1522178D01*
X8582606Y1525228D01*
X8588886Y1527709D01*
X8597585Y1530082D01*
X8609730Y1532811D01*
X8616000Y1534152D01*
X8622978Y1534881D01*
X8634905Y1535153D01*
X8651750Y1534970D01*
X8673484Y1534330D01*
X8699750Y1533250D01*
X8718239Y1532402D01*
X8735030Y1531619D01*
X8749497Y1530933D01*
X8761012Y1530372D01*
X8768947Y1529967D01*
X8772674Y1529748D01*
X8772875Y1529726D01*
X8772992Y1527258D01*
X8773101Y1520240D01*
X8773201Y1509122D01*
X8773290Y1494354D01*
X8773366Y1476387D01*
X8773427Y1455670D01*
X8773471Y1432653D01*
X8773496Y1407786D01*
X8773500Y1390624D01*
X9902052Y1390624D01*
X9867773Y1411021D01*
X9867350Y1411298D01*
X9844719Y1426499D01*
X9824569Y1441016D01*
X9805743Y1455792D01*
X9787085Y1471769D01*
X9767438Y1489891D01*
X9748945Y1507836D01*
X9722620Y1535528D01*
X8521000Y1535528D01*
X8519781Y1533069D01*
X8516342Y1526882D01*
X8511013Y1517542D01*
X8504125Y1505622D01*
X8496007Y1491696D01*
X8486988Y1476339D01*
X8486879Y1476153D01*
X8476909Y1459136D01*
X8466992Y1442032D01*
X8457658Y1425765D01*
X8449436Y1411262D01*
X8442855Y1399450D01*
X8439379Y1393035D01*
X8426000Y1367819D01*
X8426000Y1257000D01*
X8363500Y1257000D01*
X8363500Y1342150D01*
X7614091Y1342150D01*
X7612313Y1330294D01*
X7607910Y1312080D01*
X7600330Y1296363D01*
X7589204Y1282768D01*
X7574161Y1270919D01*
X7554833Y1260442D01*
X7536000Y1252782D01*
X7529184Y1250466D01*
X7522939Y1248876D01*
X7516138Y1247902D01*
X7507653Y1247436D01*
X7496354Y1247367D01*
X7482250Y1247566D01*
X7444750Y1248250D01*
X7425177Y1257596D01*
X7421225Y1259554D01*
X7367630Y1259554D01*
X7366339Y1258320D01*
X7362790Y1257561D01*
X7356218Y1257164D01*
X7345857Y1257016D01*
X7337765Y1257000D01*
X7306692Y1257000D01*
X7284364Y1318250D01*
X7232908Y1318926D01*
X7181452Y1319601D01*
X7177452Y1308926D01*
X7174654Y1301367D01*
X7170900Y1291106D01*
X7166923Y1280144D01*
X7166239Y1278250D01*
X7159027Y1258250D01*
X7127532Y1257551D01*
X7096036Y1256851D01*
X7104487Y1280051D01*
X7107411Y1288058D01*
X7111638Y1299601D01*
X7116970Y1314143D01*
X7123210Y1331148D01*
X7130160Y1350080D01*
X7137624Y1370401D01*
X7145404Y1391577D01*
X7153304Y1413070D01*
X7161125Y1434344D01*
X7168671Y1454863D01*
X7175746Y1474091D01*
X7182150Y1491490D01*
X7187688Y1506526D01*
X7192163Y1518661D01*
X7195376Y1527359D01*
X7197131Y1532084D01*
X7197362Y1532694D01*
X7198499Y1534482D01*
X7200814Y1535683D01*
X7205120Y1536383D01*
X7212231Y1536668D01*
X7222961Y1536623D01*
X7232953Y1536444D01*
X7266819Y1535750D01*
X7316418Y1400750D01*
X7325543Y1375905D01*
X7334174Y1352389D01*
X7342151Y1330635D01*
X7349317Y1311074D01*
X7355514Y1294140D01*
X7360583Y1280264D01*
X7364367Y1269879D01*
X7366707Y1263416D01*
X7367428Y1261375D01*
X7367630Y1259554D01*
X7421225Y1259554D01*
X7412117Y1264066D01*
X7402667Y1269522D01*
X7395798Y1274821D01*
X7390482Y1280819D01*
X7385692Y1288371D01*
X7383583Y1292223D01*
X7379151Y1301191D01*
X7376660Y1308642D01*
X7375581Y1316811D01*
X7375376Y1326724D01*
X7377179Y1347551D01*
X7382594Y1365060D01*
X7391777Y1379541D01*
X7404881Y1391287D01*
X7411794Y1395588D01*
X7420307Y1399989D01*
X7427656Y1403153D01*
X7432326Y1404432D01*
X7432491Y1404435D01*
X7437815Y1405223D01*
X7446708Y1407436D01*
X7458068Y1410718D01*
X7470792Y1414714D01*
X7483777Y1419068D01*
X7495922Y1423423D01*
X7506123Y1427424D01*
X7512250Y1430183D01*
X7523918Y1436435D01*
X7531625Y1441808D01*
X7536119Y1447106D01*
X7538147Y1453133D01*
X7538500Y1458385D01*
X7537904Y1465303D01*
X7535491Y1470955D01*
X7530329Y1477287D01*
X7528503Y1479199D01*
X7518506Y1489500D01*
X7458500Y1489500D01*
X7448500Y1479500D01*
X7442963Y1473155D01*
X7439331Y1467444D01*
X7438500Y1464705D01*
X7438232Y1459389D01*
X7436879Y1455807D01*
X7433620Y1453619D01*
X7427633Y1452483D01*
X7418097Y1452058D01*
X7407904Y1452000D01*
X7380342Y1452000D01*
X7381736Y1462396D01*
X7383549Y1469727D01*
X7387049Y1479498D01*
X7391528Y1489761D01*
X7392194Y1491129D01*
X7400255Y1504859D01*
X7409831Y1515649D01*
X7422007Y1524433D01*
X7437869Y1532142D01*
X7441772Y1533713D01*
X7450145Y1536797D01*
X7457426Y1538827D01*
X7465081Y1540019D01*
X7474575Y1540587D01*
X7487374Y1540746D01*
X7489750Y1540748D01*
X7519750Y1540746D01*
X7542600Y1528986D01*
X7557219Y1520727D01*
X7568236Y1512462D01*
X7576897Y1502967D01*
X7584449Y1491016D01*
X7587764Y1484621D01*
X7591112Y1477239D01*
X7593174Y1470513D01*
X7594253Y1462790D01*
X7594654Y1452414D01*
X7594693Y1446943D01*
X7594620Y1435638D01*
X7594111Y1427833D01*
X7592829Y1422030D01*
X7590438Y1416730D01*
X7586600Y1410435D01*
X7586429Y1410168D01*
X7578019Y1400255D01*
X7564963Y1389366D01*
X7547481Y1377671D01*
X7532068Y1368730D01*
X7527769Y1367353D01*
X7519717Y1365590D01*
X7509123Y1363656D01*
X7497196Y1361765D01*
X7485149Y1360134D01*
X7480944Y1359644D01*
X7466901Y1356589D01*
X7454794Y1351094D01*
X7445293Y1343761D01*
X7439069Y1335187D01*
X7436790Y1325973D01*
X7437489Y1320750D01*
X7442445Y1308197D01*
X7449486Y1299526D01*
X7459235Y1294346D01*
X7472315Y1292266D01*
X7482731Y1292382D01*
X7499193Y1294748D01*
X7513622Y1300089D01*
X7521407Y1304382D01*
X7527242Y1309173D01*
X7532574Y1315894D01*
X7537547Y1323790D01*
X7547696Y1340750D01*
X7580893Y1341450D01*
X7614091Y1342150D01*
X8363500Y1342150D01*
X8363500Y1364929D01*
X8312251Y1450340D01*
X8261002Y1535750D01*
X8292744Y1536454D01*
X8304996Y1536641D01*
X8315508Y1536644D01*
X8323230Y1536473D01*
X8327111Y1536139D01*
X8327249Y1536097D01*
X8329248Y1533707D01*
X8333316Y1527602D01*
X8339060Y1518416D01*
X8346084Y1506787D01*
X8353996Y1493349D01*
X8357877Y1486644D01*
X8366146Y1472340D01*
X8373742Y1459301D01*
X8380258Y1448220D01*
X8385284Y1439793D01*
X8388411Y1434712D01*
X8389071Y1433729D01*
X8390311Y1432688D01*
X8391920Y1433014D01*
X8394207Y1435151D01*
X8397485Y1439546D01*
X8402062Y1446642D01*
X8408250Y1456886D01*
X8416359Y1470721D01*
X8423532Y1483104D01*
X8454667Y1537000D01*
X8487834Y1537000D01*
X8500056Y1536896D01*
X8510248Y1536611D01*
X8517492Y1536185D01*
X8520868Y1535660D01*
X8521000Y1535528D01*
X9722620Y1535528D01*
X9711587Y1547133D01*
X9678554Y1587108D01*
X9649174Y1628609D01*
X9634237Y1652545D01*
X9619750Y1676840D01*
X6182250Y1678250D01*
X6181620Y2251713D01*
X6181551Y2323002D01*
X6181507Y2389353D01*
X6181487Y2450829D01*
X6181493Y2507492D01*
X6181524Y2559405D01*
X6181580Y2606630D01*
X6181661Y2649230D01*
X6181769Y2687267D01*
X6181903Y2720804D01*
X6182063Y2749902D01*
X6182249Y2774625D01*
X6182462Y2795034D01*
X6182702Y2811192D01*
X6182970Y2823163D01*
X6183264Y2831007D01*
X6183587Y2834787D01*
X6183630Y2834980D01*
X6188710Y2845981D01*
X6197180Y2856450D01*
X6207546Y2864774D01*
X6214284Y2868154D01*
X6215154Y2868370D01*
X6216652Y2868579D01*
X6218869Y2868779D01*
X6221898Y2868972D01*
X6225830Y2869157D01*
X6230756Y2869334D01*
X6236769Y2869503D01*
X6243961Y2869665D01*
X6252422Y2869820D01*
X6262244Y2869967D01*
X6273520Y2870108D01*
X6286340Y2870241D01*
X6300797Y2870368D01*
X6316982Y2870487D01*
X6334987Y2870601D01*
X6354903Y2870708D01*
X6376823Y2870808D01*
X6400837Y2870902D01*
X6427038Y2870990D01*
X6455517Y2871073D01*
X6486366Y2871149D01*
X6519676Y2871219D01*
X6555539Y2871284D01*
X6594048Y2871344D01*
X6635293Y2871398D01*
X6679366Y2871447D01*
X6726359Y2871491D01*
X6776363Y2871530D01*
X6829471Y2871564D01*
X6885773Y2871593D01*
X6945363Y2871618D01*
X7008330Y2871638D01*
X7074767Y2871654D01*
X7144766Y2871665D01*
X7218418Y2871672D01*
X7295815Y2871676D01*
X7377049Y2871675D01*
X7462211Y2871671D01*
X7551392Y2871663D01*
X7644686Y2871652D01*
X7742182Y2871637D01*
X7843974Y2871619D01*
X7950152Y2871598D01*
X8060808Y2871574D01*
X8176035Y2871547D01*
X8295923Y2871517D01*
X8420564Y2871485D01*
X8550050Y2871450D01*
X8642433Y2871425D01*
X11060116Y2870750D01*
X11070537Y2863854D01*
X11078599Y2857218D01*
X11086052Y2849036D01*
X11087854Y2846537D01*
X11094750Y2836116D01*
X11096032Y1677000D01*
X11130953Y1677000D01*
X11130970Y1722523D01*
X11130985Y1786149D01*
X11130994Y1854331D01*
X11130999Y1927224D01*
X11131000Y1992785D01*
X11130993Y2079690D01*
X11130970Y2161991D01*
X11130932Y2239667D01*
X11130878Y2312693D01*
X11130809Y2381047D01*
X11130726Y2444706D01*
X11130627Y2503647D01*
X11130514Y2557847D01*
X11130385Y2607284D01*
X11130242Y2651934D01*
X11130084Y2691774D01*
X11129912Y2726783D01*
X11129725Y2756936D01*
X11129523Y2782210D01*
X11129307Y2802584D01*
X11129076Y2818034D01*
X11128832Y2828536D01*
X11128573Y2834069D01*
X11128487Y2834784D01*
X11122164Y2856145D01*
X11111798Y2874702D01*
X11097598Y2890176D01*
X11079774Y2902291D01*
X11076000Y2904187D01*
X11062250Y2910750D01*
X8638537Y2911382D01*
X8505532Y2911416D01*
X8377435Y2911448D01*
X8254154Y2911477D01*
X8135598Y2911504D01*
X8021674Y2911529D01*
X7912292Y2911550D01*
X7807358Y2911568D01*
X7706781Y2911584D01*
X7610469Y2911596D01*
X7518331Y2911605D01*
X7430274Y2911611D01*
X7346207Y2911612D01*
X7266038Y2911611D01*
M02*
